<svg width="11" height="15" viewBox="0 0 11 15" fill="none" xmlns="http://www.w3.org/2000/svg">
<circle cx="2.5" cy="12.5" r="2.5" transform="rotate(-180 2.5 12.5)" fill="#1F1F1F"/>
<circle cx="2.5" cy="2.5" r="2.5" transform="rotate(-180 2.5 2.5)" fill="#1F1F1F"/>
<circle cx="8.5" cy="7.5" r="2.5" transform="rotate(-180 8.5 7.5)" fill="#1F1F1F"/>
<path d="M4.50012 14L1.50016 10.5L1.74802 10.469C4.04076 10.1824 5.96522 8.60476 6.6959 6.41276L7.00017 5.49999L10.0002 9.49999L9.60003 9.55001C7.38667 9.82668 5.50948 11.3084 4.72627 13.3969L4.50012 14Z" fill="#1F1F1F"/>
<path d="M6.72137 8.8465L9.5609 5.21513L9.31189 5.19532C7.00859 5.01213 5.01513 3.52261 4.18661 1.36568L3.8416 0.467516L1.02448 4.59838L1.4265 4.63036C3.65006 4.80721 5.59198 6.20298 6.46833 8.25421L6.72137 8.8465Z" fill="#1F1F1F"/>
</svg>
