<svg width="102" height="103" viewBox="0 0 102 103" fill="none" xmlns="http://www.w3.org/2000/svg">
<g clip-path="url(#clip0_67_474)">
<path d="M86.5408 87.3876C95.0848 78.7598 86.0999 55.6984 66.4724 35.8785C46.845 16.0586 24.0075 6.98563 15.4635 15.6134C6.91942 24.2412 15.9044 47.3026 35.5318 67.1224C55.1593 86.9423 77.9968 96.0153 86.5408 87.3876Z" stroke="url(#paint0_linear_67_474)" stroke-width="2" stroke-miterlimit="10"/>
<path d="M81.9568 92.0096C90.5008 83.3819 81.5159 60.3205 61.8885 40.5006C42.261 20.6807 19.4235 11.6077 10.8795 20.2355C2.33544 28.8632 11.3204 51.9246 30.9479 71.7445C50.5753 91.5644 73.4128 100.637 81.9568 92.0096Z" stroke="url(#paint1_linear_67_474)" stroke-width="2" stroke-miterlimit="10"/>
<path d="M88.826 85.0741C97.37 76.4463 88.3851 53.3849 68.7576 33.565C49.1301 13.7451 26.2926 4.67217 17.7486 13.2999C9.20461 21.9277 18.1895 44.9891 37.817 64.809C57.4445 84.6289 80.282 93.7019 88.826 85.0741Z" stroke="url(#paint2_linear_67_474)" stroke-width="2" stroke-miterlimit="10"/>
<path d="M93.41 80.4511C101.954 71.8233 92.969 48.7619 73.3416 28.942C53.7141 9.12212 30.8766 0.0491135 22.3326 8.67688C13.7886 17.3046 22.7735 40.366 42.401 60.1859C62.0285 80.0058 84.866 89.0788 93.41 80.4511Z" stroke="url(#paint3_linear_67_474)" stroke-width="2" stroke-miterlimit="10"/>
<path d="M95.695 78.1385C104.239 69.5108 95.2541 46.4494 75.6266 26.6295C55.9992 6.80962 33.1617 -2.26338 24.6177 6.36439C16.0737 14.9921 25.0586 38.0535 44.686 57.8734C64.3135 77.6933 87.151 86.7663 95.695 78.1385Z" stroke="url(#paint4_linear_67_474)" stroke-width="2" stroke-miterlimit="10"/>
<path d="M91.118 82.7645C99.662 74.1368 90.6771 51.0754 71.0496 31.2555C51.4221 11.4356 28.5846 2.3626 20.0406 10.9903C11.4966 19.6181 20.4815 42.6795 40.109 62.4994C59.7365 82.3193 82.574 91.3923 91.118 82.7645Z" stroke="url(#paint5_linear_67_474)" stroke-width="2" stroke-miterlimit="10"/>
<path d="M84.2488 89.7001C92.7928 81.0723 83.8079 58.0109 64.1804 38.191C44.553 18.3711 21.7155 9.29813 13.1715 17.9259C4.62743 26.5537 13.6124 49.6151 33.2399 69.4349C52.8673 89.2548 75.7048 98.3278 84.2488 89.7001Z" stroke="url(#paint6_linear_67_474)" stroke-width="2" stroke-miterlimit="10"/>
<path d="M75.0818 98.9511C83.6258 90.3233 74.6409 67.2619 55.0135 47.442C35.386 27.6221 12.5485 18.5491 4.00446 27.1769C-4.53955 35.8046 4.44537 58.866 24.0729 78.6859C43.7003 98.5058 66.5378 107.579 75.0818 98.9511Z" stroke="url(#paint7_linear_67_474)" stroke-width="2" stroke-miterlimit="10"/>
<path d="M79.6717 94.3231C88.2157 85.6953 79.2308 62.634 59.6033 42.8141C39.9758 22.9942 17.1383 13.9212 8.59431 22.5489C0.0502973 31.1767 9.03522 54.2381 28.6627 74.058C48.2902 93.8779 71.1277 102.951 79.6717 94.3231Z" stroke="url(#paint8_linear_67_474)" stroke-width="2" stroke-miterlimit="10"/>
<path d="M77.3797 96.6356C85.9237 88.0078 76.9388 64.9465 57.3113 45.1266C37.6838 25.3067 14.8463 16.2337 6.30232 24.8614C-2.24169 33.4892 6.74323 56.5506 26.3707 76.3705C45.9982 96.1904 68.8357 105.263 77.3797 96.6356Z" stroke="url(#paint9_linear_67_474)" stroke-width="2" stroke-miterlimit="10"/>
<path d="M97.9812 75.8231C106.525 67.1953 97.5403 44.134 77.9129 24.3141C58.2854 4.49418 35.4479 -4.57881 26.9039 4.04896C18.3599 12.6767 27.3448 35.7381 46.9723 55.558C66.5997 75.3779 89.4372 84.4509 97.9812 75.8231Z" stroke="url(#paint10_linear_67_474)" stroke-width="2" stroke-miterlimit="10"/>
</g>
<defs>
<linearGradient id="paint0_linear_67_474" x1="42.7968" y1="20.2971" x2="15.5357" y2="51.0421" gradientUnits="userSpaceOnUse">
<stop stop-color="#E24C4A"/>
<stop offset="1" stop-color="#386BB7"/>
</linearGradient>
<linearGradient id="paint1_linear_67_474" x1="38.2128" y1="24.9192" x2="10.9517" y2="55.6642" gradientUnits="userSpaceOnUse">
<stop stop-color="#E24C4A"/>
<stop offset="1" stop-color="#386BB7"/>
</linearGradient>
<linearGradient id="paint2_linear_67_474" x1="45.082" y1="17.9836" x2="17.8208" y2="48.7286" gradientUnits="userSpaceOnUse">
<stop stop-color="#E24C4A"/>
<stop offset="1" stop-color="#386BB7"/>
</linearGradient>
<linearGradient id="paint3_linear_67_474" x1="49.6659" y1="13.3606" x2="22.4048" y2="44.1056" gradientUnits="userSpaceOnUse">
<stop stop-color="#E24C4A"/>
<stop offset="1" stop-color="#386BB7"/>
</linearGradient>
<linearGradient id="paint4_linear_67_474" x1="51.951" y1="11.0481" x2="24.6899" y2="41.7931" gradientUnits="userSpaceOnUse">
<stop stop-color="#E24C4A"/>
<stop offset="1" stop-color="#386BB7"/>
</linearGradient>
<linearGradient id="paint5_linear_67_474" x1="47.374" y1="15.6741" x2="20.1128" y2="46.4191" gradientUnits="userSpaceOnUse">
<stop stop-color="#E24C4A"/>
<stop offset="1" stop-color="#386BB7"/>
</linearGradient>
<linearGradient id="paint6_linear_67_474" x1="40.5048" y1="22.6096" x2="13.2437" y2="53.3546" gradientUnits="userSpaceOnUse">
<stop stop-color="#E24C4A"/>
<stop offset="1" stop-color="#386BB7"/>
</linearGradient>
<linearGradient id="paint7_linear_67_474" x1="31.3378" y1="31.8606" x2="4.07666" y2="62.6056" gradientUnits="userSpaceOnUse">
<stop stop-color="#E24C4A"/>
<stop offset="1" stop-color="#386BB7"/>
</linearGradient>
<linearGradient id="paint8_linear_67_474" x1="35.9277" y1="27.2326" x2="8.6665" y2="57.9777" gradientUnits="userSpaceOnUse">
<stop stop-color="#E24C4A"/>
<stop offset="1" stop-color="#386BB7"/>
</linearGradient>
<linearGradient id="paint9_linear_67_474" x1="33.6357" y1="29.5451" x2="6.37452" y2="60.2902" gradientUnits="userSpaceOnUse">
<stop stop-color="#E24C4A"/>
<stop offset="1" stop-color="#386BB7"/>
</linearGradient>
<linearGradient id="paint10_linear_67_474" x1="54.2372" y1="8.73267" x2="26.9761" y2="39.4777" gradientUnits="userSpaceOnUse">
<stop stop-color="#E24C4A"/>
<stop offset="1" stop-color="#386BB7"/>
</linearGradient>
<clipPath id="clip0_67_474">
<rect width="102" height="103" fill="white"/>
</clipPath>
</defs>
</svg>
