<svg width="80" height="80" viewBox="0 0 80 80" fill="none" xmlns="http://www.w3.org/2000/svg">
<rect x="20" y="20" width="60" height="60" rx="30" fill="white"/>
<rect x="30" y="30" width="40" height="40" rx="20" fill="#1F1F1F"/>
<ellipse cx="1.83334" cy="1.83336" rx="1.83334" ry="1.83336" transform="matrix(-1 0 0 1 49.6001 44)" fill="#F0F2F4"/>
<ellipse cx="1.83334" cy="1.83336" rx="1.83334" ry="1.83336" transform="matrix(-1 0 0 1 49.6001 51.3334)" fill="#F0F2F4"/>
<ellipse cx="1.83334" cy="1.83336" rx="1.83334" ry="1.83336" transform="matrix(-1 0 0 1 54 47.6669)" fill="#F0F2F4"/>
<path d="M49.2334 44.7331L47.0334 47.2998C48.8258 47.5238 50.3303 48.7572 50.9015 50.4709L51.0667 50.9665L53.2668 48.0331C51.4632 47.8077 49.9336 46.6003 49.2954 44.8984L49.2334 44.7331Z" fill="#F0F2F4"/>
<path d="M50.8622 48.5128L52.9446 51.1759C51.1439 51.3191 49.5855 52.4836 48.9377 54.1698L48.7504 54.6575L46.6845 51.6282C48.4964 51.484 50.0788 50.3467 50.7929 48.6752L50.8622 48.5128Z" fill="#F0F2F4"/>
<path d="M-3.43826e-09 69.9213C10.2189 68.2017 18.2429 60.2126 20 50L29 70L-3.43826e-09 69.9213Z" fill="white"/>
<path d="M50 19.9213C60.2189 18.2017 68.2429 10.2126 70 -8.74228e-07L70 31L50 19.9213Z" fill="white"/>
</svg>
