<svg width="80" height="80" viewBox="0 0 80 80" fill="none" xmlns="http://www.w3.org/2000/svg">
<rect x="20" y="20" width="60" height="60" rx="30" fill="#1F1F1F"/>
<rect x="30" y="30" width="40" height="40" rx="20" fill="white"/>
<ellipse cx="1.83334" cy="1.83336" rx="1.83334" ry="1.83336" transform="matrix(-1 0 0 1 49.6001 44)" fill="#1F1F1F"/>
<ellipse cx="1.83334" cy="1.83336" rx="1.83334" ry="1.83336" transform="matrix(-1 0 0 1 49.6001 51.3335)" fill="#1F1F1F"/>
<ellipse cx="1.83334" cy="1.83336" rx="1.83334" ry="1.83336" transform="matrix(-1 0 0 1 54 47.667)" fill="#1F1F1F"/>
<path d="M49.2334 44.733L47.0334 47.2997C48.8258 47.5237 50.3303 48.7571 50.9015 50.4708L51.0667 50.9664L53.2668 48.033C51.4632 47.8076 49.9336 46.6002 49.2954 44.8983L49.2334 44.733Z" fill="#1F1F1F"/>
<path d="M50.8622 48.513L52.9446 51.176C51.1439 51.3192 49.5855 52.4837 48.9377 54.17L48.7504 54.6576L46.6845 51.6283C48.4964 51.4842 50.0788 50.3468 50.7929 48.6753L50.8622 48.513Z" fill="#1F1F1F"/>
<path d="M-3.43826e-09 69.9213C10.2189 68.2017 18.2429 60.2126 20 50L29 70L-3.43826e-09 69.9213Z" fill="#1F1F1F"/>
<path d="M50 19.9213C60.2189 18.2017 68.2429 10.2126 70 -8.74228e-07L70 31L50 19.9213Z" fill="#1F1F1F"/>
</svg>
