<svg width="430" height="120" viewBox="0 0 430 120" fill="none" xmlns="http://www.w3.org/2000/svg">
<path d="M20 45C20 31.1929 31.1929 20 45 20H430V95C430 108.807 418.807 120 405 120H20V45Z" fill="#F0F2F4"/>
<path d="M410 19.9213C420.219 18.2017 428.243 10.2126 430 2.62268e-06L430 20L410 19.9213Z" fill="#F0F2F4"/>
<path d="M1.03147e-08 119.921C10.2189 118.202 18.2429 110.213 20 100L20 120L1.03147e-08 119.921Z" fill="#F0F2F4"/>
<path d="M95.16 70.904V69.56H100.44V70.904H95.16ZM96.104 76V64.48H99.712C99.8187 64.48 100.016 64.4827 100.304 64.488C100.597 64.4933 100.877 64.5147 101.144 64.552C102.045 64.664 102.803 64.9867 103.416 65.52C104.035 66.0533 104.501 66.7307 104.816 67.552C105.131 68.368 105.288 69.264 105.288 70.24C105.288 71.2213 105.131 72.1227 104.816 72.944C104.501 73.76 104.035 74.4347 103.416 74.968C102.803 75.496 102.045 75.816 101.144 75.928C100.877 75.9653 100.597 75.9867 100.304 75.992C100.016 75.9973 99.8187 76 99.712 76H96.104ZM97.816 74.408H99.712C99.8933 74.408 100.109 74.4027 100.36 74.392C100.611 74.3813 100.832 74.36 101.024 74.328C101.611 74.216 102.085 73.9627 102.448 73.568C102.816 73.168 103.085 72.6773 103.256 72.096C103.427 71.5147 103.512 70.896 103.512 70.24C103.512 69.5627 103.424 68.936 103.248 68.36C103.072 67.7787 102.8 67.2933 102.432 66.904C102.069 66.5093 101.6 66.2587 101.024 66.152C100.832 66.1147 100.608 66.0933 100.352 66.088C100.101 66.0773 99.888 66.072 99.712 66.072H97.816V74.408ZM110.679 66.368C110.258 66.368 109.871 66.264 109.519 66.056C109.173 65.848 108.895 65.5707 108.687 65.224C108.479 64.8773 108.375 64.4907 108.375 64.064H109.703C109.703 64.3307 109.799 64.56 109.991 64.752C110.183 64.944 110.413 65.04 110.679 65.04C110.951 65.04 111.181 64.944 111.367 64.752C111.559 64.56 111.655 64.3307 111.655 64.064H112.983C112.983 64.4907 112.879 64.8773 112.671 65.224C112.469 65.5707 112.191 65.848 111.839 66.056C111.493 66.264 111.106 66.368 110.679 66.368ZM109.591 76.24C108.951 76.24 108.415 76.1227 107.983 75.888C107.551 75.648 107.223 75.3333 106.999 74.944C106.781 74.5493 106.671 74.1173 106.671 73.648C106.671 73.2107 106.749 72.8267 106.903 72.496C107.058 72.1653 107.287 71.8853 107.591 71.656C107.895 71.4213 108.269 71.232 108.711 71.088C109.095 70.976 109.53 70.8773 110.015 70.792C110.501 70.7067 111.01 70.6267 111.543 70.552C112.082 70.4773 112.615 70.4027 113.143 70.328L112.535 70.664C112.546 69.9867 112.402 69.4853 112.103 69.16C111.81 68.8293 111.303 68.664 110.583 68.664C110.13 68.664 109.714 68.7707 109.335 68.984C108.957 69.192 108.693 69.5387 108.543 70.024L106.983 69.544C107.197 68.8027 107.602 68.2133 108.199 67.776C108.802 67.3387 109.602 67.12 110.599 67.12C111.373 67.12 112.045 67.2533 112.615 67.52C113.191 67.7813 113.613 68.1973 113.879 68.768C114.018 69.0507 114.103 69.3493 114.135 69.664C114.167 69.9787 114.183 70.3173 114.183 70.68V76H112.703V74.024L112.991 74.28C112.634 74.9413 112.178 75.4347 111.623 75.76C111.074 76.08 110.397 76.24 109.591 76.24ZM109.887 74.872C110.362 74.872 110.77 74.7893 111.111 74.624C111.453 74.4533 111.727 74.2373 111.935 73.976C112.143 73.7147 112.279 73.4427 112.343 73.16C112.434 72.904 112.485 72.616 112.495 72.296C112.511 71.976 112.519 71.72 112.519 71.528L113.063 71.728C112.535 71.808 112.055 71.88 111.623 71.944C111.191 72.008 110.799 72.072 110.447 72.136C110.101 72.1947 109.791 72.2667 109.519 72.352C109.29 72.432 109.085 72.528 108.903 72.64C108.727 72.752 108.586 72.888 108.479 73.048C108.378 73.208 108.327 73.4027 108.327 73.632C108.327 73.856 108.383 74.064 108.495 74.256C108.607 74.4427 108.778 74.592 109.007 74.704C109.237 74.816 109.53 74.872 109.887 74.872ZM122.325 76V71.752C122.325 71.416 122.295 71.072 122.237 70.72C122.183 70.3627 122.077 70.032 121.917 69.728C121.762 69.424 121.541 69.1787 121.253 68.992C120.97 68.8053 120.599 68.712 120.141 68.712C119.842 68.712 119.559 68.7627 119.293 68.864C119.026 68.96 118.791 69.1173 118.589 69.336C118.391 69.5547 118.234 69.8427 118.117 70.2C118.005 70.5573 117.949 70.992 117.949 71.504L116.909 71.112C116.909 70.328 117.055 69.6373 117.349 69.04C117.642 68.4373 118.063 67.968 118.613 67.632C119.162 67.296 119.826 67.128 120.605 67.128C121.202 67.128 121.703 67.224 122.109 67.416C122.514 67.608 122.842 67.8613 123.093 68.176C123.349 68.4853 123.543 68.824 123.677 69.192C123.81 69.56 123.901 69.92 123.949 70.272C123.997 70.624 124.021 70.9333 124.021 71.2V76H122.325ZM116.253 76V67.36H117.749V69.856H117.949V76H116.253ZM129.664 80.08C129.2 80.08 128.75 80.008 128.312 79.864C127.88 79.72 127.486 79.5067 127.128 79.224C126.771 78.9467 126.475 78.6027 126.24 78.192L127.784 77.408C127.971 77.776 128.238 78.0453 128.584 78.216C128.931 78.3867 129.296 78.472 129.68 78.472C130.155 78.472 130.56 78.3867 130.896 78.216C131.232 78.0507 131.486 77.8 131.656 77.464C131.832 77.128 131.918 76.712 131.912 76.216V73.8H132.112V67.36H133.592V76.232C133.592 76.4613 133.584 76.68 133.568 76.888C133.552 77.096 133.523 77.304 133.48 77.512C133.358 78.0933 133.123 78.5733 132.776 78.952C132.435 79.3307 131.998 79.6133 131.464 79.8C130.936 79.9867 130.336 80.08 129.664 80.08ZM129.536 76.24C128.731 76.24 128.035 76.04 127.448 75.64C126.867 75.24 126.416 74.696 126.096 74.008C125.782 73.3147 125.624 72.536 125.624 71.672C125.624 70.8027 125.784 70.0267 126.104 69.344C126.424 68.656 126.878 68.1147 127.464 67.72C128.056 67.32 128.758 67.12 129.568 67.12C130.384 67.12 131.07 67.32 131.624 67.72C132.184 68.1147 132.606 68.656 132.888 69.344C133.176 70.032 133.32 70.808 133.32 71.672C133.32 72.536 133.176 73.312 132.888 74C132.6 74.688 132.176 75.2347 131.616 75.64C131.056 76.04 130.363 76.24 129.536 76.24ZM129.768 74.728C130.318 74.728 130.766 74.5973 131.112 74.336C131.459 74.0747 131.712 73.7147 131.872 73.256C132.032 72.7973 132.112 72.2693 132.112 71.672C132.112 71.0747 132.03 70.5467 131.864 70.088C131.704 69.6293 131.454 69.272 131.112 69.016C130.776 68.76 130.347 68.632 129.824 68.632C129.27 68.632 128.814 68.768 128.456 69.04C128.099 69.312 127.832 69.6773 127.656 70.136C127.486 70.5947 127.4 71.1067 127.4 71.672C127.4 72.2427 127.486 72.76 127.656 73.224C127.832 73.6827 128.094 74.048 128.44 74.32C128.792 74.592 129.235 74.728 129.768 74.728ZM139.034 76L139.042 64.48H140.738V71.52L144.13 67.36H146.258L142.674 71.68L146.626 76H144.354L140.738 71.84V76H139.034ZM151.425 66.08H150.113L151.257 63.28H152.569L151.425 66.08ZM148.601 79.84L150.273 75.288L150.297 76.632L146.529 67.36H148.273L151.089 74.52H150.577L153.265 67.36H154.961L150.193 79.84H148.601ZM164.361 76C163.817 76.1067 163.284 76.152 162.761 76.136C162.238 76.12 161.772 76.0187 161.361 75.832C160.95 75.6453 160.641 75.352 160.433 74.952C160.246 74.5947 160.145 74.232 160.129 73.864C160.118 73.4907 160.113 73.0693 160.113 72.6V64.96H161.793V72.52C161.793 72.8667 161.796 73.168 161.801 73.424C161.812 73.68 161.868 73.896 161.969 74.072C162.161 74.4027 162.465 74.592 162.881 74.64C163.302 74.6827 163.796 74.664 164.361 74.584V76ZM158.457 68.704V67.36H164.361V68.704H158.457ZM173.975 65.928L175.279 65.92C175.353 66.4533 175.329 66.8987 175.207 67.256C175.084 67.6133 174.863 67.8907 174.543 68.088C174.244 68.264 173.908 68.3573 173.535 68.368C173.161 68.3733 172.809 68.3547 172.479 68.312V67.36C172.596 67.36 172.711 67.36 172.823 67.36C172.94 67.3547 173.055 67.3413 173.167 67.32C173.556 67.2453 173.791 67.072 173.871 66.8C173.956 66.5227 173.991 66.232 173.975 65.928ZM169.439 76.232C168.841 76.232 168.34 76.136 167.935 75.944C167.529 75.752 167.199 75.5013 166.943 75.192C166.692 74.8773 166.5 74.536 166.367 74.168C166.233 73.8 166.143 73.44 166.095 73.088C166.047 72.736 166.023 72.4267 166.023 72.16V67.36H167.719V71.608C167.719 71.944 167.745 72.2907 167.799 72.648C167.857 73 167.964 73.328 168.119 73.632C168.279 73.936 168.5 74.1813 168.783 74.368C169.071 74.5547 169.444 74.648 169.903 74.648C170.201 74.648 170.484 74.6 170.751 74.504C171.017 74.4027 171.249 74.2427 171.447 74.024C171.649 73.8053 171.807 73.5173 171.919 73.16C172.036 72.8027 172.095 72.368 172.095 71.856L173.135 72.248C173.135 73.032 172.988 73.7253 172.695 74.328C172.401 74.9253 171.98 75.392 171.431 75.728C170.881 76.064 170.217 76.232 169.439 76.232ZM172.295 76V73.504H172.095V67.36H173.783V76H172.295ZM181.565 76L178.429 67.36H180.117L182.413 73.904L184.709 67.36H186.397L183.261 76H181.565ZM188.178 66.08L190.25 63.68H191.69L193.754 66.08H192.154L190.97 64.664L189.778 66.08H188.178ZM194.738 64.4H193.426L194.57 61.6H195.882L194.738 64.4ZM189.794 76.24C189.154 76.24 188.618 76.1227 188.186 75.888C187.754 75.648 187.426 75.3333 187.202 74.944C186.984 74.5493 186.874 74.1173 186.874 73.648C186.874 73.2107 186.952 72.8267 187.106 72.496C187.261 72.1653 187.49 71.8853 187.794 71.656C188.098 71.4213 188.472 71.232 188.914 71.088C189.298 70.976 189.733 70.8773 190.218 70.792C190.704 70.7067 191.213 70.6267 191.746 70.552C192.285 70.4773 192.818 70.4027 193.346 70.328L192.738 70.664C192.749 69.9867 192.605 69.4853 192.306 69.16C192.013 68.8293 191.506 68.664 190.786 68.664C190.333 68.664 189.917 68.7707 189.538 68.984C189.16 69.192 188.896 69.5387 188.746 70.024L187.186 69.544C187.4 68.8027 187.805 68.2133 188.402 67.776C189.005 67.3387 189.805 67.12 190.802 67.12C191.576 67.12 192.248 67.2533 192.818 67.52C193.394 67.7813 193.816 68.1973 194.082 68.768C194.221 69.0507 194.306 69.3493 194.338 69.664C194.37 69.9787 194.386 70.3173 194.386 70.68V76H192.906V74.024L193.194 74.28C192.837 74.9413 192.381 75.4347 191.826 75.76C191.277 76.08 190.6 76.24 189.794 76.24ZM190.09 74.872C190.565 74.872 190.973 74.7893 191.314 74.624C191.656 74.4533 191.93 74.2373 192.138 73.976C192.346 73.7147 192.482 73.4427 192.546 73.16C192.637 72.904 192.688 72.616 192.698 72.296C192.714 71.976 192.722 71.72 192.722 71.528L193.266 71.728C192.738 71.808 192.258 71.88 191.826 71.944C191.394 72.008 191.002 72.072 190.65 72.136C190.304 72.1947 189.994 72.2667 189.722 72.352C189.493 72.432 189.288 72.528 189.106 72.64C188.93 72.752 188.789 72.888 188.682 73.048C188.581 73.208 188.53 73.4027 188.53 73.632C188.53 73.856 188.586 74.064 188.698 74.256C188.81 74.4427 188.981 74.592 189.21 74.704C189.44 74.816 189.733 74.872 190.09 74.872ZM202.528 76V71.752C202.528 71.416 202.498 71.072 202.44 70.72C202.386 70.3627 202.28 70.032 202.12 69.728C201.965 69.424 201.744 69.1787 201.456 68.992C201.173 68.8053 200.802 68.712 200.344 68.712C200.045 68.712 199.762 68.7627 199.496 68.864C199.229 68.96 198.994 69.1173 198.792 69.336C198.594 69.5547 198.437 69.8427 198.32 70.2C198.208 70.5573 198.152 70.992 198.152 71.504L197.112 71.112C197.112 70.328 197.258 69.6373 197.552 69.04C197.845 68.4373 198.266 67.968 198.816 67.632C199.365 67.296 200.029 67.128 200.808 67.128C201.405 67.128 201.906 67.224 202.312 67.416C202.717 67.608 203.045 67.8613 203.296 68.176C203.552 68.4853 203.746 68.824 203.88 69.192C204.013 69.56 204.104 69.92 204.152 70.272C204.2 70.624 204.224 70.9333 204.224 71.2V76H202.528ZM196.456 76V67.36H197.952V69.856H198.152V76H196.456ZM214.455 76C213.911 76.1067 213.377 76.152 212.855 76.136C212.332 76.12 211.865 76.0187 211.455 75.832C211.044 75.6453 210.735 75.352 210.527 74.952C210.34 74.5947 210.239 74.232 210.223 73.864C210.212 73.4907 210.207 73.0693 210.207 72.6V64.96H211.887V72.52C211.887 72.8667 211.889 73.168 211.895 73.424C211.905 73.68 211.961 73.896 212.063 74.072C212.255 74.4027 212.559 74.592 212.975 74.64C213.396 74.6827 213.889 74.664 214.455 74.584V76ZM208.551 68.704V67.36H214.455V68.704H208.551ZM216.276 76V67.36H217.764V69.456L217.556 69.184C217.663 68.9067 217.802 68.6533 217.972 68.424C218.143 68.1893 218.34 67.9973 218.564 67.848C218.783 67.688 219.026 67.5653 219.292 67.48C219.564 67.3893 219.842 67.336 220.124 67.32C220.407 67.2987 220.679 67.312 220.94 67.36V68.928C220.658 68.8533 220.343 68.832 219.996 68.864C219.655 68.896 219.34 69.0053 219.052 69.192C218.78 69.368 218.564 69.5813 218.404 69.832C218.25 70.0827 218.138 70.3627 218.068 70.672C217.999 70.976 217.964 71.2987 217.964 71.64V76H216.276ZM230.264 65.928L231.568 65.92C231.637 66.4533 231.61 66.8987 231.488 67.256C231.37 67.6133 231.152 67.8907 230.832 68.088C230.533 68.264 230.197 68.3573 229.824 68.368C229.45 68.3733 229.098 68.3547 228.768 68.312V67.36C228.885 67.36 229 67.36 229.112 67.36C229.224 67.3547 229.336 67.3413 229.448 67.32C229.842 67.2453 230.08 67.072 230.16 66.8C230.24 66.5227 230.274 66.232 230.264 65.928ZM225.448 79.096V77.472H227.216V79.096H225.448ZM225.72 76.232C225.122 76.232 224.621 76.136 224.216 75.944C223.81 75.752 223.48 75.5013 223.224 75.192C222.973 74.8773 222.781 74.536 222.648 74.168C222.514 73.8 222.424 73.44 222.376 73.088C222.328 72.736 222.304 72.4267 222.304 72.16V67.36H224V71.608C224 71.944 224.026 72.2907 224.08 72.648C224.138 73 224.245 73.328 224.4 73.632C224.56 73.936 224.781 74.1813 225.064 74.368C225.352 74.5547 225.725 74.648 226.184 74.648C226.482 74.648 226.765 74.6 227.032 74.504C227.298 74.4027 227.53 74.2427 227.728 74.024C227.93 73.8053 228.088 73.5173 228.2 73.16C228.317 72.8027 228.376 72.368 228.376 71.856L229.416 72.248C229.416 73.032 229.269 73.7253 228.976 74.328C228.682 74.9253 228.261 75.392 227.712 75.728C227.162 76.064 226.498 76.232 225.72 76.232ZM228.576 76V73.504H228.376V67.36H230.064V76H228.576ZM236.004 76.24C235.118 76.24 234.366 76.0427 233.748 75.648C233.129 75.2533 232.654 74.712 232.324 74.024C231.998 73.336 231.833 72.5547 231.828 71.68C231.833 70.7893 232.004 70.0027 232.34 69.32C232.676 68.632 233.156 68.0933 233.78 67.704C234.404 67.3147 235.153 67.12 236.028 67.12C236.972 67.12 237.777 67.3547 238.444 67.824C239.116 68.2933 239.558 68.936 239.772 69.752L238.108 70.232C237.942 69.7467 237.67 69.3707 237.292 69.104C236.918 68.832 236.489 68.696 236.004 68.696C235.454 68.696 235.004 68.8267 234.652 69.088C234.3 69.344 234.038 69.696 233.868 70.144C233.697 70.592 233.609 71.104 233.604 71.68C233.609 72.5707 233.812 73.2907 234.212 73.84C234.617 74.3893 235.214 74.664 236.004 74.664C236.542 74.664 236.977 74.5413 237.308 74.296C237.644 74.0453 237.9 73.688 238.076 73.224L239.772 73.624C239.489 74.4667 239.022 75.1147 238.372 75.568C237.721 76.016 236.932 76.24 236.004 76.24ZM249.548 76C249.004 76.1067 248.471 76.152 247.948 76.136C247.426 76.12 246.959 76.0187 246.548 75.832C246.138 75.6453 245.828 75.352 245.62 74.952C245.434 74.5947 245.332 74.232 245.316 73.864C245.306 73.4907 245.3 73.0693 245.3 72.6V64.96H246.98V72.52C246.98 72.8667 246.983 73.168 246.988 73.424C246.999 73.68 247.055 73.896 247.156 74.072C247.348 74.4027 247.652 74.592 248.068 74.64C248.49 74.6827 248.983 74.664 249.548 74.584V76ZM243.644 68.704V67.36H249.548V68.704H243.644ZM251.53 65.944V64.32H253.202V65.944H251.53ZM251.53 76V67.36H253.202V76H251.53ZM256.636 66.08L258.708 63.68H260.148L262.22 66.08H260.62L259.428 64.664L258.236 66.08H256.636ZM263.196 64.4H261.884L263.028 61.6H264.34L263.196 64.4ZM259.436 76.24C258.578 76.24 257.823 76.0533 257.172 75.68C256.527 75.3013 256.023 74.776 255.66 74.104C255.303 73.4267 255.124 72.6427 255.124 71.752C255.124 70.808 255.3 69.9893 255.652 69.296C256.01 68.6027 256.506 68.0667 257.14 67.688C257.775 67.3093 258.514 67.12 259.356 67.12C260.236 67.12 260.986 67.3253 261.604 67.736C262.223 68.1413 262.684 68.72 262.988 69.472C263.298 70.224 263.42 71.1173 263.356 72.152H261.684V71.544C261.674 70.5413 261.482 69.8 261.108 69.32C260.74 68.84 260.178 68.6 259.42 68.6C258.583 68.6 257.954 68.864 257.532 69.392C257.111 69.92 256.9 70.6827 256.9 71.68C256.9 72.6293 257.111 73.3653 257.532 73.888C257.954 74.4053 258.562 74.664 259.356 74.664C259.879 74.664 260.33 74.5467 260.708 74.312C261.092 74.072 261.391 73.7307 261.604 73.288L263.244 73.808C262.908 74.5813 262.399 75.1813 261.716 75.608C261.034 76.0293 260.274 76.24 259.436 76.24ZM256.356 72.152V70.848H262.524V72.152H256.356ZM268.973 76.24C268.146 76.24 267.453 76.04 266.893 75.64C266.333 75.2347 265.909 74.688 265.621 74C265.333 73.312 265.189 72.536 265.189 71.672C265.189 70.808 265.33 70.032 265.613 69.344C265.901 68.656 266.322 68.1147 266.877 67.72C267.437 67.32 268.125 67.12 268.941 67.12C269.752 67.12 270.45 67.32 271.037 67.72C271.629 68.1147 272.085 68.656 272.405 69.344C272.725 70.0267 272.885 70.8027 272.885 71.672C272.885 72.536 272.725 73.3147 272.405 74.008C272.09 74.696 271.64 75.24 271.053 75.64C270.472 76.04 269.778 76.24 268.973 76.24ZM264.909 79.84V67.36H266.397V73.576H266.589V79.84H264.909ZM268.741 74.728C269.274 74.728 269.714 74.592 270.061 74.32C270.413 74.048 270.674 73.6827 270.845 73.224C271.021 72.76 271.109 72.2427 271.109 71.672C271.109 71.1067 271.021 70.5947 270.845 70.136C270.674 69.6773 270.41 69.312 270.053 69.04C269.696 68.768 269.24 68.632 268.685 68.632C268.162 68.632 267.73 68.76 267.389 69.016C267.053 69.272 266.802 69.6293 266.637 70.088C266.477 70.5467 266.397 71.0747 266.397 71.672C266.397 72.2693 266.477 72.7973 266.637 73.256C266.797 73.7147 267.05 74.0747 267.397 74.336C267.744 74.5973 268.192 74.728 268.741 74.728ZM281.55 76.24C280.665 76.24 279.913 76.0427 279.294 75.648C278.676 75.2533 278.201 74.712 277.87 74.024C277.545 73.336 277.38 72.5547 277.374 71.68C277.38 70.7893 277.55 70.0027 277.886 69.32C278.222 68.632 278.702 68.0933 279.326 67.704C279.95 67.3147 280.7 67.12 281.574 67.12C282.518 67.12 283.324 67.3547 283.99 67.824C284.662 68.2933 285.105 68.936 285.318 69.752L283.654 70.232C283.489 69.7467 283.217 69.3707 282.838 69.104C282.465 68.832 282.036 68.696 281.55 68.696C281.001 68.696 280.55 68.8267 280.198 69.088C279.846 69.344 279.585 69.696 279.414 70.144C279.244 70.592 279.156 71.104 279.15 71.68C279.156 72.5707 279.358 73.2907 279.758 73.84C280.164 74.3893 280.761 74.664 281.55 74.664C282.089 74.664 282.524 74.5413 282.854 74.296C283.19 74.0453 283.446 73.688 283.622 73.224L285.318 73.624C285.036 74.4667 284.569 75.1147 283.918 75.568C283.268 76.016 282.478 76.24 281.55 76.24ZM290.068 66.08L288.932 63.28H290.244L291.38 66.08H290.068ZM290.204 76.232C289.607 76.232 289.105 76.136 288.7 75.944C288.295 75.752 287.964 75.5013 287.708 75.192C287.457 74.8773 287.265 74.536 287.132 74.168C286.999 73.8 286.908 73.44 286.86 73.088C286.812 72.736 286.788 72.4267 286.788 72.16V67.36H288.484V71.608C288.484 71.944 288.511 72.2907 288.564 72.648C288.623 73 288.729 73.328 288.884 73.632C289.044 73.936 289.265 74.1813 289.548 74.368C289.836 74.5547 290.209 74.648 290.668 74.648C290.967 74.648 291.249 74.6 291.516 74.504C291.783 74.4027 292.015 74.2427 292.212 74.024C292.415 73.8053 292.572 73.5173 292.684 73.16C292.801 72.8027 292.86 72.368 292.86 71.856L293.9 72.248C293.9 73.032 293.753 73.7253 293.46 74.328C293.167 74.9253 292.745 75.392 292.196 75.728C291.647 76.064 290.983 76.232 290.204 76.232ZM293.06 76V73.504H292.86V67.36H294.548V76H293.06ZM302.856 76V71.752C302.856 71.416 302.827 71.072 302.768 70.72C302.715 70.3627 302.608 70.032 302.448 69.728C302.293 69.424 302.072 69.1787 301.784 68.992C301.501 68.8053 301.131 68.712 300.672 68.712C300.373 68.712 300.091 68.7627 299.824 68.864C299.557 68.96 299.323 69.1173 299.12 69.336C298.923 69.5547 298.765 69.8427 298.648 70.2C298.536 70.5573 298.48 70.992 298.48 71.504L297.44 71.112C297.44 70.328 297.587 69.6373 297.88 69.04C298.173 68.4373 298.595 67.968 299.144 67.632C299.693 67.296 300.357 67.128 301.136 67.128C301.733 67.128 302.235 67.224 302.64 67.416C303.045 67.608 303.373 67.8613 303.624 68.176C303.88 68.4853 304.075 68.824 304.208 69.192C304.341 69.56 304.432 69.92 304.48 70.272C304.528 70.624 304.552 70.9333 304.552 71.2V76H302.856ZM296.784 76V67.36H298.28V69.856H298.48V76H296.784ZM310.196 80.08C309.732 80.08 309.281 80.008 308.844 79.864C308.412 79.72 308.017 79.5067 307.66 79.224C307.302 78.9467 307.006 78.6027 306.772 78.192L308.316 77.408C308.502 77.776 308.769 78.0453 309.116 78.216C309.462 78.3867 309.828 78.472 310.212 78.472C310.686 78.472 311.092 78.3867 311.428 78.216C311.764 78.0507 312.017 77.8 312.188 77.464C312.364 77.128 312.449 76.712 312.444 76.216V73.8H312.644V67.36H314.124V76.232C314.124 76.4613 314.116 76.68 314.1 76.888C314.084 77.096 314.054 77.304 314.012 77.512C313.889 78.0933 313.654 78.5733 313.308 78.952C312.966 79.3307 312.529 79.6133 311.996 79.8C311.468 79.9867 310.868 80.08 310.196 80.08ZM310.068 76.24C309.262 76.24 308.566 76.04 307.98 75.64C307.398 75.24 306.948 74.696 306.628 74.008C306.313 73.3147 306.156 72.536 306.156 71.672C306.156 70.8027 306.316 70.0267 306.636 69.344C306.956 68.656 307.409 68.1147 307.996 67.72C308.588 67.32 309.289 67.12 310.1 67.12C310.916 67.12 311.601 67.32 312.156 67.72C312.716 68.1147 313.137 68.656 313.42 69.344C313.708 70.032 313.852 70.808 313.852 71.672C313.852 72.536 313.708 73.312 313.42 74C313.132 74.688 312.708 75.2347 312.148 75.64C311.588 76.04 310.894 76.24 310.068 76.24ZM310.3 74.728C310.849 74.728 311.297 74.5973 311.644 74.336C311.99 74.0747 312.244 73.7147 312.404 73.256C312.564 72.7973 312.644 72.2693 312.644 71.672C312.644 71.0747 312.561 70.5467 312.396 70.088C312.236 69.6293 311.985 69.272 311.644 69.016C311.308 68.76 310.878 68.632 310.356 68.632C309.801 68.632 309.345 68.768 308.988 69.04C308.63 69.312 308.364 69.6773 308.188 70.136C308.017 70.5947 307.932 71.1067 307.932 71.672C307.932 72.2427 308.017 72.76 308.188 73.224C308.364 73.6827 308.625 74.048 308.972 74.32C309.324 74.592 309.766 74.728 310.3 74.728ZM323.269 76.24C322.384 76.24 321.632 76.0427 321.013 75.648C320.394 75.2533 319.92 74.712 319.589 74.024C319.264 73.336 319.098 72.5547 319.093 71.68C319.098 70.7893 319.269 70.0027 319.605 69.32C319.941 68.632 320.421 68.0933 321.045 67.704C321.669 67.3147 322.418 67.12 323.293 67.12C324.237 67.12 325.042 67.3547 325.709 67.824C326.381 68.2933 326.824 68.936 327.037 69.752L325.373 70.232C325.208 69.7467 324.936 69.3707 324.557 69.104C324.184 68.832 323.754 68.696 323.269 68.696C322.72 68.696 322.269 68.8267 321.917 69.088C321.565 69.344 321.304 69.696 321.133 70.144C320.962 70.592 320.874 71.104 320.869 71.68C320.874 72.5707 321.077 73.2907 321.477 73.84C321.882 74.3893 322.48 74.664 323.269 74.664C323.808 74.664 324.242 74.5413 324.573 74.296C324.909 74.0453 325.165 73.688 325.341 73.224L327.037 73.624C326.754 74.4667 326.288 75.1147 325.637 75.568C324.986 76.016 324.197 76.24 323.269 76.24ZM334.731 76V71.752C334.731 71.416 334.702 71.072 334.643 70.72C334.59 70.3627 334.483 70.032 334.323 69.728C334.168 69.424 333.947 69.1787 333.659 68.992C333.376 68.8053 333.006 68.712 332.547 68.712C332.248 68.712 331.966 68.7627 331.699 68.864C331.432 68.96 331.198 69.1173 330.995 69.336C330.798 69.5547 330.64 69.8427 330.523 70.2C330.411 70.5573 330.355 70.992 330.355 71.504L329.315 71.112C329.315 70.328 329.462 69.6373 329.755 69.04C330.048 68.4373 330.47 67.968 331.019 67.632C331.568 67.296 332.232 67.128 333.011 67.128C333.608 67.128 334.11 67.224 334.515 67.416C334.92 67.608 335.248 67.8613 335.499 68.176C335.755 68.4853 335.95 68.824 336.083 69.192C336.216 69.56 336.307 69.92 336.355 70.272C336.403 70.624 336.427 70.9333 336.427 71.2V76H334.731ZM328.659 76V64.48H330.155V70.696H330.355V76H328.659ZM341.767 76.232C341.169 76.232 340.668 76.136 340.263 75.944C339.857 75.752 339.527 75.5013 339.271 75.192C339.02 74.8773 338.828 74.536 338.695 74.168C338.561 73.8 338.471 73.44 338.423 73.088C338.375 72.736 338.351 72.4267 338.351 72.16V67.36H340.047V71.608C340.047 71.944 340.073 72.2907 340.127 72.648C340.185 73 340.292 73.328 340.447 73.632C340.607 73.936 340.828 74.1813 341.111 74.368C341.399 74.5547 341.772 74.648 342.231 74.648C342.529 74.648 342.812 74.6 343.079 74.504C343.345 74.4027 343.577 74.2427 343.775 74.024C343.977 73.8053 344.135 73.5173 344.247 73.16C344.364 72.8027 344.423 72.368 344.423 71.856L345.463 72.248C345.463 73.032 345.316 73.7253 345.023 74.328C344.729 74.9253 344.308 75.392 343.759 75.728C343.209 76.064 342.545 76.232 341.767 76.232ZM344.623 76V73.504H344.423V67.36H346.111V76H344.623ZM349.522 79.84L351.194 75.288L351.218 76.632L347.45 67.36H349.194L352.01 74.52H351.498L354.186 67.36H355.882L351.114 79.84H349.522ZM358.072 66.08L360.144 63.68H361.584L363.656 66.08H362.056L360.864 64.664L359.672 66.08H358.072ZM360.968 76.24C360.109 76.24 359.354 76.0533 358.704 75.68C358.058 75.3013 357.554 74.776 357.192 74.104C356.834 73.4267 356.656 72.6427 356.656 71.752C356.656 70.808 356.832 69.9893 357.184 69.296C357.541 68.6027 358.037 68.0667 358.672 67.688C359.306 67.3093 360.045 67.12 360.888 67.12C361.768 67.12 362.517 67.3253 363.136 67.736C363.754 68.1413 364.216 68.72 364.52 69.472C364.829 70.224 364.952 71.1173 364.888 72.152H363.216V71.544C363.205 70.5413 363.013 69.8 362.64 69.32C362.272 68.84 361.709 68.6 360.952 68.6C360.114 68.6 359.485 68.864 359.064 69.392C358.642 69.92 358.432 70.6827 358.432 71.68C358.432 72.6293 358.642 73.3653 359.064 73.888C359.485 74.4053 360.093 74.664 360.888 74.664C361.41 74.664 361.861 74.5467 362.24 74.312C362.624 74.072 362.922 73.7307 363.136 73.288L364.776 73.808C364.44 74.5813 363.93 75.1813 363.248 75.608C362.565 76.0293 361.805 76.24 360.968 76.24ZM357.888 72.152V70.848H364.056V72.152H357.888ZM372.512 76V71.752C372.512 71.416 372.483 71.072 372.424 70.72C372.371 70.3627 372.264 70.032 372.104 69.728C371.949 69.424 371.728 69.1787 371.44 68.992C371.157 68.8053 370.787 68.712 370.328 68.712C370.029 68.712 369.747 68.7627 369.48 68.864C369.213 68.96 368.979 69.1173 368.776 69.336C368.579 69.5547 368.421 69.8427 368.304 70.2C368.192 70.5573 368.136 70.992 368.136 71.504L367.096 71.112C367.096 70.328 367.243 69.6373 367.536 69.04C367.829 68.4373 368.251 67.968 368.8 67.632C369.349 67.296 370.013 67.128 370.792 67.128C371.389 67.128 371.891 67.224 372.296 67.416C372.701 67.608 373.029 67.8613 373.28 68.176C373.536 68.4853 373.731 68.824 373.864 69.192C373.997 69.56 374.088 69.92 374.136 70.272C374.184 70.624 374.208 70.9333 374.208 71.2V76H372.512ZM366.44 76V67.36H367.936V69.856H368.136V76H366.44ZM383.055 80.08C382.591 80.08 382.14 80.008 381.703 79.864C381.271 79.72 380.876 79.5067 380.519 79.224C380.162 78.9467 379.866 78.6027 379.631 78.192L381.175 77.408C381.362 77.776 381.628 78.0453 381.975 78.216C382.322 78.3867 382.687 78.472 383.071 78.472C383.546 78.472 383.951 78.3867 384.287 78.216C384.623 78.0507 384.876 77.8 385.047 77.464C385.223 77.128 385.308 76.712 385.303 76.216V73.8H385.503V67.36H386.983V76.232C386.983 76.4613 386.975 76.68 386.959 76.888C386.943 77.096 386.914 77.304 386.871 77.512C386.748 78.0933 386.514 78.5733 386.167 78.952C385.826 79.3307 385.388 79.6133 384.855 79.8C384.327 79.9867 383.727 80.08 383.055 80.08ZM382.927 76.24C382.122 76.24 381.426 76.04 380.839 75.64C380.258 75.24 379.807 74.696 379.487 74.008C379.172 73.3147 379.015 72.536 379.015 71.672C379.015 70.8027 379.175 70.0267 379.495 69.344C379.815 68.656 380.268 68.1147 380.855 67.72C381.447 67.32 382.148 67.12 382.959 67.12C383.775 67.12 384.46 67.32 385.015 67.72C385.575 68.1147 385.996 68.656 386.279 69.344C386.567 70.032 386.711 70.808 386.711 71.672C386.711 72.536 386.567 73.312 386.279 74C385.991 74.688 385.567 75.2347 385.007 75.64C384.447 76.04 383.754 76.24 382.927 76.24ZM383.159 74.728C383.708 74.728 384.156 74.5973 384.503 74.336C384.85 74.0747 385.103 73.7147 385.263 73.256C385.423 72.7973 385.503 72.2693 385.503 71.672C385.503 71.0747 385.42 70.5467 385.255 70.088C385.095 69.6293 384.844 69.272 384.503 69.016C384.167 68.76 383.738 68.632 383.215 68.632C382.66 68.632 382.204 68.768 381.847 69.04C381.49 69.312 381.223 69.6773 381.047 70.136C380.876 70.5947 380.791 71.1067 380.791 71.672C380.791 72.2427 380.876 72.76 381.047 73.224C381.223 73.6827 381.484 74.048 381.831 74.32C382.183 74.592 382.626 74.728 383.159 74.728ZM389.389 65.944V64.32H391.061V65.944H389.389ZM389.389 76V67.36H391.061V76H389.389ZM395.904 76.24C395.264 76.24 394.728 76.1227 394.296 75.888C393.864 75.648 393.536 75.3333 393.312 74.944C393.093 74.5493 392.984 74.1173 392.984 73.648C392.984 73.2107 393.061 72.8267 393.216 72.496C393.37 72.1653 393.6 71.8853 393.904 71.656C394.208 71.4213 394.581 71.232 395.024 71.088C395.408 70.976 395.842 70.8773 396.328 70.792C396.813 70.7067 397.322 70.6267 397.856 70.552C398.394 70.4773 398.928 70.4027 399.456 70.328L398.848 70.664C398.858 69.9867 398.714 69.4853 398.416 69.16C398.122 68.8293 397.616 68.664 396.896 68.664C396.442 68.664 396.026 68.7707 395.648 68.984C395.269 69.192 395.005 69.5387 394.856 70.024L393.296 69.544C393.509 68.8027 393.914 68.2133 394.512 67.776C395.114 67.3387 395.914 67.12 396.912 67.12C397.685 67.12 398.357 67.2533 398.928 67.52C399.504 67.7813 399.925 68.1973 400.192 68.768C400.33 69.0507 400.416 69.3493 400.448 69.664C400.48 69.9787 400.496 70.3173 400.496 70.68V76H399.016V74.024L399.304 74.28C398.946 74.9413 398.49 75.4347 397.936 75.76C397.386 76.08 396.709 76.24 395.904 76.24ZM396.2 74.872C396.674 74.872 397.082 74.7893 397.424 74.624C397.765 74.4533 398.04 74.2373 398.248 73.976C398.456 73.7147 398.592 73.4427 398.656 73.16C398.746 72.904 398.797 72.616 398.808 72.296C398.824 71.976 398.832 71.72 398.832 71.528L399.376 71.728C398.848 71.808 398.368 71.88 397.936 71.944C397.504 72.008 397.112 72.072 396.76 72.136C396.413 72.1947 396.104 72.2667 395.832 72.352C395.602 72.432 395.397 72.528 395.216 72.64C395.04 72.752 394.898 72.888 394.792 73.048C394.69 73.208 394.64 73.4027 394.64 73.632C394.64 73.856 394.696 74.064 394.808 74.256C394.92 74.4427 395.09 74.592 395.32 74.704C395.549 74.816 395.842 74.872 396.2 74.872Z" fill="black"/>
<circle cx="72.5" cy="75.5" r="2.5" transform="rotate(-180 72.5 75.5)" fill="#1F1F1F"/>
<circle cx="72.5" cy="65.5" r="2.5" transform="rotate(-180 72.5 65.5)" fill="#1F1F1F"/>
<circle cx="78.5" cy="70.5" r="2.5" transform="rotate(-180 78.5 70.5)" fill="#1F1F1F"/>
<path d="M74.5 77L71.5 73.5L71.7479 73.469C74.0406 73.1824 75.9651 71.6048 76.6958 69.4128L77 68.5L80.0001 72.5L79.5999 72.55C77.3865 72.8267 75.5094 74.3084 74.7262 76.3969L74.5 77Z" fill="#1F1F1F"/>
<path d="M76.7212 71.8465L79.5608 68.2151L79.3118 68.1953C77.0085 68.0121 75.015 66.5226 74.1865 64.3657L73.8415 63.4675L71.0244 67.5984L71.4264 67.6304C73.6499 67.8072 75.5919 69.203 76.4682 71.2542L76.7212 71.8465Z" fill="#1F1F1F"/>
</svg>
