<svg width="130" height="35" viewBox="0 0 130 35" fill="none" xmlns="http://www.w3.org/2000/svg">
<g clip-path="url(#clip0_3301_1803)">
<path d="M0.233459 27.3133V6.53662H3.09317L6.91584 17.5377H6.9742L10.7677 6.53662H13.6566V27.3133H10.6801V14.678H10.6218L7.67454 23.6073H6.18632L3.26825 14.678H3.20989V27.3133H0.233459Z" fill="white"/>
<path d="M15.1156 27.3133L19.7553 6.53662H22.2357L26.8754 27.3133H23.899L23.0236 22.8486H18.9675L18.092 27.3133H15.1156ZM22.4691 20.0473L21.0101 12.5187H20.9517L19.4927 20.0473H22.4691Z" fill="white"/>
<path d="M37.9641 12.5186H34.9877V11.8474C34.9877 11.1763 34.8418 10.5635 34.5208 10.0966C34.1998 9.60051 33.6453 9.33789 32.9158 9.33789C32.5073 9.33789 32.1863 9.42543 31.9237 9.57133C31.6611 9.71724 31.4568 9.9215 31.3109 10.1549C31.165 10.4176 31.0483 10.6802 30.9899 11.0012C30.9315 11.3222 30.9024 11.6432 30.9024 12.0225C30.9024 12.431 30.9024 12.7812 30.9607 13.0438C30.9899 13.3065 31.0483 13.5691 31.1942 13.7734C31.3109 13.9776 31.486 14.1819 31.7194 14.3278C31.9529 14.4737 32.2447 14.6488 32.624 14.7947L34.9001 15.6993C35.5713 15.9619 36.0965 16.2537 36.5051 16.5747C36.9136 16.9249 37.2346 17.3042 37.468 17.7419C37.6723 18.2088 37.8182 18.7341 37.9057 19.3469C37.9933 19.9305 38.0225 20.6016 38.0225 21.3895C38.0225 22.2649 37.9349 23.082 37.7598 23.8115C37.5847 24.5702 37.2929 25.2122 36.9136 25.7083C36.5051 26.2627 35.9798 26.6712 35.3086 26.9922C34.6375 27.3132 33.8496 27.4591 32.8866 27.4591C32.1571 27.4591 31.486 27.3424 30.8732 27.0798C30.2604 26.8171 29.706 26.467 29.2682 26.0292C28.8305 25.5915 28.4512 25.0663 28.2177 24.4535C27.9551 23.8699 27.8092 23.2279 27.8092 22.5276V21.4187H30.7856V22.3525C30.7856 22.9069 30.9315 23.3738 31.2817 23.8115C31.6027 24.2492 32.1279 24.4535 32.8866 24.4535C33.3827 24.4535 33.7912 24.3951 34.0539 24.22C34.3457 24.0741 34.5499 23.8699 34.6959 23.6072C34.8418 23.3446 34.9293 23.0236 34.9877 22.6151C35.0168 22.2358 35.0168 21.798 35.0168 21.3603C35.0168 20.8059 34.9877 20.3682 34.9585 20.018C34.9293 19.6679 34.8418 19.376 34.725 19.1718C34.5791 18.9675 34.404 18.7924 34.1998 18.6465C33.9663 18.5006 33.6745 18.3547 33.3244 18.2088L31.1942 17.3334C29.9102 16.8081 29.0348 16.1078 28.5971 15.2324C28.1594 14.357 27.9551 13.2773 27.9551 11.9933C27.9551 11.2055 28.0718 10.4759 28.2761 9.7756C28.4804 9.07526 28.8013 8.46247 29.2391 7.96639C29.6476 7.47032 30.1728 7.06179 30.7856 6.76999C31.4276 6.47818 32.1863 6.33228 33.0617 6.33228C33.7912 6.33228 34.4916 6.47818 35.1044 6.74081C35.7172 7.00343 36.2424 7.38278 36.7093 7.82049C37.6139 8.75427 38.0516 9.83396 38.0516 11.0304V12.5186H37.9641Z" fill="white"/>
<path d="M42.1369 27.3133V9.33797H38.6936V6.53662H48.5567V9.33797H45.1134V27.3133H42.1369Z" fill="white"/>
<path d="M49.8698 27.3133V6.53662H58.7407V9.33797H52.8462V15.4367H57.982V18.2381H52.8462V24.3368H58.7407V27.3133H49.8698V27.3133Z" fill="white"/>
<path d="M60.6667 27.3133V6.53662H65.4523C68.954 6.53662 70.7048 8.57927 70.7048 12.6354C70.7048 13.861 70.5006 14.9115 70.1212 15.7577C69.7419 16.604 69.0707 17.3043 68.1369 17.8295L71.3468 27.3133H68.1953L65.4231 18.4423H63.6431V27.3133H60.6667ZM63.6431 9.33797V15.8161H65.3356C65.8608 15.8161 66.2694 15.7577 66.5904 15.5826C66.9114 15.4076 67.1448 15.2325 67.3199 14.9698C67.4658 14.7072 67.5825 14.357 67.6409 13.9485C67.6992 13.54 67.7284 13.0731 67.7284 12.5478C67.7284 12.0226 67.6992 11.5557 67.6409 11.1472C67.5825 10.7386 67.4658 10.4177 67.2907 10.1258C66.9114 9.57141 66.211 9.30879 65.1897 9.30879H63.6431V9.33797Z" fill="white"/>
<path d="M71.2009 2.67676H0" stroke="white" stroke-width="2" stroke-miterlimit="10"/>
<path d="M71.2009 31.0853H0" stroke="white" stroke-width="2" stroke-miterlimit="10"/>
<path d="M75.2954 1.04673C75.2954 1.04673 77.0462 2.85593 79.1472 0.696558L79.4682 1.30935L80.9856 1.36771L81.3358 1.65952L81.5401 1.10509L81.7443 1.13427L82.1237 1.65952L82.4155 1.33853L83.0575 1.36771L83.4368 1.77624L83.6702 1.5428L86.209 1.60116L86.8218 1.25099L86.8801 1.60116L88.0182 1.74706L88.4851 1.10509C88.4851 1.10509 89.1562 2.06805 90.3526 2.12641C91.549 2.18477 93.9419 2.06805 93.9419 2.06805C93.9419 2.06805 94.6422 2.73921 94.9048 2.06805C95.1383 1.39689 94.9048 1.63034 94.9048 1.63034L95.897 1.60116C95.897 1.60116 96.218 1.77624 96.5389 0.404751L96.8891 1.13427L97.0642 0.346389L98.1439 0.463112C98.1439 0.463112 98.64 0.842462 98.9901 -0.032959C98.9901 -0.032959 101.675 1.10509 102.842 -0.00377873C102.842 -0.00377873 103.571 0.638197 104.826 0.521475C106.052 0.404752 108.065 1.48444 108.095 3.06019C108.095 3.06019 108.561 2.68085 110.429 2.71003C110.4 2.47658 111.45 1.63034 110.429 0.959185C110.429 0.959185 111.275 0.171306 121.167 1.25099C121.167 1.25099 121.693 1.22181 121.284 0.521475C120.876 -0.178862 121.955 0.142125 121.722 0.112944C121.722 0.112944 122.043 2.3015 123.239 0.959185C123.239 0.959185 125.982 2.27231 126.011 1.07591L126.537 1.3969L128.054 1.42608C128.054 1.42608 127.879 2.15559 129.601 2.50576C129.601 2.50576 130.243 5.36547 129.396 5.83236C129.396 5.83236 129.747 7.90419 129.046 9.36322C129.046 9.36322 128.813 9.65503 128.346 9.2465C128.346 9.2465 127.441 10.0636 129.834 9.80093L130.038 32.6202C130.038 32.6202 125.515 30.0232 123.794 31.7448L125.895 31.9199L125.749 32.2117L124.844 32.2409C124.844 32.2409 124.873 33.2622 124.173 32.2993C124.173 32.2993 122.481 33.875 119.329 32.3284C119.329 32.3284 117.812 32.9704 116.586 32.0074C116.586 32.0074 115.74 31.8324 115.565 32.6786C115.565 32.6786 114.222 32.4452 112.355 32.9996L112.501 32.5035H112.238L112.209 33.1163C112.209 33.1163 111.917 33.3498 111.538 33.233L111.771 32.3868C111.771 32.3868 111.217 32.2117 110.983 32.737L111.45 32.6202L111.304 33.233C111.304 33.233 110.225 34.3127 108.882 33.4373L110.254 33.3206C110.254 33.3206 110.487 33.1455 110.458 32.912C110.458 32.912 105.06 32.8537 105.235 33.2622L105.673 33.5832C105.673 33.5832 103.863 34.2544 103.075 33.6999L103.046 33.1747L102.754 33.2039L102.288 33.875C102.288 33.875 101.5 32.5035 99.1068 33.2622L99.2819 33.875C99.2819 33.875 98.4357 33.8166 98.1147 34.196L96.7724 32.0074C96.7724 32.0074 94.7881 32.912 93.8251 31.8615C93.8251 31.8615 93.6501 31.8907 93.5917 32.3868C93.5917 32.3868 92.7746 32.3576 92.3953 31.132C92.3953 31.132 91.7533 31.3071 92.0159 32.3868C92.0159 32.3868 91.3448 31.6573 91.3156 31.2196L90.8195 31.7448L91.1697 32.1825L90.9946 32.3868C90.9946 32.3868 90.2651 31.5989 89.9441 31.774L89.9733 32.2409L89.6523 32.3576L89.2438 31.7156C89.2438 31.7156 88.7769 31.9491 88.7477 32.3284L88.5726 32.095L88.3392 32.2701H88.0182C88.0182 32.2701 87.9014 31.5697 87.7264 31.453L87.5513 31.9199H86.9093V31.5114L86.2965 31.9199C86.2965 31.9199 85.5962 31.8032 85.4503 32.4743L85.0709 32.2993C85.0709 32.2993 85.1293 31.5697 84.8667 31.2487C84.8667 31.2487 84.4873 31.0737 84.3998 31.9783C84.3998 31.9783 83.9329 32.1533 83.787 31.4822H83.466L83.5243 32.3576C83.5243 32.3576 83.3493 31.7156 81.8902 31.8907C81.8902 31.8907 80.2269 32.0074 80.0227 31.4238L79.8768 32.2993C79.8768 32.2993 79.76 31.5114 78.2135 32.2409L77.8633 32.2117L77.8925 31.7448H77.6882L77.5423 32.5327L77.1921 32.4743C77.1921 32.4743 77.5423 31.8615 77.1629 31.7448C77.1629 31.7448 76.6085 31.8907 76.521 32.4452L76.1708 32.2701L76.2 31.4822L74.5659 31.2487C74.5659 31.2487 75.6164 29.352 74.8577 23.0782C74.8577 23.0782 74.8869 20.8896 75.237 20.3352L76.0833 20.306L76.3167 14.3239L75.237 14.1489C75.237 14.1489 74.7409 11.9311 75.0328 6.91205C75.0328 6.91205 75.2078 6.79532 75.7039 7.23303L75.8498 6.99959L75.3537 6.70778L75.3829 6.18253L76.3459 6.70778L74.8577 4.49005C74.8577 4.49005 74.741 5.33629 74.2157 4.51923L74.3324 1.65952L74.9744 1.71788L74.916 1.92215L74.6826 1.98051L74.7993 3.29364L75.0036 3.32282L75.2954 1.04673Z" fill="white"/>
<path d="M81.3558 27.313V6.53638H85.7621C87.4837 6.53638 88.7677 7.00327 89.6431 7.93705C90.5185 8.87083 90.9562 10.184 90.9562 11.9056V21.6228C90.9562 23.5779 90.4893 25.0078 89.5556 25.9415C88.6218 26.8753 87.2503 27.3422 85.4703 27.3422H81.3558V27.313ZM84.3322 9.33772V24.5117H85.7037C86.5499 24.5117 87.1336 24.3074 87.4837 23.8989C87.8339 23.4904 88.009 22.8192 88.009 21.9146V11.9056C88.009 11.0886 87.8339 10.4466 87.5129 10.0089C87.1919 9.57117 86.5791 9.33772 85.7037 9.33772H84.3322V9.33772Z" fill="#1F1F1F"/>
<path d="M93.6117 11.4388C93.6117 10.5925 93.7576 9.86301 94.0494 9.22104C94.3412 8.57906 94.7206 8.05381 95.2166 7.6161C95.6835 7.20757 96.2088 6.88658 96.8216 6.68232C97.4052 6.47805 98.018 6.36133 98.6016 6.36133C99.2144 6.36133 99.798 6.47805 100.411 6.68232C100.994 6.88658 101.549 7.20757 102.016 7.6161C102.483 8.05381 102.862 8.57906 103.154 9.22104C103.446 9.86301 103.591 10.5925 103.591 11.4388V22.4107C103.591 23.2861 103.446 24.0448 103.154 24.6576C102.862 25.2704 102.483 25.7957 102.016 26.2042C101.52 26.6419 100.994 26.9629 100.411 27.1672C99.8272 27.3714 99.2144 27.4881 98.6016 27.4881C97.9888 27.4881 97.4052 27.3714 96.8216 27.1672C96.238 26.9629 95.6835 26.6419 95.2166 26.2042C94.7206 25.7957 94.3412 25.2704 94.0494 24.6576C93.7576 24.0448 93.6117 23.2861 93.6117 22.4107V11.4388ZM96.5881 22.4107C96.5881 23.1402 96.7924 23.6655 97.1717 23.9865C97.5803 24.3366 98.0472 24.5117 98.5724 24.5117C99.1268 24.5117 99.5937 24.3366 100.002 23.9865C100.411 23.6363 100.586 23.111 100.586 22.4107V11.4388C100.586 10.7093 100.382 10.184 100.002 9.83383C99.5937 9.48366 99.1268 9.30858 98.5724 9.30858C98.018 9.30858 97.5511 9.48366 97.1717 9.83383C96.7632 10.184 96.5881 10.7093 96.5881 11.4388V22.4107Z" fill="#1F1F1F"/>
<path d="M107.823 27.313V9.33772H104.379V6.53638H114.242V9.33772H110.799V27.313H107.823Z" fill="#1F1F1F"/>
<path d="M112.608 27.313L117.248 6.53638H119.728L124.368 27.313H121.392L120.516 22.8484H116.46L115.585 27.313H112.608ZM119.962 20.047L118.503 12.5184H118.444L116.985 20.047H119.962Z" fill="#1F1F1F"/>
</g>
<defs>
<clipPath id="clip0_3301_1803">
<rect width="130" height="34.1706" fill="white"/>
</clipPath>
</defs>
</svg>
