<svg width="30" height="30" viewBox="0 0 30 30" fill="none" xmlns="http://www.w3.org/2000/svg">
<path d="M27.8284 22.7865C27.8425 22.7432 27.8521 22.6975 27.8521 22.6493V6.76745C27.8521 6.71902 27.8425 6.67298 27.8281 6.62934C27.8261 6.62336 27.8249 6.61738 27.8225 6.6114C27.8033 6.56028 27.7752 6.51425 27.74 6.47389C27.7376 6.4712 27.7373 6.46791 27.7349 6.46522C27.7334 6.46373 27.7316 6.46313 27.7301 6.46163C27.6924 6.42157 27.6479 6.38929 27.598 6.36507C27.5941 6.36328 27.5911 6.36089 27.5872 6.3591C27.54 6.33787 27.4885 6.32591 27.4344 6.32233C27.4291 6.32203 27.424 6.32083 27.4186 6.32083C27.4135 6.32053 27.409 6.31934 27.4039 6.31934H2.5305C2.52542 6.31934 2.52063 6.32053 2.51555 6.32083C2.51077 6.32113 2.50599 6.32203 2.5012 6.32233C2.4465 6.32591 2.39418 6.33817 2.34635 6.35969C2.34336 6.36089 2.34097 6.36298 2.33798 6.36418C2.28716 6.38839 2.24202 6.42127 2.20405 6.46193C2.20256 6.46343 2.20077 6.46373 2.19927 6.46522C2.19688 6.46761 2.19658 6.4709 2.19419 6.47359C2.15891 6.51395 2.13051 6.56028 2.11138 6.6114C2.10899 6.61738 2.1078 6.62336 2.1057 6.62964C2.09135 6.67328 2.08179 6.71932 2.08179 6.76775V22.6499C2.08179 22.699 2.09165 22.7456 2.1063 22.7898C2.10839 22.7958 2.10959 22.8015 2.11168 22.8075C2.13111 22.8589 2.15981 22.9052 2.19538 22.9456C2.19748 22.948 2.19808 22.951 2.20017 22.9534C2.20196 22.9554 2.20435 22.9566 2.20645 22.9587C2.22109 22.974 2.23724 22.9874 2.25398 23.0006C2.26145 23.0063 2.26803 23.0131 2.2758 23.0185C2.29553 23.0323 2.31676 23.0433 2.33858 23.0535C2.34396 23.0559 2.34874 23.0598 2.35412 23.0619C2.40823 23.0849 2.46772 23.098 2.5302 23.098H27.4033C27.4658 23.098 27.5253 23.0852 27.5794 23.0619C27.5878 23.0583 27.5956 23.0529 27.6036 23.0487C27.6222 23.0394 27.6407 23.0299 27.6577 23.0182C27.6667 23.0119 27.6748 23.0039 27.6835 22.997C27.6987 22.9847 27.7136 22.9725 27.7268 22.9584C27.7292 22.956 27.7319 22.9542 27.7343 22.9519C27.7367 22.9492 27.7373 22.9456 27.7397 22.9429C27.7746 22.9028 27.8027 22.8568 27.8219 22.806C27.8249 22.7994 27.8263 22.7931 27.8284 22.7865ZM2.97891 7.78445L10.5263 14.6783L2.97891 21.6272V7.78445ZM18.448 14.3405C18.4169 14.3609 18.384 14.3779 18.358 14.4066C18.3481 14.4174 18.3448 14.4314 18.3361 14.4428L14.9671 17.5201L3.68621 7.21586H26.2479L18.448 14.3405ZM11.1911 15.2855L14.6645 18.4582C14.7503 18.5365 14.8586 18.5756 14.9671 18.5756C15.0756 18.5756 15.1838 18.5365 15.2693 18.4582L18.6997 15.325L26.2458 22.2012H3.67963L11.1911 15.2855ZM19.3648 14.7175L26.9552 7.78445V21.6344L19.3648 14.7175Z" fill="url(#paint0_linear_73_535)"/>
<defs>
<linearGradient id="paint0_linear_73_535" x1="2.08179" y1="14.7087" x2="27.8521" y2="14.7087" gradientUnits="userSpaceOnUse">
<stop stop-color="#386BB7"/>
<stop offset="1" stop-color="#E24C4A"/>
</linearGradient>
</defs>
</svg>
