<svg width="30" height="30" viewBox="0 0 30 30" fill="none" xmlns="http://www.w3.org/2000/svg">
<path fill-rule="evenodd" clip-rule="evenodd" d="M14.7688 12.5569C14.7688 12.2807 14.9927 12.0569 15.2688 12.0569H27.9245C28.1664 12.0569 28.3735 12.23 28.4165 12.468C28.5806 13.3766 28.6688 14.3225 28.6688 15.3054C28.6688 19.5201 27.1566 23.1044 24.5011 25.5555C24.2982 25.7428 23.9819 25.7302 23.7946 25.5273C23.6073 25.3243 23.6199 25.008 23.8228 24.8207C26.2492 22.581 27.6688 19.2755 27.6688 15.3054C27.6688 14.5304 27.6104 13.7809 27.5007 13.0569H15.7688V17.2609H22.5006C22.6495 17.2609 22.7907 17.3273 22.8857 17.442C22.9807 17.5567 23.0196 17.7078 22.9918 17.8541C22.6486 19.6627 21.6166 21.1948 20.0783 22.2203C19.8485 22.3735 19.5381 22.3114 19.3849 22.0817C19.2317 21.8519 19.2938 21.5415 19.5236 21.3883C20.6704 20.6237 21.4803 19.5407 21.8646 18.2609H15.2688C14.9927 18.2609 14.7688 18.037 14.7688 17.7609V12.5569Z" fill="url(#paint0_linear_73_827)"/>
<path fill-rule="evenodd" clip-rule="evenodd" d="M7.58513 17.0912C7.847 17.0036 8.13033 17.1448 8.21796 17.4067C9.21806 20.3954 12.0069 22.5992 15.2688 22.5992C16.9844 22.5992 18.4127 22.1364 19.5216 21.3896C19.7007 21.269 19.9369 21.2769 20.1074 21.4093L24.4685 24.7931C24.5846 24.8832 24.6552 25.0199 24.6615 25.1667C24.6678 25.3136 24.6091 25.4558 24.5011 25.5555C22.1772 27.7007 19.0109 28.9376 15.2688 28.9376C9.81897 28.9376 5.11862 25.8064 2.82633 21.2598C2.70202 21.0133 2.80113 20.7126 3.0477 20.5883C3.29428 20.464 3.59495 20.5631 3.71926 20.8096C5.8491 25.034 10.213 27.9376 15.2688 27.9376C18.5426 27.9376 21.2984 26.933 23.3763 25.2113L19.7728 22.4154C18.5392 23.1619 17.0207 23.5992 15.2688 23.5992C11.5432 23.5992 8.39516 21.0876 7.26964 17.724C7.18201 17.4622 7.32326 17.1788 7.58513 17.0912Z" fill="url(#paint1_linear_73_827)"/>
<path fill-rule="evenodd" clip-rule="evenodd" d="M3.49881 8.53162C3.74513 8.65645 3.84362 8.95732 3.7188 9.20364C2.83663 10.9445 2.3313 12.9074 2.3313 15.0001C2.3313 16.875 2.73696 18.6459 3.45587 20.2461L6.45045 17.9135L7.16247 17.3685C6.94374 16.6177 6.8163 15.8251 6.8163 15.0001C6.8163 14.0483 6.98586 13.1398 7.26952 12.2888C7.35684 12.0268 7.64 11.8853 7.90197 11.9726C8.16395 12.0599 8.30553 12.3431 8.2182 12.605C7.96436 13.3666 7.8163 14.1683 7.8163 15.0001C7.8163 15.8318 7.96436 16.6335 8.2182 17.3951C8.28569 17.5975 8.21723 17.8205 8.04776 17.9502L7.05992 18.7063L3.58006 21.4169C3.4622 21.5087 3.30947 21.543 3.16369 21.5104C3.0179 21.4778 2.89433 21.3818 2.8268 21.2485C1.8766 19.3735 1.3313 17.2563 1.3313 15.0001C1.3313 12.7439 1.8766 10.6267 2.8268 8.75161C2.95162 8.50529 3.25249 8.4068 3.49881 8.53162Z" fill="url(#paint2_linear_73_827)"/>
<path fill-rule="evenodd" clip-rule="evenodd" d="M2.82602 8.75309C5.11822 4.19395 9.81873 1.06262 15.2687 1.06262C19.0287 1.06262 22.1787 2.44579 24.6006 4.70278C24.6998 4.79527 24.7572 4.92411 24.7596 5.05976C24.762 5.1954 24.7092 5.32619 24.6132 5.42211L20.7652 9.27011C20.5743 9.46106 20.2662 9.46589 20.0694 9.28102C18.7602 8.0515 17.1247 7.41312 15.2688 7.41312C12.0069 7.41312 9.21831 9.61632 8.2182 12.605C8.16677 12.7587 8.04374 12.8786 7.88862 12.9255C7.73351 12.9725 7.56525 12.9414 7.43721 12.842L2.96621 9.37271C2.77742 9.22621 2.71868 8.96659 2.82602 8.75309ZM3.90942 8.83885L7.51673 11.638C8.81053 8.60614 11.7875 6.41312 15.2688 6.41312C17.2046 6.41312 18.9542 7.03197 20.3907 8.2304L23.5328 5.08834C21.3442 3.20221 18.5679 2.06262 15.2687 2.06262C10.359 2.06262 6.10184 4.80075 3.90942 8.83885Z" fill="url(#paint3_linear_73_827)"/>
<defs>
<linearGradient id="paint0_linear_73_827" x1="1.3313" y1="15.0001" x2="28.6688" y2="15.0001" gradientUnits="userSpaceOnUse">
<stop stop-color="#386BB7"/>
<stop offset="1" stop-color="#E24C4A"/>
</linearGradient>
<linearGradient id="paint1_linear_73_827" x1="1.3313" y1="15.0001" x2="28.6688" y2="15.0001" gradientUnits="userSpaceOnUse">
<stop stop-color="#386BB7"/>
<stop offset="1" stop-color="#E24C4A"/>
</linearGradient>
<linearGradient id="paint2_linear_73_827" x1="1.3313" y1="15.0001" x2="28.6688" y2="15.0001" gradientUnits="userSpaceOnUse">
<stop stop-color="#386BB7"/>
<stop offset="1" stop-color="#E24C4A"/>
</linearGradient>
<linearGradient id="paint3_linear_73_827" x1="1.3313" y1="15.0001" x2="28.6688" y2="15.0001" gradientUnits="userSpaceOnUse">
<stop stop-color="#386BB7"/>
<stop offset="1" stop-color="#E24C4A"/>
</linearGradient>
</defs>
</svg>
