<svg width="24" height="24" viewBox="0 0 24 24" fill="none" xmlns="http://www.w3.org/2000/svg">
<path d="M18.72 3.18721H15.84C14.7796 3.18721 13.92 4.04682 13.92 5.10721V7.98721C13.92 9.0476 14.7796 9.9072 15.84 9.9072H18.72C19.7805 9.9072 20.64 9.0476 20.64 7.98721V5.10721C20.64 4.04682 19.7805 3.18721 18.72 3.18721Z" stroke="black" stroke-width="1.5" stroke-linecap="round" stroke-linejoin="round"/>
<path d="M8.15999 3.18721H5.27999C4.2196 3.18721 3.35999 4.04682 3.35999 5.10721V7.98721C3.35999 9.0476 4.2196 9.9072 5.27999 9.9072H8.15999C9.22037 9.9072 10.08 9.0476 10.08 7.98721V5.10721C10.08 4.04682 9.22037 3.18721 8.15999 3.18721Z" stroke="black" stroke-width="1.5" stroke-linecap="round" stroke-linejoin="round"/>
<path d="M18.72 13.7472H15.84C14.7796 13.7472 13.92 14.6068 13.92 15.6672V18.5472C13.92 19.6076 14.7796 20.4672 15.84 20.4672H18.72C19.7805 20.4672 20.64 19.6076 20.64 18.5472V15.6672C20.64 14.6068 19.7805 13.7472 18.72 13.7472Z" stroke="black" stroke-width="1.5" stroke-linecap="round" stroke-linejoin="round"/>
<path d="M8.15999 13.7472H5.27999C4.2196 13.7472 3.35999 14.6068 3.35999 15.6672V18.5472C3.35999 19.6076 4.2196 20.4672 5.27999 20.4672H8.15999C9.22037 20.4672 10.08 19.6076 10.08 18.5472V15.6672C10.08 14.6068 9.22037 13.7472 8.15999 13.7472Z" stroke="black" stroke-width="1.5" stroke-linecap="round" stroke-linejoin="round"/>
</svg>
