<svg width="80" height="140" viewBox="0 0 80 140" fill="none" xmlns="http://www.w3.org/2000/svg">
<path d="M0 20H60C71.0457 20 80 28.9543 80 40V100C80 111.046 71.0457 120 60 120H0V20Z" fill="#F0F2F4"/>
<circle cx="43.5" cy="65.5" r="2.5" fill="#1F1F1F"/>
<circle cx="43.5" cy="75.5" r="2.5" fill="#1F1F1F"/>
<circle cx="37.5" cy="70.5" r="2.5" fill="#1F1F1F"/>
<path d="M41.5 64L44.5 67.5L44.2521 67.531C41.9594 67.8176 40.0349 69.3952 39.3042 71.5872L39 72.5L35.9999 68.5L36.4001 68.45C38.6135 68.1733 40.4906 66.6916 41.2738 64.6031L41.5 64Z" fill="#1F1F1F"/>
<path d="M39.2788 69.1535L36.4392 72.7849L36.6882 72.8047C38.9915 72.9879 40.985 74.4774 41.8135 76.6343L42.1585 77.5325L44.9756 73.4016L44.5736 73.3696C42.3501 73.1928 40.4081 71.797 39.5318 69.7458L39.2788 69.1535Z" fill="#1F1F1F"/>
<path d="M0.0786578 0C1.79829 10.2189 9.78743 18.2429 20 20H0L0.0786578 0Z" fill="#F0F2F4"/>
<path d="M20 120.079C9.78106 121.798 1.75706 129.787 -2.78158e-06 140L-1.90735e-06 120L20 120.079Z" fill="#F0F2F4"/>
</svg>
