<svg width="120" height="42" viewBox="0 0 120 42" fill="none" xmlns="http://www.w3.org/2000/svg">
<g clip-path="url(#clip0_1_16)">
<path d="M8.31933 8.3494H0L4.28571 34.6627L11.0924 25.5542L8.31933 8.3494Z" fill="#090909"/>
<path d="M20.9244 8.3494H12.605L16.8908 34.6627L23.6975 25.5542L20.9244 8.3494Z" fill="#090909"/>
<path d="M75.1261 8.09637H66.5546V34.9156H75.1261V8.09637Z" fill="#090909"/>
<path d="M85.7924 29.1419H96.4437V32.8916H81.7286C81.663 32.5407 81.6086 32.1899 81.5647 31.839C81.5208 31.4772 81.4992 31.0606 81.4992 30.5892C81.4992 29.1967 81.723 28.0072 82.1713 27.0204C82.6301 26.0337 83.2961 25.1511 84.1704 24.3726C85.0553 23.5942 86.1418 22.8267 87.4311 22.0702C88.141 21.6536 88.8514 21.1931 89.5613 20.6888C90.2713 20.1844 90.8612 19.5869 91.3311 18.8962C91.8116 18.1945 92.0521 17.3448 92.0521 16.3471C92.0521 15.4919 91.7844 14.73 91.2494 14.0611C90.725 13.3923 89.878 13.0579 88.7092 13.0579C87.4966 13.0579 86.5245 13.4526 85.7924 14.242C85.0714 15.0314 84.6126 16.0511 84.416 17.301L80.942 15.6564C81.117 14.5162 81.5592 13.4746 82.2696 12.5317C82.9795 11.5778 83.9082 10.8213 85.0553 10.2622C86.2023 9.69203 87.5183 9.40698 89.0042 9.40698C90.359 9.40698 91.5877 9.66465 92.6914 10.1799C93.7946 10.6843 94.674 11.4243 95.3294 12.4001C95.9849 13.3759 96.3126 14.56 96.3126 15.9524C96.3126 17.3777 96.056 18.6112 95.5427 19.6527C95.0289 20.6943 94.2696 21.6426 93.2647 22.4978C92.2704 23.353 91.0472 24.2192 89.5941 25.0963C88.5671 25.7212 87.7205 26.3078 87.0545 26.856C86.399 27.3932 85.978 28.1552 85.7924 29.1419Z" fill="black"/>
<mask id="mask0_1_16" style="mask-type:luminance" maskUnits="userSpaceOnUse" x="79" y="7" width="20" height="28">
<path d="M98.3193 7.59036H79.1597V34.4096H98.3193V7.59036Z" fill="white"/>
<path d="M85.7924 29.1419H96.4437V32.8916H81.7286C81.663 32.5407 81.6086 32.1899 81.5647 31.839C81.5208 31.4772 81.4992 31.0606 81.4992 30.5892C81.4992 29.1967 81.723 28.0072 82.1713 27.0204C82.6301 26.0337 83.2961 25.1511 84.1704 24.3726C85.0553 23.5942 86.1418 22.8267 87.4311 22.0702C88.141 21.6536 88.8514 21.1931 89.5613 20.6888C90.2713 20.1844 90.8612 19.5869 91.3311 18.8962C91.8116 18.1945 92.0521 17.3448 92.0521 16.3471C92.0521 15.4919 91.7844 14.73 91.2494 14.0611C90.725 13.3923 89.878 13.0579 88.7092 13.0579C87.4966 13.0579 86.5245 13.4526 85.7924 14.242C85.0714 15.0314 84.6126 16.0511 84.416 17.301L80.942 15.6564C81.117 14.5162 81.5592 13.4746 82.2696 12.5317C82.9795 11.5778 83.9082 10.8213 85.0553 10.2622C86.2023 9.69203 87.5183 9.40698 89.0042 9.40698C90.359 9.40698 91.5877 9.66465 92.6914 10.1799C93.7946 10.6843 94.674 11.4243 95.3294 12.4001C95.9849 13.3759 96.3126 14.56 96.3126 15.9524C96.3126 17.3777 96.056 18.6112 95.5427 19.6527C95.0289 20.6943 94.2696 21.6426 93.2647 22.4978C92.2704 23.353 91.0472 24.2192 89.5941 25.0963C88.5671 25.7212 87.7205 26.3078 87.0545 26.856C86.399 27.3932 85.978 28.1552 85.7924 29.1419Z" fill="black"/>
</mask>
<g mask="url(#mask0_1_16)">
<path d="M85.7925 29.1419L84.3061 28.8602L83.9672 30.66H85.7925V29.1419ZM96.4437 29.1419H97.9563V27.6239H96.4437V29.1419ZM96.4437 32.8916V34.4096H97.9563V32.8916H96.4437ZM81.7286 32.8916L80.2417 33.1713L80.4731 34.4096H81.7286V32.8916ZM81.5647 31.839L80.0632 32.0217L80.0637 32.0273L81.5647 31.839ZM82.1713 27.0204L80.8004 26.3784L80.7973 26.3848L80.7943 26.3911L82.1713 27.0204ZM84.1704 24.3727L83.1731 23.2311L83.1696 23.2341L83.1661 23.2372L84.1704 24.3727ZM91.3311 18.8962L90.0847 18.0362L90.0817 18.0404L91.3311 18.8962ZM91.2494 14.0611L90.0605 14.9999L90.0651 15.0059L90.0701 15.0119L91.2494 14.0611ZM85.7925 14.242L84.6852 13.2079L84.6812 13.212L84.6777 13.2162L85.7925 14.242ZM84.416 17.301L83.7706 18.674L85.5953 19.5378L85.9099 17.5377L84.416 17.301ZM80.942 15.6564L79.4471 15.4255L79.2751 16.5458L80.2967 17.0294L80.942 15.6564ZM82.2696 12.5317L83.4762 13.447L83.4787 13.4436L83.4812 13.4403L82.2696 12.5317ZM85.0553 10.2622L85.7158 11.6277L85.7214 11.6251L85.7264 11.6226L85.0553 10.2622ZM92.6914 10.1799L92.0531 11.5563L92.0587 11.5589L92.0642 11.5615L92.6914 10.1799ZM93.2647 22.4978L92.2866 21.3399L92.2836 21.3426L92.2805 21.3452L93.2647 22.4978ZM89.5941 25.0963L88.8146 23.7954L88.8096 23.7982L89.5941 25.0963ZM87.0545 26.856L88.0109 28.0318L88.013 28.03L87.0545 26.856ZM85.7925 30.66H96.4437V27.6239H85.7925V30.66ZM94.9311 29.1419V32.8916H97.9563V29.1419H94.9311ZM96.4437 31.3735H81.7286V34.4096H96.4437V31.3735ZM83.2155 32.6118C83.1555 32.291 83.1056 31.9707 83.0657 31.6507L80.0637 32.0273C80.1111 32.4091 80.1706 32.7905 80.2417 33.1713L83.2155 32.6118ZM83.0662 31.6564C83.032 31.3697 83.0118 31.0162 83.0118 30.5892H79.9866C79.9866 31.105 80.0103 31.5847 80.0632 32.0217L83.0662 31.6564ZM83.0118 30.5892C83.0118 29.3545 83.2109 28.3912 83.5478 27.6498L80.7943 26.3911C80.2351 27.6231 79.9866 29.039 79.9866 30.5892H83.0118ZM83.5417 27.6624C83.9067 26.8776 84.4427 26.1596 85.1743 25.5081L83.1661 23.2372C82.1496 24.1426 81.353 25.1897 80.8004 26.3784L83.5417 27.6624ZM85.1672 25.5142C85.9634 24.8137 86.9678 24.1008 88.1945 23.3807L86.6678 20.7597C85.3165 21.5526 84.1467 22.3747 83.1731 23.2311L85.1672 25.5142ZM88.1945 23.3807C88.9447 22.9407 89.6914 22.4562 90.4351 21.9279L88.6876 19.4496C88.0114 19.93 87.3378 20.3665 86.6678 20.7597L88.1945 23.3807ZM90.4351 21.9279C91.2857 21.3239 92.0047 20.5984 92.5805 19.752L90.0817 18.0404C89.7177 18.5754 89.2573 19.045 88.6876 19.4496L90.4351 21.9279ZM92.5775 19.7562C93.2597 18.7603 93.5647 17.5978 93.5647 16.3471H90.5395C90.5395 17.0918 90.3635 17.6287 90.0847 18.0362L92.5775 19.7562ZM93.5647 16.3471C93.5647 15.145 93.1785 14.0479 92.4283 13.1104L90.0701 15.0119C90.3903 15.412 90.5395 15.8389 90.5395 16.3471H93.5647ZM92.4378 13.1224C91.5283 11.9624 90.1553 11.5399 88.7093 11.5399V14.576C89.6007 14.576 89.9214 14.8223 90.0605 14.9999L92.4378 13.1224ZM88.7093 11.5399C87.1362 11.5399 85.7415 12.0687 84.6852 13.2079L86.8997 15.2762C87.3076 14.8366 87.8572 14.576 88.7093 14.576V11.5399ZM84.6777 13.2162C83.7212 14.263 83.1565 15.5742 82.922 17.0642L85.9099 17.5377C86.0688 16.528 86.4217 15.7999 86.9072 15.2679L84.6777 13.2162ZM85.0614 15.928L81.5874 14.2834L80.2967 17.0294L83.7706 18.674L85.0614 15.928ZM82.437 15.8872C82.5726 15.0018 82.9135 14.1944 83.4762 13.447L81.0625 11.6163C80.2054 12.7548 79.6609 14.0304 79.4471 15.4255L82.437 15.8872ZM83.4812 13.4403C84.0358 12.6951 84.7694 12.089 85.7158 11.6277L84.3943 8.89666C83.0466 9.55363 81.9232 10.4606 81.0575 11.6231L83.4812 13.4403ZM85.7264 11.6226C86.6335 11.1716 87.714 10.9251 89.0042 10.9251V7.88892C87.3232 7.88892 85.7708 8.21247 84.3837 8.90177L85.7264 11.6226ZM89.0042 10.9251C90.1634 10.9251 91.1713 11.1444 92.0531 11.5563L93.3293 8.80361C92.0047 8.18484 90.5541 7.88892 89.0042 7.88892V10.9251ZM92.0642 11.5615C92.9224 11.9538 93.5814 12.5134 94.075 13.2487L96.5839 11.5515C95.7666 10.3352 94.6664 9.41473 93.3182 8.79839L92.0642 11.5615ZM94.075 13.2487C94.5333 13.9307 94.8 14.8059 94.8 15.9524H97.8252C97.8252 14.3142 97.4365 12.8211 96.5839 11.5515L94.075 13.2487ZM94.8 15.9524C94.8 17.1962 94.5762 18.1893 94.1869 18.9795L96.898 20.3259C97.5358 19.0329 97.8252 17.5593 97.8252 15.9524H94.8ZM94.1869 18.9795C93.7765 19.8114 93.1558 20.6003 92.2866 21.3399L94.2429 23.6558C95.3839 22.685 96.2814 21.5771 96.898 20.3259L94.1869 18.9795ZM92.2805 21.3452C91.3659 22.132 90.2148 22.9499 88.8146 23.7954L90.3736 26.3972C91.8792 25.4884 93.1755 24.574 94.2489 23.6505L92.2805 21.3452ZM88.8096 23.7982C87.7437 24.447 86.8336 25.0745 86.0955 25.6819L88.013 28.03C88.6074 27.541 89.3909 26.9954 90.3787 26.3943L88.8096 23.7982ZM86.0975 25.6802C85.1173 26.4833 84.5456 27.5893 84.3061 28.8602L87.2788 29.4237C87.4109 28.7211 87.6802 28.3031 88.0109 28.0318L86.0975 25.6802Z" fill="#090909"/>
</g>
<path d="M109.944 33.3849C108.698 33.3849 107.497 33.2315 106.339 32.9245C105.181 32.6174 104.143 32.1351 103.225 31.4772L104.602 27.7276C105.224 28.3306 105.984 28.802 106.88 29.1419C107.775 29.4708 108.654 29.6353 109.518 29.6353C110.992 29.6353 112.074 29.2845 112.762 28.5828C113.462 27.8811 113.811 27.004 113.811 25.9514C113.811 25.0634 113.593 24.3891 113.155 23.9286C112.729 23.4571 112.167 23.1337 111.468 22.9583C110.769 22.7829 110.02 22.6952 109.223 22.6952H107.486V19.4389H109.255C110.599 19.4389 111.593 19.11 112.238 18.4522C112.893 17.7834 113.221 16.9501 113.221 15.9524C113.221 14.867 112.899 14.1324 112.254 13.7487C111.61 13.354 110.697 13.1566 109.518 13.1566C109.092 13.1566 108.578 13.2334 107.977 13.3869C107.387 13.5403 106.797 13.7651 106.208 14.0611C105.618 14.3572 105.126 14.7244 104.733 15.163L103.094 11.6765C103.771 11.0845 104.727 10.5582 105.962 10.0977C107.207 9.63722 108.687 9.40698 110.403 9.40698C112.664 9.40698 114.461 9.92227 115.794 10.9529C117.138 11.9725 117.809 13.4198 117.809 15.2946C117.809 16.1278 117.662 16.9446 117.367 17.745C117.072 18.5454 116.641 19.247 116.072 19.8501C115.504 20.4421 114.816 20.8423 114.008 21.0506C114.936 21.0506 115.728 21.3083 116.384 21.8235C117.05 22.3388 117.558 23.0076 117.908 23.8299C118.257 24.6522 118.432 25.5238 118.432 26.4448C118.432 27.892 118.05 29.1365 117.285 30.178C116.52 31.2086 115.493 32.0035 114.204 32.5626C112.926 33.1108 111.506 33.3849 109.944 33.3849Z" fill="black"/>
<mask id="mask1_1_16" style="mask-type:luminance" maskUnits="userSpaceOnUse" x="100" y="7" width="20" height="28">
<path d="M120 7.59036H100.84V34.9157H120V7.59036Z" fill="white"/>
<path d="M109.944 33.3849C108.698 33.3849 107.497 33.2315 106.339 32.9245C105.181 32.6174 104.143 32.1351 103.225 31.4772L104.602 27.7276C105.224 28.3306 105.984 28.802 106.88 29.1419C107.775 29.4708 108.654 29.6353 109.518 29.6353C110.992 29.6353 112.074 29.2845 112.762 28.5828C113.462 27.8811 113.811 27.004 113.811 25.9514C113.811 25.0634 113.593 24.3891 113.155 23.9286C112.729 23.4571 112.167 23.1337 111.468 22.9583C110.769 22.7829 110.02 22.6952 109.223 22.6952H107.486V19.4389H109.255C110.599 19.4389 111.593 19.11 112.238 18.4522C112.893 17.7834 113.221 16.9501 113.221 15.9524C113.221 14.867 112.899 14.1324 112.254 13.7487C111.61 13.354 110.697 13.1566 109.518 13.1566C109.092 13.1566 108.578 13.2334 107.977 13.3869C107.387 13.5403 106.797 13.7651 106.208 14.0611C105.618 14.3572 105.126 14.7244 104.733 15.163L103.094 11.6765C103.771 11.0845 104.727 10.5582 105.962 10.0977C107.207 9.63722 108.687 9.40698 110.403 9.40698C112.664 9.40698 114.461 9.92227 115.794 10.9529C117.138 11.9725 117.809 13.4198 117.809 15.2946C117.809 16.1278 117.662 16.9446 117.367 17.745C117.072 18.5454 116.641 19.247 116.072 19.8501C115.504 20.4421 114.816 20.8423 114.008 21.0506C114.936 21.0506 115.728 21.3083 116.384 21.8235C117.05 22.3388 117.558 23.0076 117.908 23.8299C118.257 24.6522 118.432 25.5238 118.432 26.4448C118.432 27.892 118.05 29.1365 117.285 30.178C116.52 31.2086 115.493 32.0035 114.204 32.5626C112.926 33.1108 111.506 33.3849 109.944 33.3849Z" fill="black"/>
</mask>
<g mask="url(#mask1_1_16)">
<path d="M103.225 31.4772L101.806 30.9524L101.407 32.0393L102.346 32.7125L103.225 31.4772ZM104.602 27.7276L105.652 26.6351L103.984 25.0197L103.182 27.2028L104.602 27.7276ZM106.88 29.1419L106.345 30.5619L106.352 30.5648L106.36 30.5676L106.88 29.1419ZM112.762 28.5828L111.693 27.5093L111.688 27.5135L111.684 27.5178L112.762 28.5828ZM113.155 23.9286L112.035 24.9485L112.047 24.9622L112.06 24.9756L113.155 23.9286ZM107.486 22.6952H105.973V24.2133H107.486V22.6952ZM107.486 19.4389V17.9208H105.973V19.4389H107.486ZM112.254 13.7487L111.466 15.0446L111.474 15.0495L111.483 15.0543L112.254 13.7487ZM107.977 13.3869L107.604 11.9157L107.598 11.9174L107.977 13.3869ZM104.733 15.163L103.365 15.8107L104.335 17.8756L105.857 16.1786L104.733 15.163ZM103.094 11.6765L102.101 10.5318L101.238 11.2858L101.726 12.3242L103.094 11.6765ZM105.962 10.0977L105.439 8.67325L105.435 8.67477L105.962 10.0977ZM115.794 10.9529L114.87 12.1554L114.876 12.1596L114.881 12.1638L115.794 10.9529ZM116.072 19.8501L117.162 20.903L117.166 20.898L117.171 20.893L116.072 19.8501ZM114.008 21.0506L113.631 19.5802L114.008 22.5687V21.0506ZM116.384 21.8236L115.451 23.0186L115.456 23.0224L115.46 23.0261L116.384 21.8236ZM117.285 30.178L118.498 31.0847L118.501 31.0816L118.503 31.0785L117.285 30.178ZM114.204 32.5626L114.799 33.9586L114.804 33.9561L114.204 32.5626ZM109.944 31.8669C108.823 31.8669 107.752 31.729 106.725 31.4567L105.952 34.3922C107.241 34.7339 108.573 34.903 109.944 34.903V31.8669ZM106.725 31.4567C105.733 31.1937 104.864 30.7865 104.105 30.2419L102.346 32.7125C103.422 33.4836 104.628 34.0412 105.952 34.3922L106.725 31.4567ZM104.645 32.002L106.021 28.2524L103.182 27.2028L101.806 30.9524L104.645 32.002ZM103.551 28.82C104.337 29.5808 105.277 30.1569 106.345 30.5619L107.414 27.7219C106.69 27.4471 106.112 27.0804 105.652 26.6351L103.551 28.82ZM106.36 30.5676C107.405 30.9512 108.46 31.1534 109.518 31.1534V28.1172C108.85 28.1172 108.146 27.9905 107.399 27.7163L106.36 30.5676ZM109.518 31.1534C111.196 31.1534 112.752 30.7574 113.84 29.6477L111.684 27.5178C111.396 27.8116 110.789 28.1172 109.518 28.1172V31.1534ZM113.832 29.6562C114.833 28.6512 115.324 27.3795 115.324 25.9514H112.298C112.298 26.6285 112.09 27.1109 111.693 27.5093L113.832 29.6562ZM115.324 25.9514C115.324 24.8294 115.046 23.7201 114.251 22.8816L112.06 24.9756C112.138 25.0581 112.298 25.2973 112.298 25.9514H115.324ZM114.276 22.9088C113.622 22.1855 112.783 21.7236 111.834 21.4856L111.101 24.431C111.551 24.5439 111.836 24.7288 112.035 24.9485L114.276 22.9088ZM111.834 21.4856C111.004 21.277 110.131 21.1771 109.223 21.1771V24.2133C109.909 24.2133 110.534 24.2888 111.101 24.431L111.834 21.4856ZM109.223 21.1771H107.486V24.2133H109.223V21.1771ZM108.998 22.6952V19.4389H105.973V22.6952H108.998ZM107.486 20.957H109.255V17.9208H107.486V20.957ZM109.255 20.957C110.817 20.957 112.279 20.5757 113.316 19.5165L111.159 17.3876C110.908 17.6441 110.381 17.9208 109.255 17.9208V20.957ZM113.316 19.5165C114.269 18.5445 114.734 17.3204 114.734 15.9524H111.708C111.708 16.5798 111.518 17.0221 111.159 17.3876L113.316 19.5165ZM114.734 15.9524C114.734 14.592 114.316 13.2113 113.026 12.443L111.483 15.0543C111.515 15.0735 111.552 15.101 111.595 15.1991C111.647 15.3185 111.708 15.5503 111.708 15.9524H114.734ZM113.042 12.4528C112.062 11.8528 110.832 11.6386 109.518 11.6386V14.6747C110.563 14.6747 111.157 14.8552 111.466 15.0446L113.042 12.4528ZM109.518 11.6386C108.923 11.6386 108.277 11.7438 107.604 11.9157L108.35 14.858C108.879 14.7229 109.261 14.6747 109.518 14.6747V11.6386ZM107.598 11.9174C106.897 12.0996 106.208 12.3636 105.531 12.7033L106.884 15.419C107.387 15.1666 107.877 14.9811 108.357 14.8564L107.598 11.9174ZM105.531 12.7033C104.792 13.074 104.143 13.5515 103.608 14.1475L105.857 16.1786C106.109 15.8974 106.443 15.6403 106.884 15.419L105.531 12.7033ZM106.101 14.5154L104.462 11.0288L101.726 12.3242L103.365 15.8107L106.101 14.5154ZM104.087 12.8212C104.579 12.3916 105.353 11.9444 106.489 11.5207L105.435 8.67477C104.102 9.17194 102.964 9.77735 102.101 10.5318L104.087 12.8212ZM106.485 11.5222C107.522 11.1388 108.816 10.9251 110.403 10.9251V7.88892C108.559 7.88892 106.893 8.1357 105.439 8.67325L106.485 11.5222ZM110.403 10.9251C112.444 10.9251 113.881 11.3898 114.87 12.1554L116.717 9.75038C115.042 8.4548 112.884 7.88892 110.403 7.88892V10.9251ZM114.881 12.1638C115.802 12.8624 116.297 13.8359 116.297 15.2946H119.322C119.322 13.0036 118.473 11.0827 116.706 9.74198L114.881 12.1638ZM116.297 15.2946C116.297 15.9438 116.183 16.5825 115.948 17.2184L118.785 18.2716C119.141 17.3068 119.322 16.3119 119.322 15.2946H116.297ZM115.948 17.2184C115.722 17.8323 115.397 18.3571 114.973 18.8071L117.171 20.893C117.883 20.137 118.422 19.2584 118.785 18.2716L115.948 17.2184ZM114.983 18.7971C114.613 19.1822 114.173 19.4405 113.631 19.5802L114.384 22.521C115.459 22.2441 116.395 21.702 117.162 20.903L114.983 18.7971ZM114.008 22.5687C114.639 22.5687 115.092 22.7367 115.451 23.0186L117.316 20.6285C116.364 19.8798 115.233 19.5325 114.008 19.5325V22.5687ZM115.46 23.0261C115.909 23.3733 116.262 23.828 116.516 24.4257L119.299 23.2342C118.854 22.1873 118.19 21.3044 117.307 20.621L115.46 23.0261ZM116.516 24.4257C116.783 25.0539 116.919 25.7223 116.919 26.4448H119.945C119.945 25.3254 119.731 24.2505 119.299 23.2342L116.516 24.4257ZM116.919 26.4448C116.919 27.6083 116.618 28.5275 116.067 29.2775L118.503 31.0785C119.481 29.7454 119.945 28.1758 119.945 26.4448H116.919ZM116.072 29.2713C115.48 30.0683 114.674 30.705 113.604 31.1692L114.804 33.9561C116.312 33.3019 117.56 32.349 118.498 31.0847L116.072 29.2713ZM113.61 31.1667C112.541 31.6249 111.327 31.8669 109.944 31.8669V34.903C111.685 34.903 113.311 34.5968 114.799 33.9586L113.61 31.1667Z" fill="#090909"/>
</g>
<path d="M28.3689 32.8916V9.96616H40.2983V13.5513H32.4655V18.9127H38.6924V22.3992H32.4655V29.1748H40.9538V32.8916H28.3689Z" fill="black"/>
<mask id="mask2_1_16" style="mask-type:luminance" maskUnits="userSpaceOnUse" x="26" y="8" width="17" height="27">
<path d="M42.8571 8.09637H26.7227V34.4096H42.8571V8.09637Z" fill="white"/>
<path d="M28.3689 32.8915V9.96613H40.2983V13.5513H32.4655V18.9126H38.6924V22.3991H32.4655V29.1748H40.9538V32.8915H28.3689Z" fill="black"/>
</mask>
<g mask="url(#mask2_1_16)">
<path d="M28.3689 32.8916H26.8563V34.4096H28.3689V32.8916ZM28.3689 9.96613V8.44806H26.8563V9.96613H28.3689ZM40.2983 9.96613H41.8109V8.44806H40.2983V9.96613ZM40.2983 13.5513V15.0694H41.8109V13.5513H40.2983ZM32.4655 13.5513V12.0332H30.9529V13.5513H32.4655ZM32.4655 18.9126H30.9529V20.4307H32.4655V18.9126ZM38.6924 18.9126H40.205V17.3946H38.6924V18.9126ZM38.6924 22.3991V23.9172H40.205V22.3991H38.6924ZM32.4655 22.3991V20.8811H30.9529V22.3991H32.4655ZM32.4655 29.1748H30.9529V30.6929H32.4655V29.1748ZM40.9538 29.1748H42.4664V27.6567H40.9538V29.1748ZM40.9538 32.8916V34.4096H42.4664V32.8916H40.9538ZM29.8815 32.8916V9.96613H26.8563V32.8916H29.8815ZM28.3689 11.4842H40.2983V8.44806H28.3689V11.4842ZM38.7857 9.96613V13.5513H41.8109V9.96613H38.7857ZM40.2983 12.0332H32.4655V15.0694H40.2983V12.0332ZM30.9529 13.5513V18.9126H33.9781V13.5513H30.9529ZM32.4655 20.4307H38.6924V17.3946H32.4655V20.4307ZM37.1798 18.9126V22.3991H40.205V18.9126H37.1798ZM38.6924 20.8811H32.4655V23.9172H38.6924V20.8811ZM30.9529 22.3991V29.1748H33.9781V22.3991H30.9529ZM32.4655 30.6929H40.9538V27.6567H32.4655V30.6929ZM39.4412 29.1748V32.8916H42.4664V29.1748H39.4412ZM40.9538 31.3735H28.3689V34.4096H40.9538V31.3735Z" fill="#090909"/>
</g>
<path d="M47.2172 32.8916V9.96616H53.3133C56.0007 9.96616 57.956 10.5034 59.1797 11.5778C60.4029 12.6414 61.015 14.1434 61.015 16.084C61.015 16.9501 60.8072 17.8327 60.3923 18.7318C59.9768 19.6308 59.2941 20.3051 58.3437 20.7546C59.6435 21.0725 60.605 21.7084 61.2277 22.6623C61.8504 23.6162 62.162 24.8222 62.162 26.2804C62.162 28.2977 61.4738 29.9039 60.0973 31.099C58.7208 32.2941 56.4923 32.8916 53.4116 32.8916H47.2172ZM53.3133 13.2224H51.3469V19.5705H54.0015C54.7442 19.5705 55.3286 19.3951 55.7546 19.0442C56.1918 18.6824 56.4973 18.2439 56.6723 17.7286C56.8578 17.2023 56.9511 16.6979 56.9511 16.2156C56.9511 15.4262 56.7761 14.8177 56.4267 14.3901C56.0879 13.9515 55.6402 13.65 55.083 13.4856C54.5259 13.3101 53.936 13.2224 53.3133 13.2224ZM53.6738 22.6294H51.3469V29.5695H53.8704C54.5259 29.5695 55.1536 29.4818 55.7546 29.3064C56.3662 29.131 56.8634 28.7911 57.246 28.2868C57.6393 27.7824 57.836 27.0369 57.836 26.0501C57.836 25.0524 57.6282 24.3123 57.2133 23.83C56.8089 23.3366 56.2845 23.0131 55.6402 22.8597C55.0064 22.7062 54.3509 22.6294 53.6738 22.6294Z" fill="black"/>
<mask id="mask3_1_16" style="mask-type:luminance" maskUnits="userSpaceOnUse" x="45" y="8" width="20" height="27">
<path d="M64.0336 8.09637H45.3781V34.4096H64.0336V8.09637Z" fill="white"/>
<path d="M47.2172 32.8915V9.96613H53.3133C56.0007 9.96613 57.956 10.5034 59.1797 11.5778C60.4029 12.6413 61.015 14.1434 61.015 16.084C61.015 16.9501 60.8072 17.8327 60.3923 18.7317C59.9768 19.6308 59.2941 20.3051 58.3437 20.7546C59.6435 21.0725 60.605 21.7084 61.2277 22.6623C61.8504 23.6161 62.162 24.8221 62.162 26.2803C62.162 28.2977 61.4738 29.9039 60.0973 31.099C58.7208 32.294 56.4923 32.8915 53.4116 32.8915H47.2172ZM53.3133 13.2224H51.3469V19.5705H54.0015C54.7442 19.5705 55.3286 19.395 55.7546 19.0442C56.1918 18.6824 56.4973 18.2438 56.6723 17.7285C56.8578 17.2023 56.9511 16.6979 56.9511 16.2155C56.9511 15.4261 56.7761 14.8176 56.4267 14.39C56.0879 13.9515 55.6402 13.65 55.083 13.4855C54.5259 13.3101 53.936 13.2224 53.3133 13.2224ZM53.6738 22.6294H51.3469V29.5695H53.8704C54.5259 29.5695 55.1536 29.4818 55.7546 29.3064C56.3662 29.1309 56.8634 28.7911 57.246 28.2867C57.6393 27.7824 57.836 27.0368 57.836 26.0501C57.836 25.0524 57.6282 24.3123 57.2133 23.8299C56.8089 23.3365 56.2845 23.0131 55.6402 22.8596C55.0064 22.7061 54.3509 22.6294 53.6738 22.6294Z" fill="black"/>
</mask>
<g mask="url(#mask3_1_16)">
<path d="M47.2172 32.8916H45.7046V34.4096H47.2172V32.8916ZM47.2172 9.96613V8.44806H45.7046V9.96613H47.2172ZM59.1797 11.5778L58.1834 12.7203L58.1864 12.7228L58.1889 12.7253L59.1797 11.5778ZM58.3437 20.7546L57.6988 19.3814L53.8276 21.2125L57.9857 22.2295L58.3437 20.7546ZM51.3469 13.2224V11.7043H49.834V13.2224H51.3469ZM51.3469 19.5705H49.834V21.0885H51.3469V19.5705ZM55.7546 19.0442L56.7141 20.2178L56.7171 20.2152L55.7546 19.0442ZM56.6723 17.7285L55.2464 17.2218L55.2434 17.2305L55.2403 17.2393L56.6723 17.7285ZM56.4267 14.39L55.2308 15.32L55.2439 15.3367L55.257 15.353L56.4267 14.39ZM55.083 13.4855L54.6297 14.934L54.6429 14.9381L54.656 14.9419L55.083 13.4855ZM51.3469 22.6294V21.1113H49.834V22.6294H51.3469ZM51.3469 29.5695H49.834V31.0876H51.3469V29.5695ZM55.7546 29.3064L55.3392 27.8467L55.3356 27.8477L55.3321 27.8487L55.7546 29.3064ZM57.246 28.2867L56.0546 27.3511L56.0481 27.3593L56.042 27.3675L57.246 28.2867ZM57.2133 23.8299L56.0445 24.7941L56.0561 24.8083L56.0682 24.8222L57.2133 23.8299ZM55.6402 22.8596L55.2852 24.3353L55.2908 24.3367L55.6402 22.8596ZM48.7298 32.8916V9.96613H45.7046V32.8916H48.7298ZM47.2172 11.4842H53.3133V8.44806H47.2172V11.4842ZM53.3133 11.4842C55.857 11.4842 57.3666 12.003 58.1834 12.7203L60.1755 10.4354C58.5454 9.00372 56.1439 8.44806 53.3133 8.44806V11.4842ZM58.1889 12.7253C59.0163 13.4441 59.5024 14.4897 59.5024 16.084H62.5276C62.5276 13.797 61.7899 11.8385 60.1699 10.4303L58.1889 12.7253ZM59.5024 16.084C59.5024 16.7 59.3556 17.3657 59.0198 18.0934L61.7642 19.37C62.2588 18.2997 62.5276 17.2002 62.5276 16.084H59.5024ZM59.0198 18.0934C58.7637 18.6477 58.3508 19.0731 57.6988 19.3814L58.9886 22.1278C60.2375 21.537 61.1899 20.6138 61.7642 19.37L59.0198 18.0934ZM57.9857 22.2295C58.9835 22.4735 59.5866 22.9185 59.9627 23.4942L62.4928 21.8303C61.6235 20.4983 60.304 19.6715 58.7017 19.2797L57.9857 22.2295ZM59.9627 23.4942C60.3842 24.1403 60.6494 25.036 60.6494 26.2803H63.6746C63.6746 24.6083 63.3166 23.0919 62.4928 21.8303L59.9627 23.4942ZM60.6494 26.2803C60.6494 27.9087 60.1145 29.0764 59.1076 29.9509L61.0866 32.247C62.8326 30.7314 63.6746 28.6867 63.6746 26.2803H60.6494ZM59.1076 29.9509C58.141 30.7898 56.3602 31.3735 53.4116 31.3735V34.4096C56.6239 34.4096 59.3002 33.7982 61.0866 32.247L59.1076 29.9509ZM53.4116 31.3735H47.2172V34.4096H53.4116V31.3735ZM53.3133 11.7043H51.3469V14.7405H53.3133V11.7043ZM49.834 13.2224V19.5705H52.8595V13.2224H49.834ZM51.3469 21.0885H54.0015V18.0524H51.3469V21.0885ZM54.0015 21.0885C54.9721 21.0885 55.9361 20.8582 56.7141 20.2178L54.7951 17.8706C54.721 17.9319 54.5158 18.0524 54.0015 18.0524V21.0885ZM56.7171 20.2152C57.3605 19.6826 57.835 19.0118 58.1042 18.2178L55.2403 17.2393C55.1602 17.4759 55.0225 17.6822 54.7921 17.8732L56.7171 20.2152ZM58.0981 18.2353C58.3326 17.5715 58.4637 16.8954 58.4637 16.2155H55.4385C55.4385 16.5005 55.3835 16.8331 55.2464 17.2218L58.0981 18.2353ZM58.4637 16.2155C58.4637 15.2219 58.2454 14.2214 57.596 13.4271L55.257 15.353C55.3069 15.4138 55.4385 15.6303 55.4385 16.2155H58.4637ZM57.6222 13.4601C57.0787 12.7561 56.3551 12.2788 55.5096 12.0291L54.656 14.9419C54.9247 15.0212 55.0971 15.1469 55.2308 15.32L57.6222 13.4601ZM55.5358 12.0371C54.8224 11.8125 54.0792 11.7043 53.3133 11.7043V14.7405C53.7923 14.7405 54.2289 14.8077 54.6297 14.934L55.5358 12.0371ZM53.6738 21.1113H51.3469V24.1475H53.6738V21.1113ZM49.834 22.6294V29.5695H52.8595V22.6294H49.834ZM51.3469 31.0876H53.8704V28.0514H51.3469V31.0876ZM53.8704 31.0876C54.662 31.0876 55.4324 30.9814 56.1771 30.764L55.3321 27.8487C54.8748 27.9822 54.3892 28.0514 53.8704 28.0514V31.0876ZM56.1701 30.766C57.0933 30.5013 57.8677 29.9733 58.4496 29.206L56.042 27.3675C55.859 27.6089 55.6397 27.7606 55.3392 27.8467L56.1701 30.766ZM58.437 29.2223C59.1247 28.3406 59.3486 27.2026 59.3486 26.0501H56.3234C56.3234 26.8711 56.1534 27.2241 56.0546 27.3511L58.437 29.2223ZM59.3486 26.0501C59.3486 24.8839 59.1126 23.7147 58.3578 22.8377L56.0682 24.8222C56.1439 24.91 56.3234 25.2209 56.3234 26.0501H59.3486ZM58.3815 22.8658C57.7583 22.1052 56.941 21.6093 55.9891 21.3826L55.2908 24.3367C55.6276 24.417 55.8595 24.5679 56.0445 24.7941L58.3815 22.8658ZM55.9946 21.384C55.2403 21.2012 54.4659 21.1113 53.6738 21.1113V24.1475C54.236 24.1475 54.7719 24.2111 55.2852 24.3353L55.9946 21.384Z" fill="#090909"/>
</g>
</g>
<defs>
<clipPath id="clip0_1_16">
<rect width="120" height="42" fill="white"/>
</clipPath>
</defs>
</svg>
