<svg width="26" height="23" viewBox="0 0 26 23" fill="none" xmlns="http://www.w3.org/2000/svg">
<path d="M20.6354 16.0834L19.864 21.4447C19.3626 21.7533 18.4369 22.0618 16.6241 22.0618C13.1912 22.0618 11.3013 19.5547 11.3013 15.8134V5.01352H4.97564V21.6761H0V0.115013H16.1998V15.1577C16.1998 16.5848 16.894 17.0862 18.0897 17.0862C18.9769 17.0862 19.9026 16.7005 20.6354 16.0834Z" fill="#1F1F1F"/>
<path d="M18.5782 0.491081L19.2339 0.491081C20.8732 0.491081 21.5578 1.08893 22.0882 1.83142C22.85 2.85355 22.7439 3.39354 23.5732 3.39354C24.0553 3.39354 24.2964 3.13319 24.2964 2.61248C24.2964 2.11106 24.1421 1.74463 23.4864 1.33L24.5857 0.500724C25.3089 1.03107 25.5981 1.70606 25.5981 2.67034C25.5981 3.78889 25.0292 4.63745 23.6021 4.63745C21.365 4.63745 21.4903 2.01463 19.8029 1.86035L19.8029 4.63745L18.5782 4.63745L18.5782 0.491081Z" fill="#1F1F1F"/>
<path fill-rule="evenodd" clip-rule="evenodd" d="M18.1765 0.0893014L19.234 0.0893014C20.103 0.0893015 20.7544 0.248047 21.27 0.530427C21.7845 0.812193 22.1297 1.19876 22.4128 1.59458C22.6154 1.86666 22.76 2.10634 22.8746 2.30863C22.9158 2.38137 22.9509 2.44485 22.9822 2.50154C23.0436 2.61277 23.0905 2.69786 23.1414 2.77541C23.2105 2.88079 23.256 2.92086 23.2952 2.94288C23.3343 2.9648 23.4084 2.99176 23.5732 2.99176C23.7441 2.99176 23.8007 2.94707 23.8208 2.9253C23.8464 2.8977 23.8947 2.81825 23.8947 2.61248C23.8947 2.40524 23.8632 2.26586 23.7905 2.14152C23.7143 2.01117 23.5693 1.85778 23.2717 1.66958L22.7807 1.3591L24.5823 -6.19678e-08L24.8233 0.176727C25.2326 0.476874 25.5336 0.829728 25.7285 1.25562C25.9219 1.67811 26 2.14884 26 2.67034C26 3.29238 25.8419 3.89437 25.4324 4.34392C25.0166 4.8003 24.3971 5.03923 23.6022 5.03923C22.9547 5.03923 22.4583 4.84633 22.0601 4.546C21.6741 4.25487 21.3962 3.87373 21.1643 3.53276C21.1205 3.46847 21.0787 3.40614 21.0382 3.34577C20.852 3.06831 20.6938 2.83251 20.506 2.63963C20.4101 2.54109 20.3117 2.45986 20.2047 2.39785L20.2047 5.03923L18.1765 5.03923L18.1765 0.0893014ZM19.8029 1.86035C19.9497 1.87376 20.0827 1.90584 20.2047 1.95322C20.7242 2.1549 21.0451 2.63395 21.3791 3.13243C21.8692 3.86401 22.3873 4.63745 23.6022 4.63745C25.0293 4.63745 25.5982 3.78889 25.5982 2.67034C25.5982 1.70606 25.3089 1.03107 24.5857 0.500724L23.4865 1.33C23.6191 1.4139 23.7313 1.49583 23.8258 1.5773C24.1983 1.89845 24.2965 2.21252 24.2965 2.61248C24.2965 3.13319 24.0554 3.39354 23.5732 3.39354C23.0158 3.39354 22.881 3.14953 22.6211 2.67907C22.4944 2.44968 22.338 2.16645 22.0883 1.83142C21.5579 1.08893 20.8733 0.491082 19.234 0.491081L18.5783 0.491081L18.5783 4.63745L19.8029 4.63745L19.8029 1.86035Z" fill="#1F1F1F"/>
</svg>
