<svg width="50" height="50" viewBox="0 0 50 50" fill="none" xmlns="http://www.w3.org/2000/svg">
<path d="M39.2611 1.73266C37.6163 0.954219 35.8209 0.740775 34.1887 0H28.2248C27.9611 0.577554 27.3585 0.464554 26.9065 0.577554C25.1989 1.00444 23.6169 1.69499 22.0726 2.52366C21.4699 2.8501 21.1309 3.28954 21.0807 3.95499C21.2439 4.92176 21.8968 5.07243 22.7129 4.84643C23.3156 4.68321 23.8555 4.35676 24.4205 4.08054C27.5594 2.52366 30.8112 1.98377 34.2891 2.66177C41.3202 4.00521 46.468 9.4543 47.485 16.7616C48.3889 23.2779 44.6097 30.0579 38.4199 33.0461C32.0542 36.1097 24.546 34.7788 19.7373 29.5933C16.3849 25.9648 14.8281 21.6834 15.4307 16.6737C15.6944 14.4514 16.4352 12.43 17.4522 10.4713C17.9167 9.59241 18.2055 8.6633 16.8872 8.17364C15.9957 8.14853 15.6442 8.78886 15.2926 9.4543C12.317 15.0164 12.0658 20.6789 14.7151 26.4168C15.1294 27.3082 15.1043 27.823 14.3886 28.5638C9.59241 33.4604 4.45721 38.0181 0 43.2412V46.3801C0.113 46.4805 0.288777 46.5558 0.326443 46.6814C1.50666 50.1467 6.2652 51.0758 9.16553 47.9244C13.0703 43.7057 17.2764 39.7759 21.3067 35.6828C22.0224 34.9545 22.4869 34.7537 23.5165 35.2559C32.7071 39.6754 43.869 35.6702 48.2132 26.4796C52.6202 17.1759 48.5898 6.10198 39.2611 1.73266ZM15.6065 38.5956C12.7438 41.4206 9.91886 44.2707 7.06875 47.1083C6.52887 47.6356 5.86342 47.9244 5.09754 47.937C3.89221 47.937 2.97566 47.4096 2.3981 46.3675C1.77033 45.2501 1.79544 44.0573 2.66177 43.1659C5.5872 40.1149 8.60053 37.1518 11.5762 34.1384C12.0031 33.7116 12.2542 33.8999 12.5932 34.2389C13.6102 35.281 14.6272 36.3231 15.6944 37.3275C16.2468 37.8423 16.0334 38.1688 15.6065 38.5956ZM18.783 35.4442C18.0172 36.3357 17.4019 36.5365 16.6361 35.4819C16.3347 35.0675 15.9204 34.7286 15.5437 34.3644C13.2586 32.0793 13.2963 31.778 15.8953 29.8068C16.2092 29.5682 16.4352 29.3422 16.7616 29.8068C17.7158 31.1251 18.8709 32.2426 20.1767 33.2344C20.2897 33.3223 20.3525 33.473 20.6538 33.8622C20.0386 34.377 19.3104 34.829 18.783 35.4442Z" fill="white"/>
<path d="M19.7498 5.32377C20.0511 5.82599 20.2269 6.32821 19.7247 6.83043C19.2224 7.33265 18.7202 7.09409 18.2055 6.83043C18.0171 5.26099 18.2055 5.08521 19.7372 5.32377H19.7498Z" fill="white"/>
<path d="M31.3637 4.53225C23.529 4.74569 17.4898 11.0988 17.741 18.8832C17.9921 26.4667 24.4205 32.4683 32.0668 32.2423C39.6252 32.0288 45.6393 25.613 45.451 17.9541C45.2626 10.471 38.8217 4.3188 31.3637 4.53225ZM38.5454 27.9985C36.4236 29.5052 34.0757 30.1957 31.5771 30.2711C29.0032 30.1832 26.7181 29.4424 24.6339 27.9985C23.8555 27.4586 23.7927 26.9564 24.1568 26.178C25.1236 24.0686 27.3961 22.7503 29.744 22.8759C30.4346 22.9135 30.648 23.1521 30.6229 23.805C30.5852 24.6838 30.6104 25.5753 30.6229 26.4667C30.6229 27.0568 30.8991 27.5214 31.5144 27.5465C32.1923 27.5967 32.5565 27.1573 32.5816 26.4793C32.5816 25.8515 32.5816 25.2237 32.5816 24.6085C32.5816 22.7503 32.6695 22.6624 34.5151 22.9261C36.5617 23.2274 38.0809 24.257 38.9974 26.1654C39.3741 26.969 39.2988 27.4586 38.5329 27.9985H38.5454ZM31.5144 14.6394C30.761 15.2923 29.4301 15.9578 28.7647 14.991C28.1746 14.1247 28.8777 12.9068 29.7942 12.1409C30.6857 11.4001 31.7278 11.3248 32.7322 11.7391C33.7995 12.1911 34.4021 13.0449 34.49 14.652C33.2345 13.5471 32.4435 13.8233 31.5144 14.6394ZM34.5026 17.9541C34.4523 19.5612 33.3726 20.7665 31.8534 20.9297C30.4346 21.0804 29.1414 20.1011 28.7521 18.6446C28.5136 17.7658 28.5889 17.2133 29.7064 17.2761C30.6731 17.3389 31.5395 16.9873 32.3681 16.5353C33.5986 15.8699 34.5528 16.5102 34.5026 17.9541ZM40.931 25.4748C39.914 23.4283 38.4199 21.9091 36.185 21.2813C35.6074 21.1181 35.6577 20.867 35.8837 20.3773C36.9258 18.0294 36.6119 15.5434 36.2854 13.1328C35.9967 10.9732 33.6865 9.4289 31.4265 9.50423C29.066 9.57956 26.8939 11.375 26.7433 13.748C26.6051 15.9954 26.1783 18.3433 27.3585 20.5029C27.6096 20.9549 27.5468 21.1432 27.0697 21.2687C24.7972 21.8589 23.3282 23.4157 22.1856 25.5502C18.3311 20.3145 19.1346 13.4216 23.9434 9.34101C28.7145 5.28558 35.7204 5.63713 40.1149 10.1446C44.208 14.3507 44.6097 21.2813 40.931 25.4748Z" fill="white"/>
</svg>
