<svg width="94" height="60" viewBox="0 0 94 60" fill="none" xmlns="http://www.w3.org/2000/svg">
<rect x="17" width="60" height="60" rx="30" fill="white"/>
<path d="M-3.43826e-09 37.9213V37.9213C10.2189 36.2017 18.2429 28.2126 20 18V18L29 38L-3.43826e-09 37.9213Z" fill="white"/>
<path d="M74.0787 17V17C75.7983 27.2189 83.7874 35.2429 94 37V37H63L74.0787 17Z" fill="white"/>
<rect x="27" y="10" width="40" height="40" rx="20" fill="#1F1F1F"/>
<ellipse cx="1.83334" cy="1.83336" rx="1.83334" ry="1.83336" transform="matrix(-1 0 0 1 46.6001 24)" fill="#EBEDF0"/>
<ellipse cx="1.83334" cy="1.83336" rx="1.83334" ry="1.83336" transform="matrix(-1 0 0 1 46.6001 31.3334)" fill="#EBEDF0"/>
<ellipse cx="1.83334" cy="1.83336" rx="1.83334" ry="1.83336" transform="matrix(-1 0 0 1 51 27.6669)" fill="#EBEDF0"/>
<path d="M46.2332 24.7331L44.0333 27.2998V27.2998C45.8257 27.5238 47.3302 28.7572 47.9014 30.4709L48.0666 30.9665L50.2667 28.0331V28.0331C48.4631 27.8077 46.9334 26.6003 46.2952 24.8984L46.2332 24.7331Z" fill="#EBEDF0"/>
<path d="M47.8621 28.5128L49.9445 31.1759V31.1759C48.1438 31.3191 46.5853 32.4836 45.9376 34.1698L45.7503 34.6575L43.6844 31.6282V31.6282C45.4963 31.484 47.0787 30.3467 47.7928 28.6752L47.8621 28.5128Z" fill="#EBEDF0"/>
</svg>
