<svg width="22" height="17" viewBox="0 0 22 17" fill="none" xmlns="http://www.w3.org/2000/svg">
<g clip-path="url(#clip0_137_66)">
<path d="M21 16.3H11C10.4 16.3 10 15.9 10 15.3C10 14.7 10.4 14.3 11 14.3H21C21.6 14.3 22 14.7 22 15.3C22 15.9 21.6 16.3 21 16.3ZM21 9.1H1C0.4 9.1 0 8.7 0 8.1C0 7.5 0.4 7.1 1 7.1H21C21.6 7.1 22 7.5 22 8.1C22 8.7 21.6 9.1 21 9.1ZM21 2H1C0.4 2 0 1.6 0 1C0 0.4 0.4 0 1 0H21C21.6 0 22 0.4 22 1C22 1.6 21.6 2 21 2Z" fill="black"/>
</g>
<defs>
<clipPath id="clip0_137_66">
<rect width="22" height="16.3" fill="white"/>
</clipPath>
</defs>
</svg>
