<svg width="9" height="11" viewBox="0 0 9 11" fill="none" xmlns="http://www.w3.org/2000/svg">
<ellipse cx="1.83334" cy="1.83336" rx="1.83334" ry="1.83336" transform="matrix(-1 0 0 1 4.6001 0)" fill="#1F1F1F"/>
<ellipse cx="1.83334" cy="1.83336" rx="1.83334" ry="1.83336" transform="matrix(-1 0 0 1 4.6001 7.3335)" fill="#1F1F1F"/>
<ellipse cx="1.83334" cy="1.83336" rx="1.83334" ry="1.83336" transform="matrix(-1 0 0 1 9 3.66699)" fill="#1F1F1F"/>
<path d="M4.23324 0.732964L2.03326 3.29967V3.29967C3.82568 3.52372 5.33018 4.75712 5.90142 6.4708L6.06662 6.96639L8.26666 4.03302V4.03302C6.46309 3.80757 4.93345 2.60019 4.29524 0.898299L4.23324 0.732964Z" fill="#1F1F1F"/>
<path d="M5.86213 4.51296L7.94446 7.176V7.176C6.14378 7.31922 4.58533 8.48371 3.93761 10.17L3.75029 10.6576L1.68439 7.62828V7.62828C3.49627 7.48417 5.07866 6.34681 5.79275 4.67534L5.86213 4.51296Z" fill="#1F1F1F"/>
</svg>
