<svg width="110" height="41" viewBox="0 0 110 41" fill="none" xmlns="http://www.w3.org/2000/svg">
<g opacity="0.7" clip-path="url(#clip0_64_89)">
<path d="M92.8043 1.7867V16.5504C92.8043 17.5378 91.9822 18.3372 90.9666 18.3372C89.951 18.3372 89.1289 17.5378 89.1289 16.5504V1.7867C89.1289 0.799312 89.951 0 90.9666 0C91.9822 0 92.8043 0.799312 92.8043 1.7867Z" fill="#484848"/>
<path d="M86.3241 1.78706C86.3241 2.77444 85.5019 3.57376 84.4864 3.57376H81.2462V16.5038C81.2462 17.4912 80.424 18.2905 79.4085 18.2905C78.3929 18.2905 77.5708 17.4912 77.5708 16.5038V3.62078H74.3306C73.315 3.62078 72.4929 2.82146 72.4929 1.83408C72.4929 0.846696 73.315 0.0473836 74.3306 0.0473836H84.5831C85.4536 0.000365239 86.3241 0.799677 86.3241 1.78706Z" fill="#484848"/>
<path d="M109.537 6.77064V16.5504C109.537 17.5378 108.715 18.3372 107.7 18.3372C106.684 18.3372 105.862 17.5378 105.862 16.5504V6.86468C105.862 6.81766 105.862 6.81766 105.862 6.77064C105.862 6.72363 105.862 6.72363 105.862 6.6766C105.813 4.98394 104.363 3.5734 102.622 3.5734C100.832 3.5734 99.4298 4.93693 99.3815 6.6766C99.3815 6.72363 99.3815 6.72363 99.3815 6.77064C99.3815 6.81766 99.3815 6.81766 99.3815 6.86468V16.5504C99.3815 17.5378 98.5593 18.3372 97.5438 18.3372C96.5281 18.3372 95.7061 17.5378 95.7061 16.5504V6.77064C95.7061 4.18464 97.2052 1.92775 99.4298 0.799312C100.397 0.28211 101.509 0 102.67 0C103.831 0 104.943 0.28211 105.91 0.799312C108.038 1.92775 109.537 4.18464 109.537 6.77064Z" fill="#484848"/>
<path d="M64.0299 1.78706C64.0299 2.77444 63.2078 3.57376 62.1922 3.57376H58.952V16.5038C58.952 17.4912 58.1298 18.2905 57.1143 18.2905C56.0987 18.2905 55.2766 17.4912 55.2766 16.5038V3.62078H52.0364C51.0208 3.62078 50.1987 2.82146 50.1987 1.83408C50.1987 0.846696 51.0208 0.0473836 52.0364 0.0473836H62.2889C63.2078 0.000365239 64.0299 0.799677 64.0299 1.78706Z" fill="#484848"/>
<path d="M30.5639 1.7867V16.5504C30.5639 17.5378 29.7417 18.3372 28.7262 18.3372C27.7105 18.3372 26.8885 17.5378 26.8885 16.5504V11.0023H20.3597V16.5504C20.3597 17.5378 19.5375 18.3372 18.522 18.3372C17.5064 18.3372 16.6843 17.5378 16.6843 16.5504V1.7867C16.6843 0.799312 17.5064 0 18.522 0C19.5375 0 20.3597 0.799312 20.3597 1.7867V7.33485H26.8885V1.7867C26.8885 0.799312 27.7105 0 28.7262 0C29.7417 0 30.5639 0.799312 30.5639 1.7867Z" fill="#484848"/>
<path d="M47.297 6.77064C47.297 4.18464 45.7979 1.92775 43.5733 0.799312C42.6061 0.28211 41.4937 0 40.3331 0C39.1725 0 38.0601 0.28211 37.0929 0.799312C34.8683 1.92775 33.3691 4.18464 33.3691 6.77064V16.5504C33.3691 17.5378 34.1912 18.3372 35.2068 18.3372C36.2224 18.3372 37.0445 17.5378 37.0445 16.5504V11.0023H43.5733V16.5504C43.5733 17.5378 44.3954 18.3372 45.411 18.3372C46.4265 18.3372 47.2487 17.5378 47.2487 16.5504C47.297 16.5504 47.297 7.33485 47.297 6.77064ZM43.5733 6.86468V7.38188H43.5249H37.1412H37.0929V6.86468C37.0929 6.81766 37.0929 6.81766 37.0929 6.77064C37.0929 6.72363 37.0929 6.72363 37.0929 6.6766C37.1412 4.98394 38.592 3.5734 40.3331 3.5734C42.0741 3.5734 43.5249 4.93693 43.5733 6.6766C43.5733 6.72363 43.5733 6.72363 43.5733 6.77064C43.5733 6.81766 43.5733 6.81766 43.5733 6.86468ZM45.8462 11.0023H45.7979C45.7979 10.9553 45.7979 10.9553 45.8462 11.0023C45.8462 10.9553 45.8462 10.9553 45.8462 10.9553V11.0023Z" fill="#484848"/>
<path d="M13.8312 6.77064V16.5504C13.8312 17.5378 13.009 18.3372 11.9935 18.3372C10.9779 18.3372 10.1558 17.5378 10.1558 16.5504V6.86468C10.1558 6.81766 10.1558 6.81766 10.1558 6.77064C10.1558 6.72363 10.1558 6.72363 10.1558 6.6766C10.1074 4.98394 8.65659 3.5734 6.91561 3.5734C5.12625 3.5734 3.72379 4.93693 3.67543 6.6766C3.67543 6.72363 3.67543 6.72363 3.67543 6.77064C3.67543 6.81766 3.67543 6.81766 3.67543 6.86468V16.5504C3.67543 17.5378 2.85328 18.3372 1.83771 18.3372C0.822129 18.3372 0 17.5378 0 16.5504V6.77064C0 4.18464 1.49918 1.92775 3.72378 0.799312C4.691 0.28211 5.80331 0 6.96397 0C8.12462 0 9.23693 0.28211 10.2041 0.799312C12.3321 1.92775 13.8312 4.18464 13.8312 6.77064Z" fill="#484848"/>
<path fill-rule="evenodd" clip-rule="evenodd" d="M58.1781 32.9128C58.6134 32.9128 59.0003 33.0068 59.3872 33.1479C59.774 33.2889 60.0643 33.524 60.3543 33.8061C60.6446 34.0882 60.838 34.3704 60.9831 34.7465C61.1282 35.1227 61.2249 35.4988 61.2249 35.9219C61.2249 36.4862 61.0798 37.0034 60.7897 37.5676C61.0798 37.9437 61.2249 38.4139 61.2249 38.8841C61.2249 39.1662 61.1765 39.4483 61.0798 39.6834C60.9831 39.9185 60.838 40.1536 60.6446 40.3416C60.4511 40.5298 60.2577 40.6708 59.9675 40.8118C59.7257 40.9529 59.4355 41 59.1454 41H55.6634C55.5183 41 55.3732 40.9529 55.2764 40.8118C55.1798 40.6708 55.1315 40.5298 55.1315 40.3887C55.1315 40.2477 55.1798 40.0596 55.3249 39.9655C55.47 39.8244 55.615 39.7775 55.7601 39.7775H59.0971C59.2421 39.7775 59.3388 39.7305 59.4839 39.6834C59.6289 39.6364 59.7257 39.5424 59.8225 39.4013C59.9191 39.3073 59.9675 39.1662 60.0159 38.9781C60.0159 38.837 60.0159 38.649 59.9191 38.4609C59.774 38.555 59.6289 38.6019 59.4839 38.649C59.3388 38.696 59.2421 38.7431 59.0971 38.7901C58.952 38.837 58.8069 38.837 58.6618 38.8841C58.5166 38.8841 58.3717 38.9311 58.1781 38.9311C57.7429 38.9311 57.3077 38.837 56.9208 38.696C56.5338 38.555 56.2437 38.3199 55.9535 38.0848C55.6634 37.8027 55.47 37.5206 55.3249 37.1444C55.1798 36.7683 55.083 36.3922 55.083 35.9219C55.083 35.4988 55.1798 35.1227 55.3249 34.7935C55.47 34.4174 55.7118 34.1353 56.0019 33.8532C56.2921 33.571 56.6306 33.383 56.9692 33.1949C57.4044 33.0068 57.7912 32.9128 58.1781 32.9128ZM58.1781 34.0882C57.9363 34.0882 57.6946 34.1353 57.5011 34.2293C57.2593 34.3233 57.0658 34.4643 56.9208 34.6055C56.7757 34.7465 56.6306 34.9816 56.5338 35.1697C56.4372 35.4048 56.3889 35.5928 56.3889 35.8279C56.3889 36.063 56.4372 36.2981 56.5338 36.4862C56.6306 36.7212 56.7757 36.9093 56.9208 37.0504C57.0658 37.2385 57.2593 37.3325 57.5011 37.4735C57.7429 37.5676 57.9847 37.6147 58.2266 37.6147C58.4683 37.6147 58.7101 37.5676 58.952 37.4735C59.1937 37.3796 59.3872 37.2385 59.5323 37.0974C59.6774 36.9563 59.8225 36.7212 59.9191 36.5332C60.0159 36.2981 60.0643 36.1101 60.0643 35.875C60.0643 35.6399 60.0159 35.4048 59.9191 35.1697C59.8225 34.9345 59.6774 34.7465 59.4839 34.6055C59.2905 34.4643 59.0971 34.3233 58.9035 34.2293C58.6134 34.1353 58.42 34.0882 58.1781 34.0882Z" fill="#484848"/>
<path fill-rule="evenodd" clip-rule="evenodd" d="M44.2019 30.9851C44.347 30.9851 44.4921 31.0321 44.6371 31.1731C44.7822 31.3142 44.8305 31.4553 44.8305 31.5964V36.8153C44.8305 37.0975 44.9273 37.2855 45.0724 37.4736C45.2175 37.6617 45.4593 37.7088 45.7494 37.7088C45.8945 37.7088 46.0879 37.7557 46.1847 37.8968C46.3298 37.9908 46.3781 38.1319 46.3781 38.3199C46.3781 38.461 46.3298 38.6021 46.1847 38.696C46.0879 38.7901 45.9428 38.8842 45.7978 38.9311H45.6044C45.3142 38.9311 45.0724 38.8842 44.8305 38.7431C44.5888 38.6491 44.347 38.461 44.1535 38.2729C43.9601 38.0849 43.815 37.8498 43.7182 37.6147C43.6216 37.3796 43.5732 37.0975 43.5732 36.8153V31.5964C43.5732 31.4553 43.6216 31.3142 43.7667 31.1731C43.9117 31.0792 44.0568 30.9851 44.2019 30.9851Z" fill="#484848"/>
<path fill-rule="evenodd" clip-rule="evenodd" d="M50.7791 32.9128C51.2143 32.9128 51.6011 33.0068 51.9397 33.1479C52.3265 33.2889 52.6168 33.524 52.9068 33.8061C53.1971 34.0882 53.3905 34.3704 53.5839 34.7465C53.729 35.1227 53.8257 35.4988 53.8257 35.9219C53.8257 36.3451 53.729 36.7212 53.5839 37.0504C53.4388 37.4265 53.1971 37.7086 52.9553 37.9908C52.6651 38.2729 52.3749 38.4609 51.988 38.649C51.6011 38.7901 51.2143 38.8841 50.7791 38.8841C50.3437 38.8841 49.9569 38.7901 49.57 38.649C49.1831 38.508 48.8929 38.2729 48.6028 38.0378C48.3126 37.7557 48.1192 37.4735 47.9257 37.0974C47.7806 36.7212 47.6838 36.3451 47.6838 35.9219C47.6838 35.4988 47.7806 35.1227 47.9257 34.7935C48.0708 34.4174 48.3126 34.1353 48.5544 33.8532C48.8446 33.571 49.1831 33.383 49.5217 33.1949C49.9085 33.0068 50.3437 32.9128 50.7791 32.9128ZM50.7306 34.0882C50.4888 34.0882 50.2471 34.1353 50.0052 34.2293C49.7634 34.3233 49.57 34.4643 49.4249 34.6055C49.2798 34.7465 49.1347 34.9345 49.038 35.1697C48.9412 35.4048 48.8929 35.6399 48.8929 35.875C48.8929 36.1101 48.9412 36.3451 49.038 36.5802C49.1347 36.8153 49.2798 37.0034 49.4249 37.1444C49.57 37.2855 49.7634 37.4265 50.0052 37.5206C50.2471 37.6147 50.4405 37.6616 50.7306 37.6616C50.9725 37.6616 51.2143 37.6147 51.456 37.5206C51.6979 37.4265 51.8913 37.2855 52.0363 37.1444C52.1814 37.0034 52.3265 36.7683 52.4233 36.5802C52.52 36.3451 52.5683 36.1571 52.5683 35.875C52.52 35.4048 52.3749 34.9816 52.0363 34.6525C51.6979 34.3233 51.2626 34.1353 50.7306 34.0882Z" fill="#484848"/>
<path fill-rule="evenodd" clip-rule="evenodd" d="M63.8365 31.6433C63.8365 31.8315 63.7882 31.9725 63.643 32.1135C63.4979 32.2546 63.353 32.3016 63.2078 32.3016C63.0144 32.3016 62.8693 32.2546 62.7242 32.1135C62.5791 31.9725 62.5308 31.8315 62.5308 31.6433C62.5308 31.4553 62.5791 31.3142 62.7242 31.1731C62.8693 31.0321 63.0144 30.9851 63.2078 30.9851C63.4013 30.9851 63.5464 31.0321 63.643 31.1731C63.7882 31.3142 63.8365 31.4553 63.8365 31.6433Z" fill="#484848"/>
<path fill-rule="evenodd" clip-rule="evenodd" d="M63.2078 38.884C63.0144 38.884 62.8693 38.837 62.7242 38.696C62.5791 38.555 62.5308 38.4139 62.5308 38.2258V33.571C62.5308 33.3829 62.5791 33.2418 62.7242 33.1008C62.8693 32.9598 63.0144 32.9128 63.2078 32.9128C63.353 32.9128 63.5464 32.9598 63.643 33.1008C63.7882 33.2418 63.8365 33.3829 63.8365 33.571V38.2258C63.8365 38.4139 63.7882 38.555 63.643 38.696C63.4979 38.7901 63.353 38.884 63.2078 38.884Z" fill="#484848"/>
<path fill-rule="evenodd" clip-rule="evenodd" d="M65.1423 34.6996C65.1423 34.4645 65.1907 34.2294 65.2874 34.0412C65.3841 33.8061 65.5292 33.6181 65.6743 33.4771C65.8194 33.336 66.0129 33.195 66.2546 33.1009C66.4481 33.0069 66.6898 32.9599 66.98 32.9599H69.4465C69.5915 32.9599 69.7366 33.0069 69.8817 33.1479C69.9785 33.289 70.0751 33.43 70.0751 33.5241C70.0751 33.6651 70.0268 33.8061 69.8817 33.9473C69.7366 34.0883 69.6399 34.1353 69.4465 34.1353H67.0768C66.8833 34.1353 66.7383 34.1824 66.5932 34.3234C66.4964 34.4174 66.4481 34.5585 66.4481 34.7466C66.4481 34.8876 66.4964 35.0286 66.5932 35.1697C66.6898 35.3108 66.8349 35.3578 67.0768 35.3578H68.6243C68.8661 35.3578 69.108 35.4048 69.3014 35.4989C69.4948 35.5929 69.6883 35.734 69.8334 35.875C69.9784 36.016 70.1235 36.2511 70.1719 36.4393C70.2686 36.6743 70.3169 36.8624 70.3169 37.0975C70.3169 37.3796 70.2686 37.6147 70.1719 37.8027C70.0751 38.0378 69.93 38.2259 69.7849 38.367C69.5915 38.508 69.398 38.6491 69.1563 38.7431C68.9145 38.8372 68.6726 38.8842 68.3825 38.8842H66.0612C65.9161 38.8842 65.771 38.8372 65.626 38.6962C65.5292 38.6021 65.4809 38.461 65.4809 38.2729C65.4809 38.1319 65.5292 37.9908 65.6743 37.8498C65.771 37.7088 65.9161 37.6617 66.1095 37.6617H68.4309C68.6243 37.6617 68.7694 37.6147 68.9145 37.5206C69.0112 37.4266 69.108 37.2855 69.108 37.0975C69.108 36.9094 69.0595 36.7683 68.9145 36.6743C68.8177 36.5803 68.6243 36.5332 68.4309 36.5332H66.9317C66.6898 36.5332 66.4964 36.4863 66.2546 36.3922C66.0612 36.2981 65.8677 36.1571 65.7226 36.016C65.5775 35.875 65.4324 35.6399 65.3358 35.4519C65.1907 35.1697 65.1423 34.9347 65.1423 34.6996Z" fill="#484848"/>
<path fill-rule="evenodd" clip-rule="evenodd" d="M72.2509 30.9851C72.4444 30.9851 72.5895 31.0321 72.7346 31.1731C72.8797 31.3142 72.928 31.4553 72.928 31.6433V32.9128H75.8297C76.0231 32.9128 76.1682 32.9599 76.2649 33.1009C76.3617 33.242 76.4583 33.336 76.4583 33.4771C76.4583 33.6181 76.41 33.7592 76.2649 33.9002C76.1199 34.0412 75.9748 34.0883 75.8297 34.0883H72.928V35.828C72.928 36.063 72.9764 36.2981 73.0731 36.5332C73.1698 36.7683 73.3149 36.9565 73.46 37.0975C73.6051 37.2385 73.7986 37.3796 74.0403 37.4736C74.2821 37.5676 74.524 37.6147 74.7657 37.6147C75.056 37.6147 75.2977 37.5676 75.4911 37.5206C75.6846 37.4266 75.878 37.3326 76.0231 37.1915C76.1682 37.0975 76.3133 37.0034 76.5068 37.0034C76.7002 37.0034 76.8453 37.0504 76.9903 37.1915C77.0871 37.2855 77.1837 37.4266 77.1837 37.6147C77.1837 37.6617 77.1838 37.7557 77.1354 37.8027C77.1354 37.8498 77.0871 37.9437 77.0388 37.9908C76.7485 38.2729 76.41 38.461 76.0715 38.6491C75.7329 38.8372 75.346 38.8842 74.9108 38.8842C74.4756 38.8842 74.0403 38.7901 73.6535 38.6491C73.2666 38.508 72.928 38.3199 72.6378 38.0378C72.3477 37.7557 72.106 37.4736 71.9125 37.0975C71.719 36.7214 71.6223 36.2981 71.6223 35.828V31.6433C71.6223 31.5023 71.6706 31.3142 71.8157 31.1731C71.8641 31.0792 72.0575 30.9851 72.2509 30.9851Z" fill="#484848"/>
<path fill-rule="evenodd" clip-rule="evenodd" d="M79.6986 31.6433C79.6986 31.8315 79.6502 31.9725 79.5051 32.1135C79.3601 32.2546 79.215 32.3016 79.0699 32.3016C78.8765 32.3016 78.7314 32.2546 78.5863 32.1135C78.4413 31.9725 78.3928 31.8315 78.3928 31.6433C78.3928 31.4553 78.4413 31.3142 78.5863 31.1731C78.7314 31.0321 78.8765 30.9851 79.0699 30.9851C79.2634 30.9851 79.4085 31.0321 79.5051 31.1731C79.6502 31.3142 79.6986 31.4553 79.6986 31.6433Z" fill="#484848"/>
<path fill-rule="evenodd" clip-rule="evenodd" d="M79.0699 38.884C78.8765 38.884 78.7314 38.837 78.5863 38.696C78.4413 38.555 78.3928 38.4139 78.3928 38.2258V33.571C78.3928 33.3829 78.4413 33.2418 78.5863 33.1008C78.7314 32.9598 78.8765 32.9128 79.0699 32.9128C79.215 32.9128 79.4085 32.9598 79.5051 33.1008C79.6502 33.2418 79.6986 33.3829 79.6986 33.571V38.2258C79.6986 38.4139 79.6502 38.555 79.5051 38.696C79.3601 38.7901 79.215 38.884 79.0699 38.884Z" fill="#484848"/>
<path fill-rule="evenodd" clip-rule="evenodd" d="M84.0511 32.9128C84.8732 32.9128 85.5986 33.1949 86.2274 33.7591C86.2757 33.8061 86.3241 33.8531 86.3241 33.9472C86.3241 33.9942 86.3724 34.0882 86.3724 34.1353C86.3724 34.3233 86.324 34.4643 86.1789 34.5584C86.1306 34.6055 86.0338 34.6525 85.9855 34.6994C85.8888 34.7465 85.8404 34.7465 85.7437 34.7465C85.5503 34.7465 85.4052 34.6994 85.3085 34.6055C84.97 34.3233 84.5831 34.1353 84.0995 34.1353C83.8577 34.1353 83.6158 34.1823 83.3741 34.2763C83.1323 34.3704 82.9389 34.5114 82.7938 34.6525C82.6486 34.7935 82.5035 35.0286 82.4069 35.2166C82.3101 35.4517 82.2618 35.6399 82.2618 35.875C82.2618 36.1101 82.3101 36.3451 82.4069 36.5802C82.5035 36.8153 82.6486 37.0034 82.7938 37.1444C82.9389 37.3325 83.1806 37.4265 83.3741 37.5206C83.6158 37.6147 83.8093 37.6616 84.0511 37.6147C84.5347 37.6147 84.9216 37.4735 85.3085 37.0974C85.4052 37.0034 85.502 36.9563 85.6954 36.9563C85.8404 36.9563 85.9855 37.0034 86.1306 37.1444C86.2757 37.2855 86.3241 37.3796 86.3241 37.5676C86.3241 37.6147 86.3241 37.7086 86.2757 37.7557C86.2274 37.8027 86.2274 37.8967 86.1789 37.9437C85.8888 38.2258 85.5503 38.4609 85.2118 38.6019C84.8732 38.7431 84.4863 38.837 84.0511 38.837C83.6158 38.837 83.229 38.7431 82.8421 38.6019C82.5035 38.4609 82.1167 38.1788 81.8749 37.9437C81.5847 37.6616 81.3913 37.3796 81.1978 37.0034C81.0527 36.6273 80.9561 36.2511 80.9561 35.875C80.9561 35.4988 81.0527 35.1227 81.1978 34.7465C81.3429 34.3704 81.5847 34.0882 81.8749 33.8061C82.165 33.524 82.5035 33.2889 82.8421 33.1479C83.1806 33.0068 83.6642 32.9128 84.0511 32.9128Z" fill="#484848"/>
<path fill-rule="evenodd" clip-rule="evenodd" d="M87.6782 34.6996C87.6782 34.4645 87.7267 34.2294 87.8233 34.0412C87.9201 33.8061 88.0652 33.6181 88.2102 33.4771C88.3553 33.336 88.5487 33.195 88.7906 33.1009C88.9841 33.0069 89.2258 32.9599 89.516 32.9599H91.9824C92.1275 32.9599 92.2726 33.0069 92.4177 33.1479C92.5144 33.289 92.6111 33.43 92.6111 33.5241C92.6111 33.6651 92.5627 33.8061 92.4177 33.9473C92.2726 34.0883 92.1758 34.1353 91.9824 34.1353H89.6127C89.4193 34.1353 89.2742 34.1824 89.1291 34.3234C89.0324 34.4174 88.9841 34.5585 88.9841 34.7466C88.9841 34.8876 89.0324 35.0286 89.1291 35.1697C89.2258 35.3108 89.3709 35.3578 89.6127 35.3578H91.1603C91.4021 35.3578 91.6438 35.4048 91.8373 35.4989C92.0307 35.5929 92.2243 35.734 92.3693 35.875C92.5144 36.016 92.6595 36.2511 92.7078 36.4393C92.8046 36.6743 92.8529 36.8624 92.8529 37.0975C92.8529 37.3796 92.8046 37.6147 92.7078 37.8027C92.6111 38.0378 92.466 38.2259 92.3209 38.367C92.1275 38.508 91.9341 38.6491 91.6923 38.7431C91.4504 38.8372 91.2086 38.8842 90.9184 38.8842H88.5972C88.4521 38.8842 88.307 38.8372 88.1619 38.6962C88.0652 38.6021 88.0168 38.461 88.0168 38.2729C88.0168 38.1319 88.0652 37.9908 88.2102 37.8498C88.307 37.7088 88.4521 37.6617 88.6455 37.6617H90.9669C91.1603 37.6617 91.3053 37.6147 91.4504 37.5206C91.5472 37.4266 91.6438 37.2855 91.6438 37.0975C91.6438 36.9094 91.5955 36.7683 91.4504 36.6743C91.3537 36.5803 91.1603 36.5332 90.9669 36.5332H89.4676C89.2258 36.5332 89.0324 36.4863 88.7906 36.3922C88.5972 36.2981 88.4037 36.1571 88.2586 36.016C88.1135 35.875 87.9684 35.6399 87.8718 35.4519C87.6783 35.1697 87.6782 34.9347 87.6782 34.6996Z" fill="#484848"/>
<path d="M83.0357 20.688C82.9873 20.547 82.9873 20.4059 82.8906 20.2649C82.8906 20.2649 82.8906 20.2178 82.8421 20.2178C82.7455 20.0768 82.6004 19.9357 82.4069 19.9357C82.3586 19.9357 82.2618 19.9357 82.2135 19.9827C82.1167 20.0298 82.0684 20.1239 81.9717 20.1708C81.9233 20.2178 81.7783 20.3589 81.7783 20.3589C78.0545 24.1674 73.6536 26.4712 68.1405 26.4712C62.6273 26.4712 58.2265 24.1674 54.5028 20.3589C54.5028 20.3589 54.3576 20.1708 54.3093 20.1708C54.2609 20.0768 54.1642 20.0298 54.0674 19.9827C54.0191 19.9357 53.9708 19.9357 53.874 19.9357C53.6806 19.9357 53.5356 20.0768 53.4388 20.2178C53.4388 20.2178 53.4388 20.2649 53.3905 20.2649C53.342 20.4059 53.2937 20.547 53.2454 20.688C53.2454 20.7821 53.2454 20.8291 53.2454 20.9231C53.2454 21.0172 53.2454 21.1111 53.2937 21.2052C53.342 21.3462 53.4388 21.4874 53.4871 21.5814C53.6806 21.8636 53.9224 22.1456 54.1159 22.4277C54.3093 22.7098 54.5511 22.992 54.7928 23.227C55.2765 23.7913 55.8085 24.2615 56.3405 24.7787C56.8724 25.2489 57.4527 25.719 58.0814 26.0951C60.2576 27.5527 62.6273 28.4931 65.2389 28.9163C66.2061 29.0573 67.1249 29.1514 68.0921 29.1514C69.0109 29.1514 69.9782 29.0573 70.9454 28.9163C73.5569 28.4931 75.9265 27.5527 78.1028 26.0951C78.7315 25.672 79.3119 25.2489 79.8438 24.7787C80.3758 24.3084 80.9078 23.7913 81.3913 23.227C81.6332 22.9449 81.875 22.7098 82.0684 22.4277C82.2618 22.1456 82.5037 21.9105 82.6972 21.5814C82.7938 21.4403 82.8422 21.3462 82.8906 21.2052C82.9389 21.1111 82.9389 21.0172 82.9389 20.9231C83.084 20.8762 83.0357 20.7821 83.0357 20.688Z" fill="#484848"/>
</g>
<defs>
<clipPath id="clip0_64_89">
<rect width="110" height="41" fill="white"/>
</clipPath>
</defs>
</svg>
