<svg width="30" height="30" viewBox="0 0 30 30" fill="none" xmlns="http://www.w3.org/2000/svg">
<path d="M28.7847 7.51647C28.783 7.51343 28.7823 7.51026 28.7806 7.50722L28.7788 7.50471C28.6338 7.25526 28.4251 7.04909 28.1742 6.90749L16.2942 0.207203C16.0514 0.0713301 15.778 0 15.5 0C15.222 0 14.9486 0.0713301 14.7058 0.207203L2.82581 6.90749C2.57439 7.0495 2.36536 7.25627 2.22035 7.50643C2.21963 7.50775 2.21863 7.50867 2.21792 7.51C2.21611 7.51323 2.21533 7.51674 2.2136 7.51998C2.07403 7.76457 2.00041 8.04141 2 8.32321V21.6754C2.00023 21.9636 2.07682 22.2465 2.22192 22.4953C2.36702 22.744 2.57543 22.9496 2.82582 23.0911L14.7058 29.7914C14.9377 29.921 15.1979 29.9914 15.4634 29.9963C15.4747 29.9971 15.4853 29.9999 15.4967 30H15.5016C15.5152 30 15.5279 29.997 15.5413 29.996C15.8051 29.9905 16.0636 29.9202 16.2942 29.7914L28.1742 23.0911C28.4246 22.9497 28.633 22.744 28.7781 22.4953C28.9232 22.2465 28.9998 21.9636 29 21.6754V8.32321C28.9997 8.04006 28.9254 7.76194 28.7847 7.51647ZM15.2353 1.15102C15.3162 1.10573 15.4073 1.08195 15.5 1.08195C15.5927 1.08195 15.6838 1.10573 15.7647 1.15102L27.3627 7.69228L22.1356 10.6698L10.1297 4.03057L15.2353 1.15102ZM15.6255 14.3781L3.64557 7.68759L9.02259 4.65496L21.034 11.2973L15.6255 14.3781ZM3.35526 22.1473C3.27179 22.1002 3.20232 22.0316 3.15395 21.9487C3.10558 21.8658 3.08006 21.7715 3.07998 21.6754V8.61118L15.0853 15.3159L14.9681 28.6969L3.35526 22.1473ZM27.6447 22.1473L16.0482 28.6877L16.1654 15.316L21.578 12.2328V18.3171C21.578 18.4607 21.6349 18.5984 21.7362 18.6999C21.8374 18.8015 21.9748 18.8585 22.118 18.8585C22.2612 18.8585 22.3986 18.8015 22.4999 18.6999C22.6011 18.5984 22.658 18.4607 22.658 18.3171V11.6176L27.92 8.62023V21.6754C27.9199 21.7715 27.8944 21.8658 27.846 21.9487C27.7977 22.0316 27.7282 22.1002 27.6447 22.1473Z" fill="url(#paint0_linear_153_69)"/>
<defs>
<linearGradient id="paint0_linear_153_69" x1="2" y1="15" x2="29" y2="15" gradientUnits="userSpaceOnUse">
<stop stop-color="#386BB7"/>
<stop offset="1" stop-color="#E24C4A"/>
</linearGradient>
</defs>
</svg>
