<svg width="9" height="11" viewBox="0 0 9 11" fill="none" xmlns="http://www.w3.org/2000/svg">
<ellipse cx="6.23324" cy="1.83336" rx="1.83334" ry="1.83336" fill="#1F1F1F"/>
<ellipse cx="6.23324" cy="9.16685" rx="1.83334" ry="1.83336" fill="#1F1F1F"/>
<ellipse cx="1.83334" cy="5.50035" rx="1.83334" ry="1.83336" fill="#1F1F1F"/>
<path d="M4.76676 0.732964L6.96674 3.29967V3.29967C5.17432 3.52372 3.66982 4.75712 3.09858 6.4708L2.93338 6.96639L0.73334 4.03302V4.03302C2.53691 3.80757 4.06655 2.60019 4.70476 0.898299L4.76676 0.732964Z" fill="#1F1F1F"/>
<path d="M3.13787 4.51296L1.05554 7.176V7.176C2.85622 7.31922 4.41467 8.48371 5.06239 10.17L5.24971 10.6576L7.31561 7.62828V7.62828C5.50373 7.48417 3.92134 6.34681 3.20725 4.67534L3.13787 4.51296Z" fill="#1F1F1F"/>
</svg>
