<svg width="40" height="35" viewBox="0 0 40 35" fill="none" xmlns="http://www.w3.org/2000/svg">
<g clip-path="url(#clip0_163_8040)">
<path d="M25.7834 7.25434C25.9068 8.49711 25.394 9.82659 24.6628 11.0886C20.8451 17.7071 17.0369 24.3449 13.1623 30.9345C10.8451 34.8651 6.78051 36.0694 3.26674 33.9884C-0.0381027 32.0328 -1.00676 27.6975 1.15848 23.8921C4.97614 17.1773 8.85079 10.4913 12.7824 3.84393C14.6817 0.616574 17.6542 -0.606933 20.7881 0.279387C23.941 1.17534 25.7644 3.64162 25.7834 7.25434Z" fill="#DE5B4D"/>
<path d="M26.7045 33.1792C21.7282 33.1792 18.3759 28.2948 20.4557 23.632C22.4405 19.1908 24.9856 15.0193 27.7586 11.0308C29.6769 8.26591 33.713 7.64934 36.4955 9.29673C39.468 11.0501 40.94 14.894 39.354 18.0443C37.1983 22.3121 34.7197 26.4162 32.2125 30.4817C31.0065 32.4374 29.0027 33.2563 26.7045 33.1792Z" fill="#DE5B4D"/>
</g>
<defs>
<clipPath id="clip0_163_8040">
<rect width="40" height="35" fill="white"/>
</clipPath>
</defs>
</svg>
