<svg width="80" height="140" viewBox="0 0 80 140" fill="none" xmlns="http://www.w3.org/2000/svg">
<path d="M80 120L20 120C8.95431 120 7.8281e-07 111.046 1.74846e-06 100L6.99382e-06 40C7.95947e-06 28.9543 8.95432 20 20 20L80 20L80 120Z" fill="#F0F2F4"/>
<circle cx="36.5" cy="74.5" r="2.5" transform="rotate(-180 36.5 74.5)" fill="#1F1F1F"/>
<circle cx="36.5" cy="64.5" r="2.5" transform="rotate(-180 36.5 64.5)" fill="#1F1F1F"/>
<circle cx="42.5" cy="69.5" r="2.5" transform="rotate(-180 42.5 69.5)" fill="#1F1F1F"/>
<path d="M38.5001 76L35.5002 72.5L35.748 72.469C38.0408 72.1824 39.9652 70.6048 40.6959 68.4128L41.0002 67.5L44.0002 71.5L43.6 71.55C41.3867 71.8267 39.5095 73.3084 38.7263 75.3969L38.5001 76Z" fill="#1F1F1F"/>
<path d="M40.7214 70.8465L43.5609 67.2151L43.3119 67.1953C41.0086 67.0121 39.0151 65.5226 38.1866 63.3657L37.8416 62.4675L35.0245 66.5984L35.4265 66.6304C37.6501 66.8072 39.592 68.203 40.4683 70.2542L40.7214 70.8465Z" fill="#1F1F1F"/>
<path d="M79.9213 140C78.2017 129.781 70.2126 121.757 60 120L80 120L79.9213 140Z" fill="#F0F2F4"/>
<path d="M60 19.9213C70.2189 18.2017 78.2429 10.2126 80 2.62268e-06L80 20L60 19.9213Z" fill="#F0F2F4"/>
</svg>
