<svg width="30" height="30" viewBox="0 0 30 30" fill="none" xmlns="http://www.w3.org/2000/svg">
<g clip-path="url(#clip0_73_510)">
<path d="M29.5 26.125L25 21.625C24.25 20.875 23.125 20.875 22.5 21.625L20.75 19.875C22.625 17.75 23.75 15 23.75 12C23.75 5.375 18.375 0 11.875 0C5.375 0 0 5.375 0 11.875C0 18.375 5.375 23.75 11.875 23.75C14.875 23.75 17.75 22.625 19.75 20.75L21.5 22.5C20.875 23.25 20.875 24.375 21.5 25L26 29.5C26.375 29.875 26.875 30 27.375 30C27.875 30 28.375 29.875 28.75 29.5L29.5 28.75C30.125 28 30.125 26.75 29.5 26.125ZM7.25 2.375L9.875 4.625L8.875 6.625C8.75 6.75 8.75 7 8.75 7.125C8.75 7.25 9 7.375 9.125 7.5L12.25 8.5L11.375 11L9.625 10.125C9.5 10 9.25 10 9.125 10C9 10 8.875 10.25 8.75 10.375L7.625 13.75H6.25C6 13.75 5.875 13.875 5.75 14C5.625 14.125 5.625 14.375 5.625 14.5L6.125 16.625L5.625 17.125L3.625 15.125C3.5 15.125 3.25 15 3.125 15H1.75C1.375 14 1.25 13 1.25 11.875C1.25 7.75 3.75 4.125 7.25 2.375ZM2.25 16.25H2.875L5.25 18.625C5.25 18.75 5.5 18.75 5.625 18.75C5.75 18.75 6 18.75 6.125 18.625L7.375 17.375C7.5 17.125 7.5 16.875 7.5 16.75L7 15H8.125C8.375 15 8.625 14.875 8.75 14.625L9.75 11.5L11.625 12.375C11.75 12.5 12 12.5 12.125 12.5C12.25 12.375 12.375 12.25 12.5 12.125L13.75 8.375C13.875 8 13.625 7.75 13.375 7.625L10.25 6.5L11.125 4.625C11.375 4.375 11.25 4.125 11 3.875L8.5 1.75C9.625 1.5 10.75 1.25 11.875 1.25C17 1.25 21.25 4.875 22.25 9.75L19.125 11.375C18.875 11.375 18.75 11.625 18.75 11.875V12.875L17.875 13.75H15.625C15.375 13.75 15.125 13.875 15.125 14.125L13.875 16.625C13.75 16.875 13.75 17.125 14 17.375L15.25 18.625C15.375 18.75 15.5 18.75 15.75 18.75H16.5L17.25 21C15.625 21.875 13.875 22.5 11.875 22.5C7.625 22.5 3.875 19.875 2.25 16.25ZM18.25 20.375L17.5 17.875C17.375 17.625 17.125 17.5 16.875 17.5H15.875L15.125 16.75L16 15H18.125C18.25 15 18.5 14.875 18.625 14.875L19.875 13.625C20 13.5 20 13.375 20 13.125V12.25L22.5 11C22.5 11.25 22.5 11.5 22.5 11.875C22.5 15.375 20.875 18.375 18.25 20.375ZM28.625 27.875L27.875 28.625C27.625 28.875 27.25 28.875 27 28.625L22.5 24.125C22.25 23.875 22.25 23.5 22.5 23.25L23.25 22.5C23.375 22.375 23.5 22.375 23.75 22.375C24 22.375 24.125 22.375 24.25 22.5L28.75 27C28.75 27.25 28.75 27.625 28.625 27.875Z" fill="url(#paint0_linear_73_510)"/>
</g>
<defs>
<linearGradient id="paint0_linear_73_510" x1="1.11642e-07" y1="15" x2="29.9687" y2="15" gradientUnits="userSpaceOnUse">
<stop stop-color="#386BB7"/>
<stop offset="1" stop-color="#E24C4A"/>
</linearGradient>
<clipPath id="clip0_73_510">
<rect width="30" height="30" fill="white"/>
</clipPath>
</defs>
</svg>
