<svg width="100" height="89" viewBox="0 0 100 89" fill="none" xmlns="http://www.w3.org/2000/svg">
<g clip-path="url(#clip0_67_703)">
<path d="M99.6989 57.7198C100.612 44.9912 79.0989 33.055 51.6484 31.0596C24.1978 29.0642 1.20466 37.7651 0.291688 50.4937C-0.621281 63.2223 20.8917 75.1585 48.3422 77.154C75.7928 79.1494 98.786 70.4484 99.6989 57.7198Z" stroke="url(#paint0_linear_67_703)" stroke-width="0.8" stroke-miterlimit="10"/>
<path d="M97.8718 55.0628C98.2301 42.6182 76.7598 31.895 49.9166 31.1118C23.0735 30.3287 1.02234 39.7821 0.664087 52.2268C0.305839 64.6714 21.7761 75.3946 48.6193 76.1778C75.4625 76.9609 97.5136 67.5074 97.8718 55.0628Z" stroke="url(#paint1_linear_67_703)" stroke-width="0.8" stroke-miterlimit="10"/>
<path d="M48.9151 75.2139C75.1464 74.7852 96.2522 64.5782 96.056 52.4158C95.8599 40.2535 74.4362 30.7414 48.2049 31.1701C21.9735 31.5988 0.867743 41.8058 1.06386 53.9682C1.25998 66.1305 22.6837 75.6425 48.9151 75.2139Z" stroke="url(#paint2_linear_67_703)" stroke-width="0.8" stroke-miterlimit="10"/>
<path d="M49.1989 74.2416C74.8213 72.6007 94.9837 61.6398 94.233 49.7598C93.4823 37.8797 72.1027 29.5793 46.4803 31.2202C20.8579 32.8612 0.695371 43.8221 1.44608 55.7021C2.1968 67.5821 23.5765 75.8825 49.1989 74.2416Z" stroke="url(#paint3_linear_67_703)" stroke-width="0.8" stroke-miterlimit="10"/>
<path d="M49.4763 73.274C74.4927 70.4224 93.7152 58.7103 92.411 47.1143C91.1067 35.5183 69.7696 28.4295 44.7532 31.2811C19.7368 34.1327 0.514252 45.8448 1.81849 57.4408C3.12274 69.0368 24.4598 76.1256 49.4763 73.274Z" stroke="url(#paint4_linear_67_703)" stroke-width="0.8" stroke-miterlimit="10"/>
<path d="M49.7491 72.3131C74.155 68.25 92.433 55.7829 90.5742 44.467C88.7153 33.151 67.4235 27.2715 43.0176 31.3345C18.6117 35.3976 0.333773 47.8648 2.1926 59.1807C4.05143 70.4966 25.3432 76.3762 49.7491 72.3131Z" stroke="url(#paint5_linear_67_703)" stroke-width="0.8" stroke-miterlimit="10"/>
<path d="M50.0362 71.3406C73.8345 66.0643 91.1705 52.8449 88.7574 41.8141C86.3443 30.7834 65.0958 26.1184 41.2976 31.3947C17.4993 36.671 0.163209 49.8904 2.57632 60.9212C4.98943 71.952 26.238 76.6169 50.0362 71.3406Z" stroke="url(#paint6_linear_67_703)" stroke-width="0.8" stroke-miterlimit="10"/>
<path d="M50.3146 70.3765C73.502 63.8897 89.8936 49.9163 86.9261 39.1659C83.9586 28.4156 62.7558 24.9593 39.5684 31.4461C16.3809 37.9328 -0.0105796 51.9063 2.9569 62.6566C5.92438 73.407 27.1271 76.8633 50.3146 70.3765Z" stroke="url(#paint7_linear_67_703)" stroke-width="0.8" stroke-miterlimit="10"/>
<path d="M50.602 69.3967C73.1784 61.6949 88.6244 46.9674 85.1016 36.5019C81.5788 26.0364 60.4212 23.796 37.8449 31.4979C15.2685 39.1997 -0.177469 53.9272 3.34532 64.3927C6.86812 74.8581 28.0256 77.0985 50.602 69.3967Z" stroke="url(#paint8_linear_67_703)" stroke-width="0.8" stroke-miterlimit="10"/>
<path d="M50.8857 68.4315C72.8549 59.5182 87.3596 44.0371 83.2829 33.8535C79.2061 23.6699 58.0917 22.6401 36.1225 31.5534C14.1533 40.4666 -0.351406 55.9478 3.72534 66.1314C7.80206 76.315 28.9165 77.3448 50.8857 68.4315Z" stroke="url(#paint9_linear_67_703)" stroke-width="0.8" stroke-miterlimit="10"/>
<path d="M51.1666 67.4712C72.5267 57.3478 86.0881 41.1129 81.4569 31.2094C76.8256 21.3059 55.7555 21.4841 34.3954 31.6075C13.0353 41.7308 -0.526091 57.9658 4.10516 67.8692C8.73641 77.7727 29.8065 77.5945 51.1666 67.4712Z" stroke="url(#paint10_linear_67_703)" stroke-width="0.8" stroke-miterlimit="10"/>
<path d="M51.4535 66.4958C72.2032 55.1587 84.8197 38.1692 79.6332 28.5487C74.4467 18.9282 53.4212 20.3198 32.6714 31.6568C11.9217 42.9939 -0.694811 59.9834 4.49171 69.6039C9.67823 79.2244 30.7037 77.8329 51.4535 66.4958Z" stroke="url(#paint11_linear_67_703)" stroke-width="0.8" stroke-miterlimit="10"/>
<path d="M51.731 65.529C71.8726 52.9813 83.5482 35.2407 77.8092 25.9043C72.0702 16.5679 51.0898 19.1711 30.9481 31.7188C10.8065 44.2665 -0.869042 62.007 4.87 71.3435C10.609 80.6799 31.5894 78.0767 51.731 65.529Z" stroke="url(#paint12_linear_67_703)" stroke-width="0.8" stroke-miterlimit="10"/>
<path d="M52.0183 64.5521C71.5502 50.789 82.2815 32.2931 75.9873 23.2404C69.693 14.1876 48.7569 18.0061 29.225 31.7691C9.6931 45.5322 -1.03816 64.0281 5.25605 73.0808C11.5503 82.1336 32.4864 78.3151 52.0183 64.5521Z" stroke="url(#paint13_linear_67_703)" stroke-width="0.8" stroke-miterlimit="10"/>
<path d="M52.2933 63.5764C71.2165 48.6015 81.0042 29.3508 74.1548 20.5788C67.3053 11.8069 46.4125 16.8353 27.4893 31.8102C8.56602 46.7851 -1.22169 66.0358 5.62776 74.8078C12.4773 83.5797 33.3701 78.5513 52.2933 63.5764Z" stroke="url(#paint14_linear_67_703)" stroke-width="0.8" stroke-miterlimit="10"/>
<path d="M52.5672 62.6143C70.8828 46.4271 79.7299 26.4237 72.3278 17.9355C64.9257 9.44728 44.0774 15.6886 25.7618 31.8758C7.44613 48.0631 -1.40099 68.0665 6.00115 76.5547C13.4033 85.0429 34.2516 78.8016 52.5672 62.6143Z" stroke="url(#paint15_linear_67_703)" stroke-width="0.8" stroke-miterlimit="10"/>
<path d="M52.8493 61.6423C70.5533 44.2437 78.4556 23.4881 70.4996 15.2834C62.5436 7.07876 41.7421 14.532 24.0381 31.9306C6.33414 49.3292 -1.56817 70.0848 6.38782 78.2894C14.3438 86.4941 35.1453 79.0409 52.8493 61.6423Z" stroke="url(#paint16_linear_67_703)" stroke-width="0.8" stroke-miterlimit="10"/>
<path d="M53.1335 60.6741C70.2289 42.0628 77.1879 20.5523 68.6768 12.6292C60.1657 4.70599 39.4075 13.3704 22.3121 31.9818C5.21671 50.5931 -1.74224 72.1036 6.76887 80.0267C15.2799 87.9499 36.0381 79.2855 53.1335 60.6741Z" stroke="url(#paint17_linear_67_703)" stroke-width="0.8" stroke-miterlimit="10"/>
<path d="M53.4112 59.7037C69.8983 39.8811 75.9166 17.6183 66.8532 9.97846C57.7899 2.33863 37.0771 12.2148 20.5899 32.0375C4.10274 51.8601 -1.91547 74.1229 7.14787 81.7627C16.2112 89.4025 36.924 79.5264 53.4112 59.7037Z" stroke="url(#paint18_linear_67_703)" stroke-width="0.8" stroke-miterlimit="10"/>
<path d="M53.693 58.7288C69.5699 37.6942 74.6442 14.6781 65.0266 7.32093C55.409 -0.0362053 34.7416 11.0516 18.8646 32.0863C2.98773 53.1209 -2.08649 76.137 7.53109 83.4941C17.1486 90.8513 37.816 79.7635 53.693 58.7288Z" stroke="url(#paint19_linear_67_703)" stroke-width="0.8" stroke-miterlimit="10"/>
<path d="M53.9756 57.7591C69.2423 35.5135 73.3726 11.7448 63.2009 4.67021C53.0293 -2.4044 32.4074 9.89412 17.1408 32.1396C1.87413 54.3852 -2.25618 78.154 7.91547 85.2286C18.0871 92.3032 38.7089 80.0047 53.9756 57.7591Z" stroke="url(#paint20_linear_67_703)" stroke-width="0.8" stroke-miterlimit="10"/>
<path d="M54.259 56.8063C68.9206 33.3496 72.1109 8.82606 61.3848 2.03138C50.6587 -4.7633 30.0778 8.74394 15.4162 32.2006C0.754554 55.6573 -2.4358 80.1809 8.29034 86.9756C19.0165 93.7703 39.5973 80.2631 54.259 56.8063Z" stroke="url(#paint21_linear_67_703)" stroke-width="0.8" stroke-miterlimit="10"/>
</g>
<defs>
<linearGradient id="paint0_linear_67_703" x1="23.8616" y1="35.2137" x2="23.7096" y2="78.3637" gradientUnits="userSpaceOnUse">
<stop stop-color="#E24C4A"/>
<stop offset="1" stop-color="#386BB7"/>
</linearGradient>
<linearGradient id="paint1_linear_67_703" x1="23.0026" y1="36.3365" x2="24.6802" y2="78.3983" gradientUnits="userSpaceOnUse">
<stop stop-color="#E24C4A"/>
<stop offset="1" stop-color="#386BB7"/>
</linearGradient>
<linearGradient id="paint2_linear_67_703" x1="83.2032" y1="40.5065" x2="3.04867" y2="67.7235" gradientUnits="userSpaceOnUse">
<stop stop-color="#E24C4A"/>
<stop offset="1" stop-color="#386BB7"/>
</linearGradient>
<linearGradient id="paint3_linear_67_703" x1="81.1216" y1="38.7167" x2="4.00387" y2="69.0187" gradientUnits="userSpaceOnUse">
<stop stop-color="#E24C4A"/>
<stop offset="1" stop-color="#386BB7"/>
</linearGradient>
<linearGradient id="paint4_linear_67_703" x1="79.0405" y1="36.9383" x2="4.95116" y2="70.3329" gradientUnits="userSpaceOnUse">
<stop stop-color="#E24C4A"/>
<stop offset="1" stop-color="#386BB7"/>
</linearGradient>
<linearGradient id="paint5_linear_67_703" x1="76.9458" y1="35.1546" x2="5.88935" y2="71.6355" gradientUnits="userSpaceOnUse">
<stop stop-color="#E24C4A"/>
<stop offset="1" stop-color="#386BB7"/>
</linearGradient>
<linearGradient id="paint6_linear_67_703" x1="74.8701" y1="33.3712" x2="6.84828" y2="72.9618" gradientUnits="userSpaceOnUse">
<stop stop-color="#E24C4A"/>
<stop offset="1" stop-color="#386BB7"/>
</linearGradient>
<linearGradient id="paint7_linear_67_703" x1="72.7812" y1="31.5865" x2="7.79124" y2="74.2724" gradientUnits="userSpaceOnUse">
<stop stop-color="#E24C4A"/>
<stop offset="1" stop-color="#386BB7"/>
</linearGradient>
<linearGradient id="paint8_linear_67_703" x1="70.6984" y1="29.7926" x2="8.75389" y2="75.5997" gradientUnits="userSpaceOnUse">
<stop stop-color="#E24C4A"/>
<stop offset="1" stop-color="#386BB7"/>
</linearGradient>
<linearGradient id="paint9_linear_67_703" x1="68.6208" y1="28.0095" x2="9.70649" y2="76.935" gradientUnits="userSpaceOnUse">
<stop stop-color="#E24C4A"/>
<stop offset="1" stop-color="#386BB7"/>
</linearGradient>
<linearGradient id="paint10_linear_67_703" x1="66.5363" y1="26.2283" x2="10.6547" y2="78.2686" gradientUnits="userSpaceOnUse">
<stop stop-color="#E24C4A"/>
<stop offset="1" stop-color="#386BB7"/>
</linearGradient>
<linearGradient id="paint11_linear_67_703" x1="64.454" y1="24.4352" x2="11.6209" y2="79.6085" gradientUnits="userSpaceOnUse">
<stop stop-color="#E24C4A"/>
<stop offset="1" stop-color="#386BB7"/>
</linearGradient>
<linearGradient id="paint12_linear_67_703" x1="62.373" y1="22.658" x2="12.5887" y2="80.9631" gradientUnits="userSpaceOnUse">
<stop stop-color="#E24C4A"/>
<stop offset="1" stop-color="#386BB7"/>
</linearGradient>
<linearGradient id="paint13_linear_67_703" x1="60.2922" y1="20.8631" x2="13.5695" y2="82.3153" gradientUnits="userSpaceOnUse">
<stop stop-color="#E24C4A"/>
<stop offset="1" stop-color="#386BB7"/>
</linearGradient>
<linearGradient id="paint14_linear_67_703" x1="58.2003" y1="19.0661" x2="14.5327" y2="83.6558" gradientUnits="userSpaceOnUse">
<stop stop-color="#E24C4A"/>
<stop offset="1" stop-color="#386BB7"/>
</linearGradient>
<linearGradient id="paint15_linear_67_703" x1="56.116" y1="17.2904" x2="15.516" y2="85.0242" gradientUnits="userSpaceOnUse">
<stop stop-color="#E24C4A"/>
<stop offset="1" stop-color="#386BB7"/>
</linearGradient>
<linearGradient id="paint16_linear_67_703" x1="54.0311" y1="15.5053" x2="16.5108" y2="86.3749" gradientUnits="userSpaceOnUse">
<stop stop-color="#E24C4A"/>
<stop offset="1" stop-color="#386BB7"/>
</linearGradient>
<linearGradient id="paint17_linear_67_703" x1="51.9489" y1="13.7166" x2="17.504" y2="87.7282" gradientUnits="userSpaceOnUse">
<stop stop-color="#E24C4A"/>
<stop offset="1" stop-color="#386BB7"/>
</linearGradient>
<linearGradient id="paint18_linear_67_703" x1="49.8687" y1="11.9327" x2="18.5087" y2="89.0817" gradientUnits="userSpaceOnUse">
<stop stop-color="#E24C4A"/>
<stop offset="1" stop-color="#386BB7"/>
</linearGradient>
<linearGradient id="paint19_linear_67_703" x1="47.7844" y1="10.1417" x2="19.5158" y2="90.4252" gradientUnits="userSpaceOnUse">
<stop stop-color="#E24C4A"/>
<stop offset="1" stop-color="#386BB7"/>
</linearGradient>
<linearGradient id="paint20_linear_67_703" x1="45.7013" y1="8.35667" x2="20.5266" y2="91.7691" gradientUnits="userSpaceOnUse">
<stop stop-color="#E24C4A"/>
<stop offset="1" stop-color="#386BB7"/>
</linearGradient>
<linearGradient id="paint21_linear_67_703" x1="43.6247" y1="6.5811" x2="21.5307" y2="93.1256" gradientUnits="userSpaceOnUse">
<stop stop-color="#E24C4A"/>
<stop offset="1" stop-color="#386BB7"/>
</linearGradient>
<clipPath id="clip0_67_703">
<rect width="100" height="89" fill="white"/>
</clipPath>
</defs>
</svg>
