<svg width="100" height="100" viewBox="0 0 100 100" fill="none" xmlns="http://www.w3.org/2000/svg">
<path d="M50.5 8C39.2415 8 29.0136 12.3855 21.4101 19.5321L19.9531 18.0752V14.6406C19.9531 14.4175 19.8854 14.2183 19.7884 14.0337C19.7698 13.95 19.7234 13.8597 19.6171 13.7534L14.2528 8.38914H14.2515C14.0111 8.14742 13.6791 8 13.3125 8C12.578 8 11.9844 8.59367 11.9844 9.32812V11.9844H9.32812C8.59367 11.9844 8 12.578 8 13.3125C8 13.6791 8.14875 14.0111 8.38914 14.2515V14.2528L13.7003 19.5627L13.703 19.5653L13.7561 19.6184C13.8623 19.7247 13.9513 19.7712 14.035 19.7898C14.2183 19.8854 14.4188 19.9531 14.6406 19.9531H18.0752L19.5321 21.4101C12.3855 29.0136 8 39.2415 8 50.5C8 73.972 27.028 93 50.5 93C73.972 93 93 73.972 93 50.5C93 27.028 73.972 8 50.5 8ZM17.2969 17.2969H15.1918L12.5395 14.6459L14.6406 14.6406L14.6566 12.5502L17.2969 15.1905V17.2969ZM50.5 90.3438C28.4956 90.3438 10.6562 72.5044 10.6562 50.5C10.6562 39.9759 14.7442 30.4095 21.4101 23.288L25.166 27.044C19.4604 33.2038 15.9688 41.4422 15.9688 50.5C15.9688 69.5705 31.4295 85.0312 50.5 85.0312C69.5705 85.0312 85.0312 69.5705 85.0312 50.5C85.0312 31.4295 69.5705 15.9688 50.5 15.9688C41.4422 15.9688 33.2038 19.4604 27.044 25.166L23.288 21.4101C30.4108 14.7442 39.9746 10.6562 50.5 10.6562C72.5044 10.6562 90.3438 28.4956 90.3438 50.5C90.3438 72.5044 72.5044 90.3438 50.5 90.3438ZM30.8238 32.7018C26.5579 37.4127 23.9375 43.6429 23.9375 50.5C23.9375 65.1705 35.8295 77.0625 50.5 77.0625C65.1705 77.0625 77.0625 65.1705 77.0625 50.5C77.0625 35.8295 65.1705 23.9375 50.5 23.9375C43.6429 23.9375 37.4127 26.5579 32.7018 30.8238L28.922 27.0453C34.5997 21.8178 42.1753 18.625 50.5 18.625C68.1043 18.625 82.375 32.8957 82.375 50.5C82.375 68.1043 68.1043 82.375 50.5 82.375C32.8957 82.375 18.625 68.1043 18.625 50.5C18.625 42.1753 21.8191 34.5984 27.044 28.9233L30.8238 32.7018ZM36.4577 38.3357C33.6302 41.5976 31.9062 45.8436 31.9062 50.5C31.9062 60.7691 40.2309 69.0938 50.5 69.0938C60.7691 69.0938 69.0938 60.7691 69.0938 50.5C69.0938 40.2309 60.7691 31.9062 50.5 31.9062C45.8436 31.9062 41.5976 33.6302 38.3357 36.4577L34.5798 32.7018C38.8085 28.9153 44.3773 26.5938 50.5 26.5938C63.7029 26.5938 74.4062 37.2971 74.4062 50.5C74.4062 63.7029 63.7029 74.4062 50.5 74.4062C37.2971 74.4062 26.5938 63.7029 26.5938 50.5C26.5938 44.3773 28.9153 38.8085 32.7018 34.5798L36.4577 38.3357ZM42.1142 43.9922C40.7157 45.7918 39.875 48.0443 39.875 50.5C39.875 56.3677 44.6323 61.125 50.5 61.125C56.3677 61.125 61.125 56.3677 61.125 50.5C61.125 44.6323 56.3677 39.875 50.5 39.875C48.0443 39.875 45.7918 40.7157 43.9922 42.1142L40.215 38.337C42.9921 35.9862 46.578 34.5625 50.5 34.5625C59.3015 34.5625 66.4375 41.6985 66.4375 50.5C66.4375 59.3015 59.3015 66.4375 50.5 66.4375C41.6985 66.4375 34.5625 59.3015 34.5625 50.5C34.5625 46.578 35.9862 42.9921 38.337 40.215L42.1142 43.9922ZM49.561 51.439C50.0803 51.9583 50.9197 51.9583 51.439 51.439C51.9583 50.9197 51.9583 50.0803 51.439 49.561L45.8874 44.0095C47.1903 43.0824 48.7787 42.5312 50.5 42.5312C54.9001 42.5312 58.4688 46.0999 58.4688 50.5C58.4688 54.9001 54.9001 58.4688 50.5 58.4688C46.0999 58.4688 42.5312 54.9001 42.5312 50.5C42.5312 48.7801 43.0824 47.1903 44.0095 45.8874L49.561 51.439Z" fill="#A5A6AA" stroke="#A5A6AA" stroke-width="0.5"/>
</svg>
