<svg width="82" height="96" viewBox="0 0 82 96" fill="none" xmlns="http://www.w3.org/2000/svg">
<path d="M40.7543 9.6154L11.462 61.3077H70.0466L40.7543 9.6154ZM56.0158 51.7077V41.3693L64.6312 56.6308L56.0158 51.7077ZM25.7389 41.3693V51.7077L17.1235 56.6308L25.7389 41.3693ZM39.5235 30.7846V43.5846L34.6004 46.2923L28.9389 36.6923L39.5235 30.7846ZM32.1389 48.0154L28.4466 49.9846V41.6154L32.1389 48.0154ZM33.6158 50.4769L37.062 56.3846L30.1697 52.4462L33.6158 50.4769ZM30.4158 32.7539L39.5235 17V27.5846L30.4158 32.7539ZM35.8312 58.8462H18.6004L27.2158 53.9231L35.8312 58.8462ZM35.8312 49L40.7543 46.2923L45.6774 49L40.7543 57.3693L35.8312 49ZM42.2312 27.8308V17.2462L51.0928 33L42.2312 27.8308ZM51.5851 52.4462L44.6928 56.3846L48.1389 50.4769L51.5851 52.4462ZM53.062 41.6154V49.9846L49.3697 48.0154L53.062 41.6154ZM52.5697 36.9385L47.1543 46.5385L42.2312 43.8308V31.0308L52.5697 36.9385ZM45.9235 58.8462L54.5389 53.9231L63.1543 58.8462H45.9235Z" fill="white"/>
<circle cx="41" cy="44.0769" r="36.4231" stroke="white"/>
<circle cx="73.3077" cy="10.2308" r="5.65385" stroke="white"/>
<circle cx="9.92301" cy="84.077" r="5.65385" stroke="white"/>
<path d="M12.3846 81L28.6922 61" stroke="white"/>
<path d="M1 94.8462L7.15385 87.1539" stroke="white"/>
<path d="M53.3077 34.8462L70.2308 13.3077" stroke="white"/>
<path d="M75.7693 7.15385L81.0001 1" stroke="white"/>
</svg>
