<svg width="100" height="100" viewBox="0 0 100 100" fill="none" xmlns="http://www.w3.org/2000/svg">
<path d="M31.2457 42.983C31.2457 48.4184 33.2256 53.9227 36.6776 58.0848C40.3076 62.4615 45.0465 64.8721 50.0209 64.8721C54.9947 64.8721 59.7278 62.4629 63.3485 58.0885C66.7891 53.9315 68.7623 48.4293 68.7623 42.9926V38.2039C70.1537 32.2119 70.4455 27.0264 70.4434 23.719C70.4405 19.4486 69.976 16.4982 69.5424 15.1611C69.3121 14.4508 68.6213 14.0193 67.9073 14.0885C67.7893 14.0779 67.6684 14.0791 67.5459 14.0965C64.6399 14.5117 61.0748 13.7957 57.3002 13.0377C51.1846 11.8098 44.2752 10.4242 38.9908 14.0879C38.9438 14.0836 38.8963 14.0807 38.8481 14.0807C35.8822 14.0807 33.249 15.2658 31.4334 17.4178C29.7563 19.4057 28.8326 22.1406 28.8326 25.119C28.8326 29.9969 30.9076 39.0115 31.2455 40.4473L31.2457 42.983ZM60.941 56.0961C57.925 59.7402 54.0467 61.7473 50.0209 61.7473C45.993 61.7473 42.1084 59.7381 39.0828 56.09C36.0881 52.4793 34.3707 47.702 34.3707 42.9832V41.1092C34.3707 37.2445 36.9658 31.9908 37.9508 30.1363C52.0028 28.5307 61.4082 32.4109 63.5434 33.4102L65.6373 38.3441V42.9928C65.6373 47.7141 63.9256 52.49 60.941 56.0961ZM38.8483 17.2057C38.9615 17.2057 39.0719 17.193 39.1783 17.1699C39.6076 17.2613 40.0725 17.1736 40.4496 16.8873C44.6627 13.6873 50.7746 14.9145 56.6854 16.1016C59.8485 16.7367 62.8742 17.3441 65.6867 17.3441C66.0762 17.3441 66.4615 17.3324 66.8428 17.3074C67.3137 19.9533 67.694 25.6494 66.635 32.6949L66.1938 31.6555C66.0563 31.3316 65.8139 31.0639 65.5053 30.8949C65.0565 30.6494 54.3379 24.9225 36.8936 27.1123C36.3821 27.1383 35.8934 27.4137 35.618 27.8902C35.518 28.0633 34.1584 30.4375 32.9815 33.4738C32.4473 30.5801 31.9576 27.3258 31.9576 25.1186C31.9578 19.6525 35.4184 17.2057 38.8483 17.2057Z" fill="#A5A6AA"/>
<path d="M76.9305 68.3312C76.8969 68.3218 76.8629 68.3136 76.8287 68.3064L67.5322 66.3619L65.0746 62.6351C65.0574 62.6088 65.039 62.583 65.0203 62.5578C64.5734 61.9621 63.8931 61.5689 63.1539 61.4791C62.4148 61.3894 61.6599 61.6082 61.0834 62.0798C61.0732 62.0881 61.0631 62.0966 61.0533 62.105L50 71.6201L38.9465 62.1052C38.9365 62.0968 38.9265 62.0884 38.9166 62.08C38.34 61.6084 37.5851 61.3894 36.8461 61.4791C36.1068 61.5689 35.4263 61.9621 34.9797 62.5578C34.9607 62.583 34.9426 62.6088 34.9254 62.6351L32.4677 66.3619L23.1713 68.3064C23.1371 68.3136 23.1031 68.3218 23.0695 68.3312C20.3664 69.0884 18.0668 70.7644 16.4191 73.1779C14.916 75.3795 14.0883 78.0373 14.0883 80.6617V83.5994C14.0883 86.1765 16.3832 88.2734 19.2041 88.2734H46.4424C46.4443 88.2734 46.4463 88.2736 46.4482 88.2736C46.4504 88.2736 46.4525 88.2734 46.4547 88.2734H53.5451C53.5472 88.2734 53.5494 88.2736 53.5515 88.2736C53.5535 88.2736 53.5554 88.2734 53.5574 88.2734H80.7957C83.6166 88.2734 85.9115 86.1767 85.9115 83.5994V80.6617C85.9115 78.0371 85.0838 75.3795 83.5806 73.1779C81.9334 70.7646 79.6336 69.0886 76.9305 68.3312ZM62.7424 64.7748L64.6822 67.7162L56.9187 78.3908L52.2955 73.7677L62.7424 64.7748ZM48.975 82.0363H51.025L51.6474 85.1486H48.3525L48.975 82.0363ZM51.5625 78.0552C51.5625 78.5697 51.249 78.9111 51.0416 78.9111H48.9582C48.7508 78.9111 48.4373 78.5697 48.4373 78.0552V77.4539L49.9998 75.8914L51.5623 77.4539V78.0552H51.5625ZM37.2576 64.7748L47.7045 73.7675L43.0812 78.3906L35.3177 67.716L37.2576 64.7748ZM17.2131 83.5994V80.6617C17.2131 76.9757 19.4974 72.6047 23.8642 71.3539L32.7482 69.4957L41.6295 81.7074C41.8982 82.0771 42.3152 82.3103 42.7709 82.3463C42.8117 82.3496 42.8525 82.3509 42.8931 82.3509C43.3058 82.3509 43.7037 82.1875 43.9978 81.8933L45.8199 80.0713C45.9025 80.224 45.9933 80.3705 46.0933 80.5091L45.1656 85.1482H19.2041C18.1248 85.1484 17.2131 84.439 17.2131 83.5994ZM82.7869 83.5994C82.7869 84.439 81.8752 85.1484 80.7961 85.1484H54.8344L53.9066 80.5093C54.0066 80.3707 54.0974 80.2242 54.1801 80.0715L56.0021 81.8935C56.2963 82.1877 56.6941 82.3511 57.1068 82.3511C57.1474 82.3511 57.1883 82.3496 57.2291 82.3465C57.6847 82.3107 58.1017 82.0773 58.3705 81.7076L67.2517 69.4959L76.1357 71.3541C80.5025 72.6049 82.7869 76.9759 82.7869 80.6619V83.5994Z" fill="#A5A6AA"/>
<path d="M12.5322 45.9139C12.5322 49.7102 13.824 53.2727 16.1695 55.9453C18.5502 58.658 21.7295 60.152 25.1215 60.152C27.6646 60.152 30.1131 59.3032 32.2023 57.6975C32.8865 57.1717 33.0148 56.1907 32.4889 55.5065C31.9629 54.8223 30.9824 54.6938 30.2979 55.2198C28.7598 56.402 26.9697 57.027 25.1215 57.027C19.9027 57.027 15.657 52.0416 15.657 45.9139V44.9955C15.657 42.526 16.6783 39.2569 17.2135 37.7127C20.5857 37.4139 23.5971 37.8561 26.0564 38.2194L26.3352 38.2604C26.4125 38.2717 26.4891 38.2772 26.5648 38.2772C27.327 38.2772 27.9943 37.7188 28.1086 36.942C28.2344 36.0883 27.6441 35.2944 26.7904 35.1686L26.5129 35.1278C23.6414 34.7036 20.0686 34.1762 15.8951 34.7106C15.8902 34.7112 15.8852 34.7116 15.8803 34.7123C15.8797 34.7123 15.8791 34.7123 15.8785 34.7125C15.873 34.7131 15.8678 34.7147 15.8623 34.7155C15.8176 34.7217 15.773 34.7293 15.7291 34.7395C15.7043 34.7452 15.6805 34.7528 15.6563 34.7596C15.6322 34.7664 15.6082 34.7723 15.5846 34.7801C15.5539 34.7903 15.5244 34.8024 15.4947 34.8143C15.4781 34.8211 15.4611 34.827 15.4445 34.8344C15.4143 34.8479 15.385 34.8629 15.3559 34.8784C15.3402 34.8866 15.3244 34.894 15.309 34.9028C15.2822 34.9178 15.2568 34.9344 15.2311 34.951C15.2137 34.9623 15.1961 34.9729 15.1791 34.9848C15.1576 35 15.1371 35.0164 15.1166 35.0325C15.0967 35.0481 15.0766 35.0631 15.0574 35.0797C15.041 35.0938 15.0258 35.1088 15.0102 35.1237C14.9885 35.144 14.9668 35.1641 14.9463 35.1856C14.9336 35.1991 14.9219 35.2133 14.9096 35.227C14.8883 35.2512 14.8668 35.275 14.8469 35.3006C14.8352 35.3155 14.8248 35.3313 14.8137 35.3465C14.7955 35.3717 14.777 35.3967 14.7602 35.4233C14.7463 35.445 14.734 35.468 14.7213 35.4905C14.7094 35.5116 14.6967 35.5319 14.6855 35.5538C14.6645 35.5954 14.6453 35.6381 14.6279 35.6815C14.6264 35.6852 14.6246 35.6887 14.623 35.6924C14.623 35.6926 14.6227 35.6936 14.6225 35.6938C14.6211 35.6975 14.6197 35.701 14.6184 35.7045C14.5912 35.7743 14.4785 36.0663 14.3178 36.5223C14.193 35.5288 14.1111 34.593 14.1111 33.8434C14.1111 30.4663 15.7408 28.9545 17.3561 28.9545C17.4324 28.9545 17.5068 28.9473 17.5803 28.9368C17.6543 28.9475 17.7289 28.9547 17.8041 28.9547C18.1336 28.9547 18.4656 28.851 18.748 28.6364C20.2064 27.5286 22.0879 27.1563 24.8477 27.4287C25.7057 27.5143 26.4713 26.8862 26.5563 26.0274C26.641 25.1688 26.0137 24.4038 25.1549 24.319C23.0373 24.1098 19.9723 24.0543 17.3051 25.8311C13.5822 25.8612 10.9863 29.1469 10.9863 33.8436C10.9863 37.1342 12.2836 43.1313 12.5322 44.2504V45.9139Z" fill="#A5A6AA"/>
<path d="M10.9375 74.2146H3.98184C3.49141 74.2146 3.125 73.9213 3.125 73.6588V71.6586C3.125 69.3412 4.5502 66.5961 7.275 65.806L12.9648 64.6158L15.9033 68.8549C16.2068 69.2925 16.6936 69.5273 17.1889 69.5273C17.4959 69.5273 17.8062 69.4369 18.0775 69.2488C18.7867 68.7572 18.9631 67.7838 18.4715 67.0746L15.5449 62.8525L16.4092 61.542L22.5027 66.0916C23.1943 66.608 24.1732 66.4658 24.6895 65.7744C25.2059 65.083 25.0639 64.1039 24.3723 63.5877L17.6842 58.5943C17.1918 58.2066 16.5562 58.0281 15.933 58.1035C15.2955 58.1808 14.7088 58.5199 14.3234 59.0338C14.3045 59.059 14.2865 59.0847 14.2691 59.1111L12.709 61.4769L6.58086 62.7588C6.54668 62.766 6.51269 62.7742 6.4791 62.7836C2.22559 63.975 0 68.1502 0 71.6586V73.6588C0 75.6884 1.78633 77.3396 3.98184 77.3396H10.9375C11.8004 77.3396 12.5 76.64 12.5 75.7771C12.5 74.9142 11.8004 74.2146 10.9375 74.2146Z" fill="#A5A6AA"/>
<path d="M73.4062 25.7768C75.7035 25.8227 78.2434 26.2338 80.6998 26.6313C82.5557 26.9315 84.3334 27.2164 85.8771 27.3156C85.8226 31.0156 85.5801 34.343 85.3047 37.0221C85.3016 37.0197 85.2982 37.0178 85.2951 37.0155C85.2705 36.9975 85.2451 36.9807 85.2195 36.9643C85.2076 36.9567 85.1971 36.9481 85.185 36.9408C85.1715 36.9326 85.1574 36.925 85.1437 36.9168C85.142 36.9158 85.1402 36.9147 85.1383 36.9137C82.0115 35.0305 78.2221 33.944 73.5543 33.594C72.693 33.5287 71.9439 34.1748 71.8793 35.0352C71.8146 35.8957 72.46 36.6457 73.3205 36.7102C77.3019 37.0088 80.5256 37.883 83.158 39.3766C83.5281 40.2494 84.3428 42.4586 84.3428 44.9955V45.9139C84.3428 52.0418 80.0971 57.027 74.8783 57.027C73.0301 57.027 71.2402 56.402 69.7019 55.2197C69.0178 54.694 68.0367 54.8223 67.5109 55.5065C66.9851 56.1906 67.1133 57.1715 67.7975 57.6975C69.8867 59.3033 72.3352 60.152 74.8783 60.152C78.2705 60.152 81.4498 58.658 83.8303 55.9453C86.1758 53.2725 87.4676 49.71 87.4676 45.9139V44.2252C87.6871 43.0572 88.9771 35.7834 89.0117 26.1697C89.0517 26.0156 89.0693 25.853 89.0596 25.6854C89.0105 24.8516 88.3154 24.2106 87.4902 24.2166C87.4771 24.2162 87.4642 24.2147 87.451 24.2147C87.4207 24.2147 87.3912 24.2176 87.3613 24.2192C85.8492 24.2977 83.5902 23.9332 81.1986 23.5463C78.7551 23.151 75.9855 22.7028 73.4685 22.6526C72.6002 22.6317 71.8924 23.3207 71.875 24.1834C71.858 25.0461 72.5435 25.7596 73.4062 25.7768Z" fill="#A5A6AA"/>
<path d="M93.5211 62.7834C93.4875 62.7741 93.4535 62.7659 93.4193 62.7586L87.2912 61.4768L85.7311 59.111C85.7137 59.0848 85.6955 59.059 85.6768 59.0336C85.2914 58.5198 84.7047 58.1807 84.0672 58.1034C83.4436 58.028 82.8084 58.2063 82.316 58.5942L75.6279 63.5876C74.9363 64.1038 74.7943 65.0829 75.3107 65.7743C75.8271 66.4659 76.8062 66.6079 77.4975 66.0915L83.591 61.5418L84.4553 62.8524L81.5285 67.0743C81.0369 67.7835 81.2133 68.7569 81.9225 69.2485C82.1939 69.4366 82.5041 69.527 82.8111 69.527C83.3063 69.527 83.7932 69.2922 84.0967 68.8545L87.0352 64.6155L92.725 65.8057C95.4496 66.5958 96.875 69.3411 96.875 71.6583V73.6585C96.875 73.9208 96.5086 74.2143 96.0182 74.2143H89.0625C88.1996 74.2143 87.5 74.9139 87.5 75.7768C87.5 76.6397 88.1996 77.3393 89.0625 77.3393H96.0182C98.2137 77.3393 100 75.6881 100 73.6585V71.6583C100 68.1503 97.7744 63.975 93.5211 62.7834Z" fill="#A5A6AA"/>
</svg>
