<svg width="70" height="70" viewBox="0 0 70 70" fill="none" xmlns="http://www.w3.org/2000/svg">
<g clip-path="url(#clip0_167_3792)">
<path d="M35 69C53.7777 69 69 53.7777 69 35C69 16.2223 53.7777 1 35 1C16.2223 1 1 16.2223 1 35C1 53.7777 16.2223 69 35 69Z" stroke="white" stroke-width="2"/>
<path d="M49.7 30.5C49.1 29.4 48.2 28.9 47.1 28.9C45.6 28.9 44.6 29.8 44 31.6C43.7 32.6 43.6 33.8 43.6 35.3C43.6 36.8 43.8 38.1 44.1 39.1C44.6 40.9 45.7 41.8 47.2 41.8C48.7 41.8 49.7 40.9 50.3 39.1C50.6 38.1 50.8 36.9 50.8 35.3C50.6 33.2 50.3 31.6 49.7 30.5ZM49.7 30.5C49.1 29.4 48.2 28.9 47.1 28.9C45.6 28.9 44.6 29.8 44 31.6C43.7 32.6 43.6 33.8 43.6 35.3C43.6 36.8 43.8 38.1 44.1 39.1C44.6 40.9 45.7 41.8 47.2 41.8C48.7 41.8 49.7 40.9 50.3 39.1C50.6 38.1 50.8 36.9 50.8 35.3C50.6 33.2 50.3 31.6 49.7 30.5ZM35 10C21.2 10 10 21.2 10 35C10 48.8 21.2 60 35 60C48.8 60 60 48.8 60 35C60 21.2 48.8 10 35 10ZM31.1 29C30.5 29 30.1 29.1 29.9 29.2C29.5 29.4 29.4 29.8 29.4 30.4V40.1C29.4 40.7 29.6 41.1 30 41.3C30.2 41.4 30.6 41.5 31.1 41.5V42H24.3V41.5C24.9 41.5 25.3 41.4 25.5 41.3C25.9 41.1 26.1 40.7 26.1 40.1V35.5H21.3V40.1C21.3 40.7 21.5 41.1 21.9 41.3C22.1 41.4 22.5 41.5 23.1 41.5V42H16.3V41.5C16.8 41.5 17.2 41.4 17.4 41.3C17.8 41.1 17.9 40.7 17.9 40.1V30.4C17.9 29.8 17.7 29.4 17.4 29.2C17.2 29.1 16.8 29 16.2 28.9V28.4H23V29C22.4 29 22 29.1 21.8 29.2C21.4 29.4 21.2 29.8 21.2 30.4V34.5H26V30.4C26 29.8 25.8 29.4 25.5 29.2C25.3 29.1 24.9 29 24.3 29V28.5H31.1V29ZM38.9 29C38.3 29 37.9 29.1 37.6 29.2C37.2 29.4 37 29.8 37 30.4V40.1C37 40.7 37.2 41 37.5 41.2C37.8 41.4 38.3 41.5 38.9 41.5V42H31.9V41.5C32.5 41.5 32.9 41.4 33.1 41.3C33.5 41.1 33.7 40.7 33.7 40.1V30.4C33.7 29.8 33.5 29.4 33.1 29.2C32.9 29.1 32.4 29 31.9 29V28.5H38.9V29ZM51.8 45.4C51.3 45.5 50.8 45.5 50.4 45.5C49.3 45.5 48.2 45.2 47.1 44.7C46 44.1 45.3 43.3 44.9 42.3C44.9 42.2 44.8 42.1 44.8 42.1C44.8 42.1 44.7 42 44.5 42C43.7 41.7 42.9 41.2 42.1 40.5C40.7 39.2 40 37.5 40 35.4C40 33.3 40.6 31.6 41.9 30.3C43.2 28.9 44.9 28.2 47.1 28.2C49.1 28.2 50.8 28.9 52.1 30.2C53.5 31.5 54.2 33.2 54.2 35.4C54.2 37.7 53.4 39.5 51.7 40.9C51.1 41.4 50.2 41.9 49.1 42.3C49.4 43 49.8 43.6 50.5 44.1C51.1 44.6 51.8 44.8 52.6 44.8C52.9 44.8 53.1 44.8 53.3 44.7C53.5 44.7 53.7 44.6 54 44.5L54.1 45C53.4 45.1 52.6 45.3 51.8 45.4ZM50.6 35.3C50.6 33.2 50.3 31.6 49.6 30.5C49 29.4 48.1 28.9 47 28.9C45.5 28.9 44.5 29.8 43.9 31.6C43.6 32.6 43.5 33.8 43.5 35.3C43.5 36.8 43.7 38.1 44 39.1C44.5 40.9 45.6 41.8 47.1 41.8C48.6 41.8 49.6 40.9 50.2 39.1C50.5 38.1 50.6 36.8 50.6 35.3Z" fill="white"/>
</g>
<defs>
<clipPath id="clip0_167_3792">
<rect width="70" height="70" fill="white"/>
</clipPath>
</defs>
</svg>
