<svg width="30" height="30" viewBox="0 0 30 30" fill="none" xmlns="http://www.w3.org/2000/svg">
<path d="M26.25 9.375C24.6344 9.37317 23.0855 8.73056 21.9431 7.58816C20.8007 6.44576 20.1581 4.89685 20.1563 3.28125C20.1562 3.15693 20.1069 3.03771 20.019 2.9498C19.931 2.86189 19.8118 2.81251 19.6875 2.8125H15C14.8757 2.81251 14.7565 2.86189 14.6686 2.9498C14.5806 3.03771 14.5313 3.15693 14.5313 3.28125V18.2812C14.5311 18.7845 14.3959 19.2786 14.1397 19.7118C13.8836 20.145 13.5159 20.5016 13.075 20.7443C12.6341 20.987 12.1361 21.1069 11.633 21.0916C11.13 21.0762 10.6403 20.9262 10.215 20.6571C9.78965 20.388 9.44434 20.0097 9.21506 19.5617C8.98578 19.1136 8.88092 18.6123 8.91142 18.1099C8.94193 17.6075 9.10668 17.1226 9.38848 16.7056C9.67029 16.2886 10.0588 15.9548 10.5136 15.7392C10.5937 15.7011 10.6613 15.6412 10.7087 15.5662C10.7561 15.4913 10.7812 15.4045 10.7812 15.3158L10.7813 10.4362C10.7813 10.3677 10.7662 10.3 10.7373 10.2379C10.7083 10.1758 10.6661 10.1209 10.6135 10.0769C10.561 10.0329 10.4995 10.0009 10.4333 9.98327C10.3671 9.96562 10.2978 9.96271 10.2303 9.97473C8.65025 10.2578 7.18367 10.9856 6.00274 12.0729C4.8218 13.1602 3.9755 14.5618 3.56316 16.1131C3.15082 17.6645 3.18956 19.3013 3.67482 20.8315C4.16008 22.3616 5.07172 23.7216 6.30277 24.7518C7.53381 25.782 9.03317 26.4397 10.6249 26.6476C12.2166 26.8556 13.8346 26.6052 15.289 25.9259C16.7434 25.2466 17.9739 24.1666 18.836 22.8125C19.6981 21.4584 20.1561 19.8865 20.1563 18.2812L20.1562 13.2933C21.9908 14.4144 24.1001 15.0051 26.25 15C26.3743 15 26.4935 14.9506 26.5815 14.8627C26.6694 14.7748 26.7187 14.6556 26.7188 14.5312V9.84375C26.7187 9.71943 26.6694 9.60021 26.5815 9.5123C26.4935 9.42439 26.3743 9.37501 26.25 9.375ZM25.7813 14.0525C23.6858 13.9667 21.6618 13.2666 19.9612 12.0394C19.8912 11.989 19.8086 11.9589 19.7226 11.9525C19.6366 11.946 19.5504 11.9634 19.4737 12.0027C19.3969 12.0421 19.3325 12.1018 19.2875 12.1754C19.2425 12.249 19.2187 12.3336 19.2187 12.4199L19.2188 18.2812C19.2183 19.6839 18.8245 21.0583 18.0822 22.2484C17.3398 23.4385 16.2786 24.3966 15.019 25.0138C13.7594 25.631 12.352 25.8826 10.9566 25.7401C9.56125 25.5976 8.23379 25.0666 7.12503 24.2075C6.01627 23.3483 5.17065 22.1955 4.68421 20.8799C4.19777 19.5643 4.09001 18.1387 4.37316 16.7649C4.65632 15.3911 5.31904 14.1243 6.28606 13.1082C7.25308 12.0922 8.48564 11.3677 9.84375 11.0171L9.8437 15.0332C9.27357 15.3623 8.80012 15.8357 8.47094 16.4058C8.14175 16.9759 7.96843 17.6225 7.96839 18.2808C7.96835 18.9391 8.14159 19.5858 8.4707 20.156C8.79982 20.7261 9.27321 21.1995 9.84329 21.5287C10.4134 21.8579 11.0601 22.0312 11.7184 22.0313C12.3767 22.0313 13.0234 21.858 13.5935 21.5289C14.1636 21.1998 14.6371 20.7264 14.9662 20.1563C15.2954 19.5862 15.4687 18.9395 15.4688 18.2812V3.75H19.2342C19.35 5.44822 20.077 7.04702 21.2806 8.25063C22.4842 9.45424 24.083 10.1812 25.7813 10.2971V14.0525Z" fill="url(#paint0_linear_73_514)" stroke="url(#paint1_linear_73_514)" stroke-width="0.2"/>
<defs>
<linearGradient id="paint0_linear_73_514" x1="3.28003" y1="14.7656" x2="26.7188" y2="14.7656" gradientUnits="userSpaceOnUse">
<stop stop-color="#386BB7"/>
<stop offset="1" stop-color="#E24C4A"/>
</linearGradient>
<linearGradient id="paint1_linear_73_514" x1="3.28003" y1="14.7656" x2="26.7188" y2="14.7656" gradientUnits="userSpaceOnUse">
<stop stop-color="#386BB7"/>
<stop offset="1" stop-color="#E24C4A"/>
</linearGradient>
</defs>
</svg>
