<svg width="117" height="31" viewBox="0 0 117 31" fill="none" xmlns="http://www.w3.org/2000/svg">
<path d="M107.062 16.477L108.879 11.7136L110.693 16.477H107.062ZM110.765 9.00798H106.991L101.718 21.9256H104.987L106.189 18.773H111.568L112.769 21.9256H116.037L110.765 9.00798ZM84.1508 19.6795C82.021 19.6795 80.298 17.7586 80.298 15.3879C80.298 13.0172 82.021 11.0949 84.1508 11.0949C86.2807 11.0949 88.0023 13.0172 88.0023 15.3879C88.0023 17.7586 86.2765 19.6795 84.1508 19.6795ZM84.1508 8.56512C80.381 8.56512 77.3253 11.6208 77.3253 15.3879C77.3253 19.1549 80.381 22.2093 84.1508 22.2093C87.9207 22.2093 90.975 19.1563 90.975 15.3879C90.975 11.6195 87.9179 8.56512 84.1508 8.56512ZM57.2224 19.6795C55.0966 19.6795 53.3723 17.7586 53.3723 15.3879C53.3723 13.0172 55.0966 11.0949 57.2224 11.0949C59.3481 11.0949 61.0752 13.0172 61.0752 15.3879C61.0752 17.7586 59.3508 19.6795 57.2224 19.6795ZM57.2224 8.56512C53.4539 8.56512 50.401 11.6208 50.401 15.3879C50.401 19.1549 53.4539 22.2093 57.2224 22.2093C60.9908 22.2093 64.0465 19.1563 64.0465 15.3879C64.0465 11.6195 60.9908 8.56512 57.2224 8.56512ZM74.0897 9.00798L70.7461 14.2337L67.3998 9.00798H64.1295L69.3054 17.1081V21.9242H72.184V17.1081L77.3599 9.0066H74.0897V9.00798ZM102.408 9.00798H91.3625V11.4852H95.4534V21.9256H98.3347V11.4852H102.408V9.00798ZM38.7524 11.4852H42.8447V21.9256H45.7247V11.4852H49.799V9.00798H38.7524V11.4852Z" fill="#838383"/>
<path d="M31 0H0V31H31V0Z" fill="#838383"/>
<path d="M20.6704 8.73948C19.2325 8.27725 17.4417 8.00323 15.5014 8.00323C13.5611 8.00323 11.7703 8.27587 10.331 8.73948C6.50446 9.9698 3.875 12.5245 3.875 15.4764C3.875 19.6296 9.07996 22.9967 15.5 22.9967C21.92 22.9967 27.125 19.6296 27.125 15.4764C27.125 12.5245 24.4955 9.9698 20.6704 8.73948ZM15.5014 19.7639C14.5437 19.7639 13.7604 17.8803 13.7147 15.5124C14.2904 15.5636 14.8883 15.5927 15.5014 15.5927C16.1145 15.5927 16.7109 15.565 17.288 15.5124C17.2424 17.8803 16.4591 19.7639 15.5014 19.7639ZM13.8351 13.6593C14.0967 11.9973 14.743 10.8209 15.5014 10.8209C16.2598 10.8209 16.9047 11.9973 17.1662 13.6593C16.6334 13.7078 16.0757 13.7341 15.5014 13.7341C14.9271 13.7341 14.3679 13.7078 13.8351 13.6593ZM18.1834 13.5334C17.7946 10.9261 16.74 9.0564 15.5 9.0564C14.26 9.0564 13.2054 10.9261 12.8166 13.5334C10.4556 13.1653 8.80455 12.3252 8.80455 11.3482C8.80455 10.0307 11.8021 8.96368 15.5 8.96368C19.1979 8.96368 22.1954 10.0307 22.1954 11.3482C22.1954 12.3252 20.5444 13.1639 18.1834 13.5334ZM5.5717 15.201C5.5717 13.9278 6.06161 12.7349 6.91687 11.708C6.90719 11.78 6.90165 11.8506 6.90165 11.9239C6.90165 13.5251 9.30692 14.8869 12.6616 15.3879C12.6588 15.5083 12.6574 15.6301 12.6574 15.7519C12.6574 18.7301 13.4836 21.2516 14.6254 22.1221C9.55187 21.8121 5.5717 18.8325 5.5717 15.201ZM16.376 22.1221C17.5178 21.253 18.344 18.7301 18.344 15.7519C18.344 15.6301 18.344 15.5083 18.3398 15.3879C21.6931 14.8869 24.0997 13.5265 24.0997 11.9239C24.0997 11.8519 24.0942 11.78 24.0845 11.708C24.9398 12.7349 25.4297 13.9278 25.4297 15.201C25.4297 18.8325 21.4495 21.8121 16.3774 22.1221" fill="white"/>
</svg>
