<svg width="10" height="8" viewBox="0 0 10 8" fill="none" xmlns="http://www.w3.org/2000/svg">
<circle cx="8.33333" cy="5.66667" r="1.66667" transform="rotate(90 8.33333 5.66667)" fill="#1F1F1F"/>
<circle cx="1.66659" cy="5.66667" r="1.66667" transform="rotate(90 1.66659 5.66667)" fill="#1F1F1F"/>
<circle cx="5.00008" cy="1.66667" r="1.66667" transform="rotate(90 5.00008 1.66667)" fill="#1F1F1F"/>
<path d="M9.33329 4.33335L6.99996 6.33333V6.33333C6.79627 4.70387 5.67502 3.33614 4.11715 2.81684L3.66662 2.66666L6.33328 0.66663V0.66663C6.53823 2.30623 7.63583 3.69681 9.18299 4.27699L9.33329 4.33335Z" fill="#1F1F1F"/>
<path d="M5.89767 2.8525L3.47675 0.959481V0.959481C3.34655 2.59646 2.28794 4.01322 0.754998 4.60206L0.311678 4.77235L3.06559 6.65043V6.65043C3.1966 5.00327 4.23055 3.56474 5.75005 2.91557L5.89767 2.8525Z" fill="#1F1F1F"/>
</svg>
