<svg width="30" height="30" viewBox="0 0 30 30" fill="none" xmlns="http://www.w3.org/2000/svg">
<g clip-path="url(#clip0_73_526)">
<path d="M12.5 18H25.5C25.777 18 26 18.223 26 18.5C26 18.777 25.777 19 25.5 19H12.5C12.223 19 12 18.777 12 18.5C12 18.223 12.223 18 12.5 18ZM12.5 15H25.5C25.777 15 26 15.223 26 15.5C26 15.777 25.777 16 25.5 16H12.5C12.223 16 12 15.777 12 15.5C12 15.223 12.223 15 12.5 15ZM5.5 13C4.678 13 4 13.678 4 14.5V19.5C4 20.322 4.678 21 5.5 21H8.5C9.322 21 10 20.322 10 19.5V14.5C10 13.678 9.322 13 8.5 13H5.5ZM5.5 14H8.5C8.786 14 9 14.214 9 14.5V19.5C9 19.786 8.786 20 8.5 20H5.5C5.214 20 5 19.786 5 19.5V14.5C5 14.214 5.214 14 5.5 14ZM2.5 8H27.5C27.777 8 28 8.223 28 8.5C28 8.777 27.777 9 27.5 9H2.5C2.223 9 2 8.777 2 8.5C2 8.223 2.223 8 2.5 8ZM7 6.5C7 6.63261 6.94732 6.75978 6.85355 6.85355C6.75979 6.94732 6.63261 7 6.5 7C6.36739 7 6.24021 6.94732 6.14645 6.85355C6.05268 6.75978 6 6.63261 6 6.5C6 6.36739 6.05268 6.24021 6.14645 6.14645C6.24021 6.05268 6.36739 6 6.5 6C6.63261 6 6.75979 6.05268 6.85355 6.14645C6.94732 6.24021 7 6.36739 7 6.5ZM5 6.5C5 6.63261 4.94732 6.75978 4.85355 6.85355C4.75979 6.94732 4.63261 7 4.5 7C4.36739 7 4.24021 6.94732 4.14645 6.85355C4.05268 6.75978 4 6.63261 4 6.5C4 6.36739 4.05268 6.24021 4.14645 6.14645C4.24021 6.05268 4.36739 6 4.5 6C4.63261 6 4.75979 6.05268 4.85355 6.14645C4.94732 6.24021 5 6.36739 5 6.5ZM3 6.5C3 6.63261 2.94732 6.75978 2.85355 6.85355C2.75979 6.94732 2.63261 7 2.5 7C2.36739 7 2.24021 6.94732 2.14645 6.85355C2.05268 6.75978 2 6.63261 2 6.5C2 6.36739 2.05268 6.24021 2.14645 6.14645C2.24021 6.05268 2.36739 6 2.5 6C2.63261 6 2.75979 6.05268 2.85355 6.14645C2.94732 6.24021 3 6.36739 3 6.5ZM1.5 4C0.678 4 0 4.678 0 5.5V24.5C0 25.322 0.678 26 1.5 26H28.5C29.322 26 30 25.322 30 24.5V5.5C30 4.678 29.322 4 28.5 4H1.5ZM1.5 5H28.5C28.786 5 29 5.214 29 5.5V24.5C29 24.786 28.786 25 28.5 25H1.5C1.214 25 1 24.786 1 24.5V5.5C1 5.214 1.214 5 1.5 5Z" fill="url(#paint0_linear_73_526)"/>
</g>
<defs>
<linearGradient id="paint0_linear_73_526" x1="1.11759e-07" y1="15" x2="30" y2="15" gradientUnits="userSpaceOnUse">
<stop stop-color="#386BB7"/>
<stop offset="1" stop-color="#E24C4A"/>
</linearGradient>
<clipPath id="clip0_73_526">
<rect width="30" height="30" fill="white"/>
</clipPath>
</defs>
</svg>
