<svg width="100" height="100" viewBox="0 0 100 100" fill="none" xmlns="http://www.w3.org/2000/svg">
<path d="M92 4H32C29.8 4 28 5.8 28 8V12H24C21.8 12 20 13.8 20 16V20H16C13.8 20 12 21.8 12 24V28H8C5.8 28 4 29.8 4 32V92C4 94.2 5.8 96 8 96H68C70.2 96 72 94.2 72 92V88H76C78.2 88 80 86.2 80 84V80H84C86.2 80 88 78.2 88 76V72H92C94.2 72 96 70.2 96 68V8C96 5.8 94.2 4 92 4ZM30 8C30 6.9 30.9 6 32 6H92C93.1 6 94 6.9 94 8V14H87.4C86.7 12.8 85.4 12 84 12H83H77H30V8ZM22 16C22 14.9 22.9 14 24 14H84C85.1 14 86 14.9 86 16V22H79.4C78.7 20.8 77.4 20 76 20H75H69H22V16ZM14 24C14 22.9 14.9 22 16 22H76C77.1 22 78 22.9 78 24V30H71.4C70.7 28.8 69.4 28 68 28H67H61H14V24ZM8 30H68C69.1 30 70 30.9 70 32V38H6V32C6 30.9 6.9 30 8 30ZM70 92C70 93.1 69.1 94 68 94H8C6.9 94 6 93.1 6 92V40H70V92ZM78 84C78 85.1 77.1 86 76 86H72V32H78V84ZM86 76C86 77.1 85.1 78 84 78H80V24H86V76ZM92 70H88V16H94V68C94 69.1 93.1 70 92 70Z" fill="#A5A6AA" stroke="#A5A6AA" stroke-width="0.5"/>
<path d="M53 36C54.1046 36 55 35.1046 55 34C55 32.8954 54.1046 32 53 32C51.8954 32 51 32.8954 51 34C51 35.1046 51.8954 36 53 36Z" fill="#A5A6AA" stroke="#A5A6AA" stroke-width="0.5"/>
<path d="M59 36C60.1046 36 61 35.1046 61 34C61 32.8954 60.1046 32 59 32C57.8954 32 57 32.8954 57 34C57 35.1046 57.8954 36 59 36Z" fill="#A5A6AA" stroke="#A5A6AA" stroke-width="0.5"/>
<path d="M65 36C66.1046 36 67 35.1046 67 34C67 32.8954 66.1046 32 65 32C63.8954 32 63 32.8954 63 34C63 35.1046 63.8954 36 65 36Z" fill="#A5A6AA" stroke="#A5A6AA" stroke-width="0.5"/>
<path d="M61 28C62.1046 28 63 27.1046 63 26C63 24.8954 62.1046 24 61 24C59.8954 24 59 24.8954 59 26C59 27.1046 59.8954 28 61 28Z" fill="#A5A6AA" stroke="#A5A6AA" stroke-width="0.5"/>
<path d="M67 28C68.1046 28 69 27.1046 69 26C69 24.8954 68.1046 24 67 24C65.8954 24 65 24.8954 65 26C65 27.1046 65.8954 28 67 28Z" fill="#A5A6AA" stroke="#A5A6AA" stroke-width="0.5"/>
<path d="M73 28C74.1046 28 75 27.1046 75 26C75 24.8954 74.1046 24 73 24C71.8954 24 71 24.8954 71 26C71 27.1046 71.8954 28 73 28Z" fill="#A5A6AA" stroke="#A5A6AA" stroke-width="0.5"/>
<path d="M69 20C70.1046 20 71 19.1046 71 18C71 16.8954 70.1046 16 69 16C67.8954 16 67 16.8954 67 18C67 19.1046 67.8954 20 69 20Z" fill="#A5A6AA" stroke="#A5A6AA" stroke-width="0.5"/>
<path d="M75 20C76.1046 20 77 19.1046 77 18C77 16.8954 76.1046 16 75 16C73.8954 16 73 16.8954 73 18C73 19.1046 73.8954 20 75 20Z" fill="#A5A6AA" stroke="#A5A6AA" stroke-width="0.5"/>
<path d="M81 20C82.1046 20 83 19.1046 83 18C83 16.8954 82.1046 16 81 16C79.8954 16 79 16.8954 79 18C79 19.1046 79.8954 20 81 20Z" fill="#A5A6AA" stroke="#A5A6AA" stroke-width="0.5"/>
<path d="M77 12C78.1046 12 79 11.1046 79 10C79 8.89543 78.1046 8 77 8C75.8954 8 75 8.89543 75 10C75 11.1046 75.8954 12 77 12Z" fill="#A5A6AA" stroke="#A5A6AA" stroke-width="0.5"/>
<path d="M83 12C84.1046 12 85 11.1046 85 10C85 8.89543 84.1046 8 83 8C81.8954 8 81 8.89543 81 10C81 11.1046 81.8954 12 83 12Z" fill="#A5A6AA" stroke="#A5A6AA" stroke-width="0.5"/>
<path d="M89 12C90.1046 12 91 11.1046 91 10C91 8.89543 90.1046 8 89 8C87.8954 8 87 8.89543 87 10C87 11.1046 87.8954 12 89 12Z" fill="#A5A6AA" stroke="#A5A6AA" stroke-width="0.5"/>
<path d="M12 55H64C65.7 55 67 53.7 67 52V46C67 44.3 65.7 43 64 43H12C10.3 43 9 44.3 9 46V52C9 53.7 10.3 55 12 55ZM11 46C11 45.4 11.4 45 12 45H64C64.6 45 65 45.4 65 46V52C65 52.6 64.6 53 64 53H12C11.4 53 11 52.6 11 52V46Z" fill="#A5A6AA" stroke="#A5A6AA" stroke-width="0.5"/>
<path d="M36 69H12C10.3 69 9 70.3 9 72V88C9 89.7 10.3 91 12 91H36C37.7 91 39 89.7 39 88V72C39 70.3 37.7 69 36 69ZM37 88C37 88.6 36.6 89 36 89H12C11.4 89 11 88.6 11 88V72C11 71.4 11.4 71 12 71H36C36.6 71 37 71.4 37 72V88Z" fill="#A5A6AA" stroke="#A5A6AA" stroke-width="0.5"/>
<path d="M67 64H11C10.4 64 10 64.4 10 65C10 65.6 10.4 66 11 66H67C67.6 66 68 65.6 68 65C68 64.4 67.6 64 67 64Z" fill="#A5A6AA" stroke="#A5A6AA" stroke-width="0.5"/>
<path d="M67 59H11C10.4 59 10 59.4 10 60C10 60.6 10.4 61 11 61H67C67.6 61 68 60.6 68 60C68 59.4 67.6 59 67 59Z" fill="#A5A6AA" stroke="#A5A6AA" stroke-width="0.5"/>
<path d="M66 69H43C42.4 69 42 69.4 42 70C42 70.6 42.4 71 43 71H66C66.6 71 67 70.6 67 70C67 69.4 66.6 69 66 69Z" fill="#A5A6AA" stroke="#A5A6AA" stroke-width="0.5"/>
<path d="M66 74H43C42.4 74 42 74.4 42 75C42 75.6 42.4 76 43 76H66C66.6 76 67 75.6 67 75C67 74.4 66.6 74 66 74Z" fill="#A5A6AA" stroke="#A5A6AA" stroke-width="0.5"/>
<path d="M66 79H43C42.4 79 42 79.4 42 80C42 80.6 42.4 81 43 81H66C66.6 81 67 80.6 67 80C67 79.4 66.6 79 66 79Z" fill="#A5A6AA" stroke="#A5A6AA" stroke-width="0.5"/>
<path d="M66 84H43C42.4 84 42 84.4 42 85C42 85.6 42.4 86 43 86H66C66.6 86 67 85.6 67 85C67 84.4 66.6 84 66 84Z" fill="#A5A6AA" stroke="#A5A6AA" stroke-width="0.5"/>
<path d="M66 89H43C42.4 89 42 89.4 42 90C42 90.6 42.4 91 43 91H66C66.6 91 67 90.6 67 90C67 89.4 66.6 89 66 89Z" fill="#A5A6AA" stroke="#A5A6AA" stroke-width="0.5"/>
</svg>
