<svg width="100" height="35" viewBox="0 0 100 35" fill="none" xmlns="http://www.w3.org/2000/svg">
<g clip-path="url(#clip0_1_117)">
<path d="M6.93277 6.95782H0L3.57143 28.8855L9.2437 21.2952L6.93277 6.95782Z" fill="white"/>
<path d="M17.437 6.95782H10.5042L14.0756 28.8855L19.7479 21.2952L17.437 6.95782Z" fill="white"/>
<path d="M62.605 6.74698H55.4622V29.0964H62.605V6.74698Z" fill="white"/>
<path d="M71.4937 24.2849H80.3697V27.4096H68.1071C68.0525 27.1173 68.0071 26.8249 67.9706 26.5325C67.934 26.231 67.9159 25.8838 67.9159 25.4909C67.9159 24.3306 68.1025 23.3393 68.476 22.517C68.8584 21.6947 69.4134 20.9592 70.142 20.3105C70.8794 19.6618 71.7849 19.0223 72.8592 18.3919C73.4508 18.0447 74.0428 17.6609 74.6344 17.2406C75.226 16.8204 75.7176 16.3224 76.1092 15.7468C76.5096 15.1621 76.7101 14.454 76.7101 13.6226C76.7101 12.9099 76.487 12.2749 76.0412 11.7176C75.6042 11.1603 74.8983 10.8816 73.9243 10.8816C72.9138 10.8816 72.1038 11.2105 71.4937 11.8684C70.8928 12.5262 70.5105 13.3759 70.3466 14.4175L67.4517 13.047C67.5975 12.0968 67.9659 11.2288 68.558 10.4431C69.1496 9.64818 69.9235 9.01776 70.8794 8.55179C71.8353 8.07668 72.9319 7.83914 74.1701 7.83914C75.2991 7.83914 76.3231 8.05386 77.2428 8.48327C78.1622 8.90356 78.8949 9.52028 79.4412 10.3334C79.9874 11.1466 80.2605 12.1333 80.2605 13.2937C80.2605 14.4814 80.0466 15.5093 79.6189 16.3772C79.1907 17.2452 78.558 18.0355 77.7206 18.7482C76.892 19.4608 75.8727 20.1826 74.6617 20.9135C73.8059 21.4343 73.1004 21.9231 72.5454 22.38C71.9991 22.8277 71.6483 23.4626 71.4937 24.2849Z" fill="white"/>
<mask id="mask0_1_117" style="mask-type:luminance" maskUnits="userSpaceOnUse" x="65" y="6" width="17" height="23">
<path d="M81.9328 6.32529H65.9664V28.6747H81.9328V6.32529Z" fill="white"/>
<path d="M71.4937 24.2849H80.3697V27.4096H68.1071C68.0525 27.1173 68.0071 26.8249 67.9706 26.5325C67.934 26.231 67.9159 25.8838 67.9159 25.4909C67.9159 24.3306 68.1025 23.3393 68.476 22.517C68.8584 21.6947 69.4134 20.9592 70.142 20.3105C70.8794 19.6618 71.7849 19.0223 72.8592 18.3919C73.4508 18.0447 74.0428 17.6609 74.6344 17.2406C75.226 16.8204 75.7176 16.3224 76.1092 15.7468C76.5096 15.1621 76.7101 14.454 76.7101 13.6226C76.7101 12.9099 76.487 12.2749 76.0412 11.7176C75.6042 11.1603 74.8983 10.8816 73.9243 10.8816C72.9138 10.8816 72.1038 11.2105 71.4937 11.8684C70.8928 12.5262 70.5105 13.3759 70.3466 14.4175L67.4517 13.047C67.5975 12.0968 67.9659 11.2288 68.558 10.4431C69.1496 9.64818 69.9235 9.01776 70.8794 8.55179C71.8353 8.07668 72.9319 7.83914 74.1701 7.83914C75.2991 7.83914 76.3231 8.05386 77.2428 8.48327C78.1622 8.90356 78.8949 9.52028 79.4412 10.3334C79.9874 11.1466 80.2605 12.1333 80.2605 13.2937C80.2605 14.4814 80.0466 15.5093 79.6189 16.3772C79.1907 17.2452 78.558 18.0355 77.7206 18.7482C76.892 19.4608 75.8727 20.1826 74.6617 20.9135C73.8059 21.4343 73.1004 21.9231 72.5454 22.38C71.9991 22.8277 71.6483 23.4626 71.4937 24.2849Z" fill="black"/>
</mask>
<g mask="url(#mask0_1_117)">
<path d="M71.4937 24.2849L70.255 24.0501L69.9726 25.55H71.4937V24.2849ZM80.3697 24.2849H81.6302V23.0199H80.3697V24.2849ZM80.3697 27.4096V28.6747H81.6302V27.4096H80.3697ZM68.1071 27.4096L66.868 27.6428L67.0609 28.6747H68.1071V27.4096ZM67.9705 26.5325L66.7193 26.6848L66.7197 26.6894L67.9705 26.5325ZM68.476 22.517L67.3336 21.982L67.331 21.9873L67.3285 21.9926L68.476 22.517ZM70.142 20.3105L69.3109 19.3592L69.3079 19.3618L69.305 19.3644L70.142 20.3105ZM76.1092 15.7468L75.0705 15.0301L75.068 15.0337L76.1092 15.7468ZM76.0411 11.7176L75.0504 12.4999L75.0542 12.5049L75.0584 12.5099L76.0411 11.7176ZM71.4937 11.8684L70.571 11.0066L70.5676 11.01L70.5647 11.0135L71.4937 11.8684ZM70.3466 14.4175L69.8088 15.5616L71.3294 16.2815L71.5916 14.6148L70.3466 14.4175ZM67.4516 13.047L66.2058 12.8546L66.0626 13.7882L66.9138 14.1912L67.4516 13.047ZM68.5579 10.4431L69.5634 11.2059L69.5655 11.203L69.5676 11.2003L68.5579 10.4431ZM70.8794 8.55181L71.4298 9.68973L71.4344 9.68762L71.4386 9.68547L70.8794 8.55181ZM77.2428 8.48328L76.7109 9.63023L76.7155 9.63242L76.7201 9.63457L77.2428 8.48328ZM77.7205 18.7482L76.9054 17.7832L76.9029 17.7855L76.9004 17.7877L77.7205 18.7482ZM74.6617 20.9136L74.0121 19.8295L74.0079 19.8318L74.6617 20.9136ZM72.5453 22.38L73.3424 23.3598L73.3441 23.3584L72.5453 22.38ZM71.4937 25.55H80.3697V23.0199H71.4937V25.55ZM79.1092 24.2849V27.4096H81.6302V24.2849H79.1092ZM80.3697 26.1446H68.1071V28.6747H80.3697V26.1446ZM69.3462 27.1765C69.2962 26.9092 69.2546 26.6422 69.2214 26.3756L66.7197 26.6894C66.7592 27.0076 66.8088 27.3254 66.868 27.6428L69.3462 27.1765ZM69.2218 26.3803C69.1932 26.1415 69.1764 25.8469 69.1764 25.491H66.6554C66.6554 25.9208 66.6752 26.3206 66.7193 26.6848L69.2218 26.3803ZM69.1764 25.491C69.1764 24.4621 69.3424 23.6593 69.6231 23.0415L67.3285 21.9926C66.8626 23.0193 66.6554 24.1992 66.6554 25.491H69.1764ZM69.618 23.052C69.9222 22.398 70.3689 21.7996 70.9785 21.2567L69.305 19.3644C68.4579 20.1188 67.7941 20.9914 67.3336 21.982L69.618 23.052ZM70.9726 21.2619C71.6361 20.6781 72.4731 20.084 73.4953 19.4839L72.2231 17.2997C71.097 17.9605 70.1222 18.6456 69.3109 19.3592L70.9726 21.2619ZM73.4953 19.4839C74.1205 19.1172 74.7428 18.7135 75.3626 18.2733L73.9063 16.208C73.3428 16.6083 72.7815 16.972 72.2231 17.2997L73.4953 19.4839ZM75.3626 18.2733C76.0714 17.7699 76.6705 17.1653 77.1504 16.46L75.068 15.0337C74.7647 15.4795 74.381 15.8708 73.9063 16.208L75.3626 18.2733ZM77.1479 16.4635C77.7163 15.6336 77.9705 14.6649 77.9705 13.6226H75.4495C75.4495 14.2432 75.3029 14.6906 75.0705 15.0301L77.1479 16.4635ZM77.9705 13.6226C77.9705 12.6208 77.6487 11.7066 77.0235 10.9254L75.0584 12.5099C75.3252 12.8433 75.4495 13.199 75.4495 13.6226H77.9705ZM77.0315 10.9353C76.2735 9.96868 75.1294 9.61657 73.9243 9.61657V12.1467C74.6672 12.1467 74.9344 12.3519 75.0504 12.4999L77.0315 10.9353ZM73.9243 9.61657C72.6134 9.61657 71.4512 10.0572 70.571 11.0066L72.4163 12.7302C72.7563 12.3639 73.2142 12.1467 73.9243 12.1467V9.61657ZM70.5647 11.0135C69.7676 11.8858 69.297 12.9785 69.1016 14.2202L71.5916 14.6148C71.7239 13.7733 72.018 13.1666 72.4226 12.7232L70.5647 11.0135ZM70.8844 13.2733L67.9895 11.9028L66.9138 14.1912L69.8088 15.5616L70.8844 13.2733ZM68.6974 13.2394C68.8105 12.5015 69.0945 11.8287 69.5634 11.2059L67.5521 9.68028C66.8378 10.629 66.384 11.692 66.2058 12.8546L68.6974 13.2394ZM69.5676 11.2003C70.0298 10.5792 70.6411 10.0742 71.4298 9.68973L70.3285 7.41389C69.2054 7.96136 68.2693 8.71715 67.5479 9.68589L69.5676 11.2003ZM71.4386 9.68547C72.1945 9.30966 73.0949 9.10422 74.1701 9.10422V6.5741C72.7693 6.5741 71.4756 6.84372 70.3197 7.41815L71.4386 9.68547ZM74.1701 9.10422C75.1361 9.10422 75.976 9.28702 76.7109 9.63023L77.7743 7.33634C76.6705 6.8207 75.4617 6.5741 74.1701 6.5741V9.10422ZM76.7201 9.63457C77.4352 9.96151 77.9844 10.4278 78.3958 11.0406L80.4865 9.62627C79.8054 8.6127 78.8886 7.84561 77.7651 7.33199L76.7201 9.63457ZM78.3958 11.0406C78.7777 11.6089 79 12.3382 79 13.2937H81.521C81.521 11.9285 81.197 10.6843 80.4865 9.62627L78.3958 11.0406ZM79 13.2937C79 14.3301 78.8134 15.1578 78.489 15.8163L80.7483 16.9382C81.2798 15.8608 81.521 14.6327 81.521 13.2937H79ZM78.489 15.8163C78.147 16.5095 77.6298 17.167 76.9054 17.7832L78.5357 19.7131C79.4865 18.9041 80.2344 17.9809 80.7483 16.9382L78.489 15.8163ZM76.9004 17.7877C76.1382 18.4434 75.1789 19.1249 74.0121 19.8295L75.3113 21.9976C76.5659 21.2404 77.6462 20.4783 78.5407 19.7087L76.9004 17.7877ZM74.0079 19.8318C73.1197 20.3725 72.3613 20.8954 71.7462 21.4016L73.3441 23.3584C73.8395 22.9509 74.4924 22.4962 75.3155 21.9953L74.0079 19.8318ZM71.7479 21.4001C70.931 22.0694 70.4546 22.9911 70.255 24.0501L72.7323 24.5197C72.8424 23.9342 73.0668 23.5859 73.3424 23.3598L71.7479 21.4001Z" fill="white"/>
</g>
<path d="M91.6197 27.8208C90.5819 27.8208 89.5806 27.6929 88.6155 27.437C87.6504 27.1812 86.7857 26.7792 86.021 26.231L87.168 23.1063C87.687 23.6088 88.3197 24.0017 89.0664 24.2849C89.8126 24.559 90.5454 24.6961 91.2647 24.6961C92.4937 24.6961 93.3949 24.4037 93.9685 23.819C94.5512 23.2342 94.8424 22.5033 94.8424 21.6262C94.8424 20.8861 94.6605 20.3242 94.2962 19.9405C93.9412 19.5476 93.4722 19.2781 92.8899 19.1319C92.3071 18.9857 91.6836 18.9126 91.0189 18.9126H89.5714V16.1991H91.0462C92.1659 16.1991 92.9945 15.925 93.5315 15.3768C94.0777 14.8194 94.3508 14.1251 94.3508 13.2937C94.3508 12.3891 94.0823 11.777 93.5454 11.4572C93.008 11.1283 92.2479 10.9638 91.2647 10.9638C90.9096 10.9638 90.4819 11.0278 89.9811 11.1557C89.4895 11.2836 88.9979 11.4709 88.5063 11.7176C88.0147 11.9643 87.605 12.2704 87.2773 12.6358L85.9117 9.73041C86.476 9.23703 87.2727 8.79848 88.3017 8.41474C89.3395 8.03101 90.5727 7.83914 92.0021 7.83914C93.8865 7.83914 95.384 8.26855 96.4949 9.1274C97.6147 9.97709 98.1743 11.1831 98.1743 12.7455C98.1743 13.4399 98.0517 14.1205 97.8059 14.7875C97.5601 15.4545 97.2004 16.0392 96.7269 16.5417C96.2533 17.0351 95.6798 17.3685 95.0063 17.5422C95.7802 17.5422 96.4403 17.7569 96.9865 18.1863C97.5416 18.6157 97.9651 19.173 98.2563 19.8583C98.5475 20.5435 98.6933 21.2699 98.6933 22.0373C98.6933 23.2434 98.3748 24.2804 97.7374 25.1483C97.1 26.0072 96.2445 26.6696 95.1701 27.1355C94.105 27.5923 92.9214 27.8208 91.6197 27.8208Z" fill="white"/>
<mask id="mask1_1_117" style="mask-type:luminance" maskUnits="userSpaceOnUse" x="84" y="6" width="16" height="24">
<path d="M100 6.32529H84.0336V29.0964H100V6.32529Z" fill="white"/>
<path d="M91.6198 27.8208C90.582 27.8208 89.5807 27.6929 88.6156 27.437C87.6505 27.1812 86.7858 26.7792 86.021 26.231L87.1681 23.1063C87.687 23.6088 88.3198 24.0017 89.0664 24.2849C89.8126 24.559 90.5454 24.6961 91.2647 24.6961C92.4937 24.6961 93.395 24.4037 93.9685 23.819C94.5513 23.2342 94.8425 22.5033 94.8425 21.6262C94.8425 20.8861 94.6605 20.3242 94.2963 19.9405C93.9412 19.5476 93.4723 19.2781 92.89 19.1319C92.3072 18.9857 91.6837 18.9126 91.0189 18.9126H89.5715V16.1991H91.0463C92.166 16.1991 92.9946 15.925 93.5315 15.3768C94.0778 14.8194 94.3509 14.1251 94.3509 13.2937C94.3509 12.3891 94.0824 11.777 93.5454 11.4572C93.008 11.1283 92.2479 10.9638 91.2647 10.9638C90.9097 10.9638 90.482 11.0278 89.9811 11.1557C89.4895 11.2836 88.9979 11.4709 88.5063 11.7176C88.0147 11.9643 87.6051 12.2704 87.2774 12.6358L85.9118 9.73041C86.4761 9.23703 87.2727 8.79848 88.3017 8.41474C89.3395 8.03101 90.5727 7.83914 92.0021 7.83914C93.8866 7.83914 95.3841 8.26855 96.495 9.1274C97.6147 9.97709 98.1744 11.1831 98.1744 12.7455C98.1744 13.4399 98.0517 14.1205 97.8059 14.7875C97.5601 15.4545 97.2005 16.0392 96.7269 16.5417C96.2534 17.0351 95.6799 17.3685 95.0063 17.5422C95.7803 17.5422 96.4404 17.7569 96.9866 18.1863C97.5416 18.6157 97.9652 19.173 98.2563 19.8583C98.5475 20.5435 98.6933 21.2699 98.6933 22.0373C98.6933 23.2434 98.3748 24.2804 97.7374 25.1483C97.1 26.0072 96.2446 26.6696 95.1702 27.1355C94.1051 27.5923 92.9215 27.8208 91.6198 27.8208Z" fill="black"/>
</mask>
<g mask="url(#mask1_1_117)">
<path d="M86.021 26.231L84.8382 25.7937L84.5059 26.6994L85.2882 27.2604L86.021 26.231ZM87.1681 23.1063L88.0433 22.1959L86.6529 20.8497L85.9853 22.669L87.1681 23.1063ZM89.0664 24.2849L88.6206 25.4683L88.6269 25.4706L88.6332 25.473L89.0664 24.2849ZM93.9685 23.819L93.0773 22.9245L93.0735 22.928L93.0702 22.9315L93.9685 23.819ZM94.2962 19.9405L93.3626 20.7904L93.3727 20.8018L93.3836 20.813L94.2962 19.9405ZM89.5714 18.9127H88.3109V20.1777H89.5714V18.9127ZM89.5714 16.1991V14.934H88.3109V16.1991H89.5714ZM93.5454 11.4572L92.8886 12.5371L92.8954 12.5412L92.9021 12.5453L93.5454 11.4572ZM89.9811 11.1557L89.6702 9.92975L89.6647 9.93114L89.9811 11.1557ZM87.2773 12.6358L86.1374 13.1756L86.9462 14.8963L88.2143 13.4821L87.2773 12.6358ZM85.9118 9.73042L85.084 8.77648L84.3651 9.40484L84.7718 10.2701L85.9118 9.73042ZM88.3017 8.41476L87.8655 7.22771L87.8622 7.22898L88.3017 8.41476ZM96.4949 9.12741L95.7252 10.1295L95.7298 10.133L95.7344 10.1365L96.4949 9.12741ZM96.7269 16.5417L97.6349 17.4192L97.6386 17.415L97.6428 17.4108L96.7269 16.5417ZM95.0063 17.5422L94.6928 16.3168L95.0063 18.8072V17.5422ZM96.9865 18.1863L96.2092 19.1822L96.213 19.1853L96.2168 19.1884L96.9865 18.1863ZM97.7374 25.1483L98.7483 25.9039L98.7504 25.9013L98.7521 25.8988L97.7374 25.1483ZM95.1702 27.1355L95.6655 28.2989L95.6702 28.2968L95.1702 27.1355ZM91.6197 26.5557C90.6861 26.5557 89.7933 26.4408 88.9374 26.2139L88.2937 28.6602C89.3676 28.9449 90.4777 29.0858 91.6197 29.0858V26.5557ZM88.9374 26.2139C88.1105 25.9948 87.3865 25.6554 86.7538 25.2016L85.2882 27.2604C86.1849 27.903 87.1903 28.3677 88.2937 28.6602L88.9374 26.2139ZM87.2038 26.6684L88.3508 23.5437L85.9853 22.669L84.8382 25.7937L87.2038 26.6684ZM86.2928 24.0167C86.9475 24.6507 87.7311 25.1308 88.6206 25.4683L89.5117 23.1016C88.9084 22.8726 88.4265 22.567 88.0433 22.1959L86.2928 24.0167ZM88.6332 25.473C89.5038 25.7927 90.3832 25.9611 91.2647 25.9611V23.431C90.708 23.431 90.1214 23.3254 89.4991 23.0969L88.6332 25.473ZM91.2647 25.9611C92.663 25.9611 93.9597 25.6311 94.8668 24.7065L93.0702 22.9315C92.8302 23.1763 92.3244 23.431 91.2647 23.431V25.9611ZM94.8597 24.7135C95.6941 23.876 96.1029 22.8162 96.1029 21.6262H93.5819C93.5819 22.1904 93.408 22.5925 93.0773 22.9245L94.8597 24.7135ZM96.1029 21.6262C96.1029 20.6912 95.8718 19.7667 95.2088 19.068L93.3836 20.813C93.4487 20.8818 93.5819 21.0811 93.5819 21.6262H96.1029ZM95.2298 19.0906C94.6853 18.4879 93.9857 18.103 93.1954 17.9046L92.584 20.3592C92.9588 20.4532 93.197 20.6074 93.3626 20.7904L95.2298 19.0906ZM93.1954 17.9046C92.5029 17.7309 91.7756 17.6476 91.0189 17.6476V20.1777C91.5912 20.1777 92.1113 20.2406 92.584 20.3592L93.1954 17.9046ZM91.0189 17.6476H89.5714V20.1777H91.0189V17.6476ZM90.8319 18.9127V16.1991H88.3109V18.9127H90.8319ZM89.5714 17.4642H91.0462V14.934H89.5714V17.4642ZM91.0462 17.4642C92.3479 17.4642 93.5655 17.1465 94.4302 16.2638L92.6328 14.4897C92.4235 14.7034 91.984 14.934 91.0462 14.934V17.4642ZM94.4302 16.2638C95.2239 15.4537 95.6113 14.4337 95.6113 13.2937H93.0903C93.0903 13.8165 92.9315 14.1851 92.6328 14.4897L94.4302 16.2638ZM95.6113 13.2937C95.6113 12.16 95.2634 11.0094 94.1882 10.3692L92.9021 12.5453C92.929 12.5613 92.9601 12.5842 92.9958 12.666C93.0395 12.7654 93.0903 12.9586 93.0903 13.2937H95.6113ZM94.2017 10.3773C93.3853 9.8773 92.3601 9.6988 91.2647 9.6988V12.2289C92.1357 12.2289 92.6311 12.3793 92.8886 12.5371L94.2017 10.3773ZM91.2647 9.6988C90.7689 9.6988 90.2307 9.78651 89.6702 9.92975L90.292 12.3817C90.7328 12.2691 91.0504 12.2289 91.2647 12.2289V9.6988ZM89.6647 9.93114C89.0811 10.083 88.5067 10.303 87.9424 10.5861L89.0702 12.8491C89.4891 12.6388 89.8979 12.4842 90.2975 12.3803L89.6647 9.93114ZM87.9424 10.5861C87.3269 10.895 86.7857 11.2929 86.3403 11.7896L88.2143 13.4821C88.4244 13.2478 88.7025 13.0336 89.0702 12.8491L87.9424 10.5861ZM88.4172 12.0961L87.0517 9.1907L84.7718 10.2701L86.1374 13.1756L88.4172 12.0961ZM86.7395 10.6844C87.1491 10.3263 87.7941 9.95366 88.7407 9.60054L87.8622 7.22898C86.7517 7.64328 85.8029 8.14779 85.084 8.77648L86.7395 10.6844ZM88.7374 9.60181C89.6012 9.2823 90.6802 9.10422 92.0021 9.10422V6.5741C90.4655 6.5741 89.0773 6.77975 87.8655 7.22771L88.7374 9.60181ZM92.0021 9.10422C93.7033 9.10422 94.9004 9.49149 95.7252 10.1295L97.2643 8.12531C95.8681 7.04567 94.0697 6.5741 92.0021 6.5741V9.10422ZM95.7344 10.1365C96.5017 10.7186 96.9139 11.5299 96.9139 12.7455H99.4349C99.4349 10.8363 98.7273 9.23557 97.255 8.11831L95.7344 10.1365ZM96.9139 12.7455C96.9139 13.2865 96.8189 13.8187 96.6235 14.3486L98.9878 15.2263C99.284 14.4224 99.4349 13.5933 99.4349 12.7455H96.9139ZM96.6235 14.3486C96.4349 14.8603 96.1643 15.2976 95.8109 15.6726L97.6428 17.4108C98.2361 16.7809 98.6849 16.0486 98.9878 15.2263L96.6235 14.3486ZM95.8189 15.6642C95.5109 15.9852 95.1445 16.2004 94.6928 16.3168L95.3197 18.7675C96.2155 18.5367 96.9962 18.085 97.6349 17.4192L95.8189 15.6642ZM95.0063 18.8072C95.5328 18.8072 95.9101 18.9473 96.2092 19.1822L97.7634 17.1904C96.9702 16.5665 96.0277 16.2771 95.0063 16.2771V18.8072ZM96.2168 19.1884C96.5912 19.4778 96.8853 19.8566 97.097 20.3547L99.4155 19.3618C99.0449 18.4894 98.492 17.7537 97.7559 17.1842L96.2168 19.1884ZM97.097 20.3547C97.3193 20.8783 97.4328 21.4353 97.4328 22.0373H99.9538C99.9538 21.1045 99.7756 20.2088 99.4155 19.3618L97.097 20.3547ZM97.4328 22.0373C97.4328 23.0069 97.1815 23.7729 96.7227 24.3979L98.7521 25.8988C99.5676 24.7878 99.9538 23.4799 99.9538 22.0373H97.4328ZM96.7265 24.3928C96.2336 25.0569 95.5618 25.5875 94.6702 25.9743L95.6702 28.2968C96.9269 27.7516 97.9668 26.9575 98.7483 25.9039L96.7265 24.3928ZM94.6748 25.9722C93.7844 26.3541 92.7723 26.5557 91.6197 26.5557V29.0858C93.0706 29.0858 94.4256 28.8306 95.6655 28.2989L94.6748 25.9722Z" fill="white"/>
</g>
<path d="M23.6407 27.4096V8.30511H33.5819V11.2928H27.0546V15.7605H32.2437V18.666H27.0546V24.3123H34.1281V27.4096H23.6407Z" fill="white"/>
<mask id="mask2_1_117" style="mask-type:luminance" maskUnits="userSpaceOnUse" x="22" y="6" width="14" height="23">
<path d="M35.7143 6.74698H22.2689V28.6747H35.7143V6.74698Z" fill="white"/>
<path d="M23.6407 27.4096V8.30511H33.5819V11.2928H27.0546V15.7605H32.2437V18.666H27.0546V24.3123H34.1281V27.4096H23.6407Z" fill="black"/>
</mask>
<g mask="url(#mask2_1_117)">
<path d="M23.6408 27.4096H22.3802V28.6747H23.6408V27.4096ZM23.6408 8.3051V7.04004H22.3802V8.3051H23.6408ZM33.5819 8.3051H34.8424V7.04004H33.5819V8.3051ZM33.5819 11.2928V12.5578H34.8424V11.2928H33.5819ZM27.0546 11.2928V10.0277H25.7941V11.2928H27.0546ZM27.0546 15.7605H25.7941V17.0256H27.0546V15.7605ZM32.2437 15.7605H33.5042V14.4955H32.2437V15.7605ZM32.2437 18.6659V19.931H33.5042V18.6659H32.2437ZM27.0546 18.6659V17.4009H25.7941V18.6659H27.0546ZM27.0546 24.3123H25.7941V25.5774H27.0546V24.3123ZM34.1281 24.3123H35.3887V23.0473H34.1281V24.3123ZM34.1281 27.4096V28.6747H35.3887V27.4096H34.1281ZM24.9013 27.4096V8.3051H22.3802V27.4096H24.9013ZM23.6408 9.57016H33.5819V7.04004H23.6408V9.57016ZM32.3214 8.3051V11.2928H34.8424V8.3051H32.3214ZM33.5819 10.0277H27.0546V12.5578H33.5819V10.0277ZM25.7941 11.2928V15.7605H28.3151V11.2928H25.7941ZM27.0546 17.0256H32.2437V14.4955H27.0546V17.0256ZM30.9832 15.7605V18.6659H33.5042V15.7605H30.9832ZM32.2437 17.4009H27.0546V19.931H32.2437V17.4009ZM25.7941 18.6659V24.3123H28.3151V18.6659H25.7941ZM27.0546 25.5774H34.1281V23.0473H27.0546V25.5774ZM32.8676 24.3123V27.4096H35.3887V24.3123H32.8676ZM34.1281 26.1446H23.6408V28.6747H34.1281V26.1446Z" fill="white"/>
</g>
<path d="M39.3477 27.4096V8.30511H44.4278C46.6673 8.30511 48.2967 8.75282 49.3164 9.64819C50.3357 10.5344 50.8458 11.7861 50.8458 13.4033C50.8458 14.1251 50.6727 14.8606 50.3269 15.6098C49.9807 16.359 49.4118 16.9209 48.6198 17.2955C49.703 17.5604 50.5042 18.0904 51.0231 18.8852C51.542 19.6801 51.8017 20.6851 51.8017 21.9003C51.8017 23.5814 51.2282 24.9199 50.0811 25.9158C48.9341 26.9117 47.0769 27.4096 44.5097 27.4096H39.3477ZM44.4278 11.0187H42.7891V16.3087H45.0013C45.6202 16.3087 46.1072 16.1625 46.4622 15.8702C46.8265 15.5687 47.0811 15.2032 47.2269 14.7738C47.3815 14.3352 47.4593 13.9149 47.4593 13.5129C47.4593 12.8551 47.3135 12.348 47.0223 11.9917C46.7399 11.6262 46.3668 11.375 45.9026 11.2379C45.4383 11.0917 44.9467 11.0187 44.4278 11.0187ZM44.7282 18.8578H42.7891V24.6413H44.892C45.4383 24.6413 45.9614 24.5682 46.4622 24.422C46.9719 24.2758 47.3862 23.9926 47.7051 23.5723C48.0328 23.152 48.1967 22.5307 48.1967 21.7084C48.1967 20.877 48.0236 20.2603 47.6778 19.8583C47.3408 19.4471 46.9038 19.1776 46.3668 19.0497C45.8387 18.9218 45.2925 18.8578 44.7282 18.8578Z" fill="white"/>
<mask id="mask3_1_117" style="mask-type:luminance" maskUnits="userSpaceOnUse" x="37" y="6" width="17" height="23">
<path d="M53.3613 6.74698H37.8151V28.6747H53.3613V6.74698Z" fill="white"/>
<path d="M39.3477 27.4096V8.30511H44.4278C46.6673 8.30511 48.2967 8.75282 49.3164 9.64819C50.3357 10.5344 50.8458 11.7861 50.8458 13.4033C50.8458 14.1251 50.6727 14.8606 50.3269 15.6098C49.9807 16.359 49.4118 16.9209 48.6198 17.2955C49.703 17.5604 50.5042 18.0904 51.0231 18.8852C51.542 19.6801 51.8017 20.6851 51.8017 21.9003C51.8017 23.5814 51.2282 24.9199 50.0811 25.9158C48.9341 26.9117 47.0769 27.4096 44.5097 27.4096H39.3477ZM44.4278 11.0187H42.7891V16.3087H45.0013C45.6202 16.3087 46.1072 16.1625 46.4622 15.8702C46.8265 15.5687 47.0811 15.2032 47.2269 14.7738C47.3815 14.3352 47.4593 13.9149 47.4593 13.5129C47.4593 12.8551 47.3135 12.348 47.0223 11.9917C46.7399 11.6262 46.3668 11.375 45.9026 11.2379C45.4383 11.0917 44.9467 11.0187 44.4278 11.0187ZM44.7282 18.8578H42.7891V24.6413H44.892C45.4383 24.6413 45.9614 24.5682 46.4622 24.422C46.9719 24.2758 47.3862 23.9926 47.7051 23.5723C48.0328 23.152 48.1967 22.5307 48.1967 21.7084C48.1967 20.877 48.0236 20.2603 47.6778 19.8583C47.3408 19.4471 46.9038 19.1776 46.3668 19.0497C45.8387 18.9218 45.2925 18.8578 44.7282 18.8578Z" fill="black"/>
</mask>
<g mask="url(#mask3_1_117)">
<path d="M39.3477 27.4096H38.0872V28.6747H39.3477V27.4096ZM39.3477 8.3051V7.04004H38.0872V8.3051H39.3477ZM49.3164 9.64817L48.4861 10.6002L48.4886 10.6023L48.4907 10.6044L49.3164 9.64817ZM48.6197 17.2955L48.0823 16.1511L44.8563 17.677L48.3214 18.5246L48.6197 17.2955ZM42.789 11.0187V9.75359H41.5283V11.0187H42.789ZM42.789 16.3087H41.5283V17.5738H42.789V16.3087ZM46.4622 15.8702L47.2617 16.8481L47.2643 16.846L46.4622 15.8702ZM47.2269 14.7738L46.0386 14.3515L46.0361 14.3587L46.0336 14.3661L47.2269 14.7738ZM47.0222 11.9917L46.0256 12.7666L46.0365 12.7805L46.0475 12.7942L47.0222 11.9917ZM45.9025 11.2379L45.5248 12.445L45.5357 12.4484L45.5466 12.4516L45.9025 11.2379ZM42.789 18.8578V17.5928H41.5283V18.8578H42.789ZM42.789 24.6412H41.5283V25.9063H42.789V24.6412ZM46.4622 24.422L46.1159 23.2056L46.113 23.2064L46.1101 23.2073L46.4622 24.422ZM47.705 23.5723L46.7122 22.7926L46.7067 22.7994L46.7017 22.8062L47.705 23.5723ZM47.6777 19.8583L46.7038 20.6617L46.7134 20.6736L46.7235 20.6851L47.6777 19.8583ZM46.3668 19.0497L46.071 20.2794L46.0756 20.2805L46.3668 19.0497ZM40.6082 27.4096V8.3051H38.0872V27.4096H40.6082ZM39.3477 9.57016H44.4277V7.04004H39.3477V9.57016ZM44.4277 9.57016C46.5475 9.57016 47.8054 10.0025 48.4861 10.6002L50.1462 8.69613C48.7878 7.50309 46.7865 7.04004 44.4277 7.04004V9.57016ZM48.4907 10.6044C49.1802 11.2034 49.5853 12.0748 49.5853 13.4033H52.1063C52.1063 11.4975 51.4916 9.86538 50.1416 8.69191L48.4907 10.6044ZM49.5853 13.4033C49.5853 13.9167 49.463 14.4714 49.1832 15.0779L51.4701 16.1417C51.8823 15.2498 52.1063 14.3335 52.1063 13.4033H49.5853ZM49.1832 15.0779C48.9697 15.5398 48.6256 15.8942 48.0823 16.1511L49.1571 18.4398C50.1979 17.9475 50.9916 17.1781 51.4701 16.1417L49.1832 15.0779ZM48.3214 18.5246C49.1529 18.7279 49.6554 19.0988 49.9689 19.5785L52.0773 18.1919C51.3529 17.0819 50.2533 16.3929 48.918 16.0664L48.3214 18.5246ZM49.9689 19.5785C50.3201 20.1169 50.5412 20.8633 50.5412 21.9003H53.0622C53.0622 20.5069 52.7638 19.2433 52.0773 18.1919L49.9689 19.5785ZM50.5412 21.9003C50.5412 23.2572 50.0954 24.2303 49.2563 24.9591L50.9054 26.8725C52.3605 25.6095 53.0622 23.9056 53.0622 21.9003H50.5412ZM49.2563 24.9591C48.4508 25.6581 46.9668 26.1446 44.5096 26.1446V28.6747C47.1865 28.6747 49.4168 28.1652 50.9054 26.8725L49.2563 24.9591ZM44.5096 26.1446H39.3477V28.6747H44.5096V26.1446ZM44.4277 9.75359H42.789V12.2837H44.4277V9.75359ZM41.5283 11.0187V16.3087H44.0496V11.0187H41.5283ZM42.789 17.5738H45.0012V15.0437H42.789V17.5738ZM45.0012 17.5738C45.8101 17.5738 46.6134 17.3818 47.2617 16.8481L45.6626 14.8922C45.6008 14.9432 45.4298 15.0437 45.0012 15.0437V17.5738ZM47.2643 16.846C47.8004 16.4021 48.1958 15.8431 48.4201 15.1815L46.0336 14.3661C45.9668 14.5633 45.8521 14.7352 45.6601 14.8943L47.2643 16.846ZM48.4151 15.1961C48.6105 14.6429 48.7197 14.0795 48.7197 13.5129H46.1987C46.1987 13.7504 46.1529 14.0276 46.0386 14.3515L48.4151 15.1961ZM48.7197 13.5129C48.7197 12.6849 48.5378 11.8512 47.9966 11.1892L46.0475 12.7942C46.0891 12.8449 46.1987 13.0252 46.1987 13.5129H48.7197ZM48.0185 11.2168C47.5655 10.6301 46.9626 10.2323 46.258 10.0243L45.5466 12.4516C45.7706 12.5176 45.9143 12.6224 46.0256 12.7666L48.0185 11.2168ZM46.2798 10.0309C45.6853 9.84375 45.0659 9.75359 44.4277 9.75359V12.2837C44.8269 12.2837 45.1907 12.3397 45.5248 12.445L46.2798 10.0309ZM44.7281 17.5928H42.789V20.1229H44.7281V17.5928ZM41.5283 18.8578V24.6412H44.0496V18.8578H41.5283ZM42.789 25.9063H44.892V23.3762H42.789V25.9063ZM44.892 25.9063C45.5517 25.9063 46.1937 25.8178 46.8143 25.6367L46.1101 23.2073C45.729 23.3185 45.3243 23.3762 44.892 23.3762V25.9063ZM46.8084 25.6384C47.5777 25.4177 48.2231 24.9777 48.708 24.3383L46.7017 22.8062C46.5491 23.0074 46.3664 23.1338 46.1159 23.2056L46.8084 25.6384ZM48.6975 24.3519C49.2706 23.6172 49.4571 22.6688 49.4571 21.7084H46.9361C46.9361 22.3926 46.7945 22.6868 46.7122 22.7926L48.6975 24.3519ZM49.4571 21.7084C49.4571 20.7366 49.2605 19.7622 48.6315 19.0314L46.7235 20.6851C46.7865 20.7583 46.9361 21.0174 46.9361 21.7084H49.4571ZM48.6512 19.0548C48.1319 18.421 47.4508 18.0077 46.6575 17.8188L46.0756 20.2805C46.3563 20.3475 46.5496 20.4732 46.7038 20.6617L48.6512 19.0548ZM46.6622 17.82C46.0336 17.6676 45.3882 17.5928 44.7281 17.5928V20.1229C45.1966 20.1229 45.6433 20.1759 46.071 20.2794L46.6622 17.82Z" fill="white"/>
</g>
</g>
<defs>
<clipPath id="clip0_1_117">
<rect width="100" height="35" fill="white"/>
</clipPath>
</defs>
</svg>
