<svg width="9" height="11" viewBox="0 0 9 11" fill="none" xmlns="http://www.w3.org/2000/svg">
<ellipse cx="1.83334" cy="1.83336" rx="1.83334" ry="1.83336" transform="matrix(-1 0 0 1 4.6001 0)" fill="white"/>
<ellipse cx="1.83334" cy="1.83336" rx="1.83334" ry="1.83336" transform="matrix(-1 0 0 1 4.6001 7.33337)" fill="white"/>
<ellipse cx="1.83334" cy="1.83336" rx="1.83334" ry="1.83336" transform="matrix(-1 0 0 1 9 3.66687)" fill="white"/>
<path d="M4.23337 0.733086L2.03338 3.29979C3.8258 3.52384 5.3303 4.75724 5.90154 6.47092L6.06674 6.96651L8.26678 4.03314C6.46321 3.80769 4.93357 2.60031 4.29537 0.898421L4.23337 0.733086Z" fill="white"/>
<path d="M5.86225 4.51283L7.94458 7.17588C6.1439 7.3191 4.58545 8.48359 3.93773 10.1698L3.75041 10.6575L1.68451 7.62816C3.4964 7.48405 5.07878 6.34669 5.79288 4.67521L5.86225 4.51283Z" fill="white"/>
</svg>
