<svg width="30" height="26" viewBox="0 0 30 26" fill="none" xmlns="http://www.w3.org/2000/svg">
<path d="M23.8101 18.5578L22.92 24.744C22.3414 25.1 21.2733 25.4561 19.1816 25.4561C15.2207 25.4561 13.0399 22.5633 13.0399 18.2463V5.78493H5.74113V25.011H0V0.132812H18.692V17.4897C18.692 19.1364 19.4931 19.7149 20.8728 19.7149C21.8964 19.7149 22.9645 19.2699 23.8101 18.5578Z" fill="white"/>
<path d="M21.4365 0.566894L22.1931 0.566894C24.0845 0.566894 24.8745 1.25672 25.4864 2.11344C26.3654 3.29282 26.243 3.91589 27.1999 3.91589C27.7562 3.91589 28.0343 3.61548 28.0343 3.01466C28.0343 2.4361 27.8563 2.0133 27.0997 1.53488L28.3681 0.578021C29.2026 1.18996 29.5364 1.9688 29.5364 3.08142C29.5364 4.37206 28.8799 5.35117 27.2333 5.35117C24.652 5.35117 24.7966 2.32484 22.8495 2.14682L22.8495 5.35117L21.4365 5.35117L21.4365 0.566894Z" fill="white"/>
<path fill-rule="evenodd" clip-rule="evenodd" d="M20.9729 0.10304L22.1931 0.10304C23.1958 0.10304 23.9474 0.286208 24.5423 0.612031C25.1359 0.937146 25.5343 1.38318 25.861 1.8399C26.0946 2.15383 26.2615 2.43039 26.3938 2.6638C26.4413 2.74773 26.4818 2.82098 26.5179 2.8864C26.5887 3.01474 26.6429 3.11291 26.7016 3.20239C26.7814 3.32398 26.8339 3.37022 26.8791 3.39563C26.9241 3.42092 27.0097 3.45203 27.1999 3.45203C27.397 3.45203 27.4623 3.40047 27.4856 3.37535C27.5151 3.3435 27.5708 3.25183 27.5708 3.0144C27.5708 2.77527 27.5345 2.61445 27.4506 2.47098C27.3626 2.32058 27.1954 2.14359 26.852 1.92644L26.2855 1.56819L28.3642 -7.15014e-08L28.6423 0.203916C29.1146 0.55024 29.4619 0.957379 29.6868 1.44879C29.9098 1.93628 30 2.47943 30 3.08116C30 3.7989 29.8176 4.4935 29.3451 5.01222C28.8654 5.53881 28.1505 5.8145 27.2333 5.8145C26.4862 5.8145 25.9135 5.59192 25.454 5.24538C25.0086 4.90946 24.688 4.46969 24.4203 4.07626C24.3698 4.00208 24.3216 3.93016 24.2748 3.86051C24.06 3.54035 23.8774 3.26828 23.6608 3.04572C23.5501 2.93203 23.4366 2.8383 23.3131 2.76675L23.3131 5.8145L20.9729 5.8145L20.9729 0.10304ZM22.8496 2.14655C23.0188 2.16203 23.1723 2.19904 23.3131 2.25372C23.9125 2.48642 24.2828 3.03917 24.6681 3.61434C25.2337 4.45847 25.8315 5.3509 27.2333 5.3509C28.88 5.3509 29.5364 4.3718 29.5364 3.08116C29.5364 1.96854 29.2026 1.1897 28.3682 0.577759L27.0998 1.53461C27.2529 1.63142 27.3823 1.72595 27.4913 1.81996C27.9211 2.19052 28.0344 2.55291 28.0344 3.0144C28.0344 3.61522 27.7562 3.91562 27.1999 3.91562C26.5567 3.91562 26.4012 3.63407 26.1013 3.09124C25.9551 2.82655 25.7746 2.49975 25.4865 2.11318C24.8745 1.25646 24.0846 0.566632 22.1931 0.566632L21.4365 0.566632L21.4365 5.3509L22.8496 5.3509L22.8496 2.14655Z" fill="white"/>
</svg>
