<svg width="81" height="81" viewBox="0 0 81 81" fill="none" xmlns="http://www.w3.org/2000/svg">
<path d="M50.8287 38.1858L50.3877 38.6268L50.8287 39.0678L51.2697 38.6268L50.8287 38.1858Z" fill="white"/>
<path d="M50.8287 38.1858L50.3877 38.6268L50.8287 39.0678L51.2697 38.6268L50.8287 38.1858Z" fill="white"/>
<path d="M58.5449 10.8911L46.5647 22.8714L57.4557 33.7623L76.6637 14.5544L80.3271 10.8911H58.5449Z" fill="white"/>
<path d="M47.9512 36.7326L11.2185 0V21.7822L26.169 36.7326H47.9512Z" fill="white"/>
<path d="M0.327148 69.1088H22.1093L47.2577 44.6534H24.7825L0.327148 69.1088Z" fill="white"/>
<path d="M57.6539 46.8184L46.7629 57.7096L69.4361 80.3828V58.6006L57.6539 46.8184Z" fill="white"/>
<path d="M52.2334 40.1952L51.8132 40.6152L52.2334 41.0352L52.6534 40.6152L52.2334 40.1952Z" fill="white"/>
<path d="M52.2334 40.1952L51.8132 40.6152L52.2334 41.0352L52.6534 40.6152L52.2334 40.1952Z" fill="white"/>
</svg>
